<mxfile host="app.diagrams.net" agent="Mozilla/5.0 (Windows NT 10.0; Win64; x64) AppleWebKit/537.36 (KHTML, like Gecko) Chrome/131.0.0.0 Safari/537.36" version="24.8.6">
  <diagram id="R7T1anuSgyvS72YppMQd" name="Page-1">
    <mxGraphModel dx="1290" dy="522" grid="1" gridSize="10" guides="1" tooltips="1" connect="1" arrows="1" fold="1" page="1" pageScale="1" pageWidth="850" pageHeight="1100" math="0" shadow="0">
      <root>
        <mxCell id="0" />
        <mxCell id="1" parent="0" />
        <mxCell id="X3qE4WryWQg65PlPXzmQ-7" style="edgeStyle=orthogonalEdgeStyle;rounded=0;orthogonalLoop=1;jettySize=auto;html=1;exitX=1;exitY=0.25;exitDx=0;exitDy=0;entryX=0;entryY=0.75;entryDx=0;entryDy=0;" parent="1" source="5MixrlwHWUt_mnM7fPg1-1" target="5MixrlwHWUt_mnM7fPg1-6" edge="1">
          <mxGeometry relative="1" as="geometry" />
        </mxCell>
        <mxCell id="X3qE4WryWQg65PlPXzmQ-9" style="edgeStyle=orthogonalEdgeStyle;rounded=0;orthogonalLoop=1;jettySize=auto;html=1;exitX=0.5;exitY=0;exitDx=0;exitDy=0;entryX=0.2;entryY=0.973;entryDx=0;entryDy=0;entryPerimeter=0;" parent="1" source="5MixrlwHWUt_mnM7fPg1-1" target="zdDgFbO8wIgGBFKdHX53-1" edge="1">
          <mxGeometry relative="1" as="geometry">
            <mxPoint x="376.25" y="195" as="targetPoint" />
            <Array as="points">
              <mxPoint x="360" y="221" />
              <mxPoint x="370" y="221" />
            </Array>
          </mxGeometry>
        </mxCell>
        <mxCell id="5MixrlwHWUt_mnM7fPg1-1" value="" style="shape=image;verticalLabelPosition=bottom;labelBackgroundColor=default;verticalAlign=top;aspect=fixed;imageAspect=0;image=data:image/png,iVBORw0KGgoAAAANSUhEUgAAAcIAAAFUCAYAAAC3JzwbAAAAAXNSR0IArs4c6QAAAARnQU1BAACxjwv8YQUAAAAJcEhZcwAADsMAAA7DAcdvqGQAAP+lSURBVHhe7P0HoCZZdR0KV/dEJueByeQsck4CBEJCAUWsHGxLlkGyZTnIfs//L8v2s34/K9iWJWQFrIAVkAQKiCgQmSEMiDzEmWFmGCbnHP691t7rnH1Onarv6+5BBvquqn3WXnvtc6q+c2933du37727PvS1L7tr2jVN010WHe8yvususz1RofOdR/OdfX67zqjPaKGe/bX72bN11JcL877RfHLQ4v0U38sFaT6haZayXCZEpVtvND/78+upoEa7X9SFfr2Etlzn53VWpi/443W2wbgvr2PvZyvredd267geY0/W2fv7SVhtSCuQ+hXr/fg7WnCub/QF9TWqoMyyRMtQq97zSh+R/FXMJi5gX9cZ+n1BN6z6gPMLT3W9vxRtvv/9oq76/kSNeixTZzkL6lvFaOIIX5LrDF8xWfvnG1D3d8bm7/rQ81521zbXm99XvaCw7+s47906Ql5HnWOM12nn6x1vDeN1hH29H+HuWqfC+5bX226dPH+8jrC+zuh+2vVydQ3uL9/Pnqxz992PkNdp1+sX6rv4F54l5D30G8wKHRYndtjUt9U61oAbLtCEAbNvgz/4i0/Idpo15y18FVQfIk8cYZMvbONvvU7fKG2cNyjXg8t+hi8947KM6vPVCPQ5jTGb0GGTL2zRZ58R/p61eOesX4UOra8ZWMbYtKaV/RQ6XTYsdL9e+YgIHuDlitAzv2HMr2+guV+53E9Tr0b+CG3TOst+XscKXH/UZyR71c/riEd9zqN1nPd9HffvrvuRH8lgvU3rtP6sYOE0K4OFpEl9IzUMp2IL3fyZXxoSD29ooW+Tn+5vhty+hj3pS9A0Ib8sLdfwJl+cCqoPMTTSDK5jOi+YOd/QyF/sEzoNuQa1L/TpMvJze8PoG9XFqaD6EHniCJt8ofH7CaZn+7fAi36grBO694Xws7vrw/YZYeQF3mB/oS0tFJAb684wX2e83tJ8Ic9u12nXa/vmcP9L7X7k7/06QuvP19u0ztgfr7MNxn15nfoR4wjetc06a30Vm9fZl/sRfJ287iLWF5pdsF8t//2RrzbjLfqIkiyAE2KhgrRSvtDilUa+0OnSt4C8zAgb/LJ6JLz9VJ/xNr4lvO2AfCJPWEPj9xPiAtvu81pf8U0S8jsUfwF5Oa8QWq1w+LO6GL4lvN2A/AazwgI29cGPC+zmlaES42BDYU/HHMlgHWeaHXvq7Ak+k4gEQ8N+P9Js6thT50gatijrsNixp5k1fXkdaZode+ocSb+OYmkdQSVB66jaref7GB6YqbQhpURaz1sxpvAihsLhOGZJ5tirJoCeM6rnGcZRAM5SY/S94BxAzxnV8wzjWmDMvRuwsUUN/Zqmmdb6Is/6kLW6HNaso/fW1wB1eoU9kRZaVfv2EhvmFjsSp3pPrQ7e8jVirDoUz6TDrd2J+UZz1fqgVPcC1R6zT07odcKKVZZzKpBu2Ia2rtfSakXVHce957p0w2Ufc126Mj8jbB+cMPxRuekjZCE9WFOW2bFn6wjz9fZuHWFf18nz92Z/emy/3vo6gq+T113CNuv4/YzXyVdZxt11P5q9vF6ursH9L/79NOUBim1Jnr3IK30EfCvkj6gbzCYsYBu/rNMvmDT7dEOqJ+YLWvFLnxGhuqNVpq0wmF0ZviWLfckX5DeYFTqUBamWsalvq3W6Gy4TEjcvbOAH80s2Wduhv49YtWR1/8RIAqo3yBPWsI1/N62z68P8GqGj7JNArSvFRpku63b9eaPKDRY/DMzXOn1fx2M/jC3WibZFX+vVdTRh1Ge0UHfevE4pd/Vx33b3s7befB3xvG80v11HfV0hrdf21flDX4bmC8UPRFtB+KXcXzCtx6psoUxc8EtDsDW0/hype4ClC3bXAaO+5ue+pt4h22vY1Nf5kkK+XbUNedAnNLpMoJpjky80viYkzjc08jf2BYofegkLflktEi6X6jPexreEtztCnrCGPembIU3kOroh1RM3NzzwS58RobrQai4HthgyfEtGfbs+8rz0ILSQsYbWz0u22Gadu+sj/NqX1xE79mwdoa4z9udYml/ZsWm9sT9fb2m+MF5HyOvYg3xlvT1Zx/UYe7LO3t+PkO9H3GJ9ne3vJ9qWFqoIX+1CmW7J0h/Yhlf6iOSvovGbFQy6gBaSP+BFP1DWCd37QvEXoGldX79avm21N7ziC+pbxWjiCEM/TeQ6ppsLyo/6tm+Hpk/oNOQKtIz6NLtw+OSRL0YSUH2IRSOQF17DHq3jyW4yYMyUr7xnmJV5FM2mYE8zex+TxBbD+eKUFh3JYB0c26xH0vxa8LxnBciHnFYM1tPBGsupR6kw07WXWX8/ROJIVamoPeVehgH0nFE9zzCOAqisbI68jjgH0PMIuWctgP6aGXfX/Rg22A2s19vr2tL+LpD0HrOOVrde1eR4P8tziub7NJNFdhgzTTqjvG8LvU5YsRov5Uurt6x77nXLGBsde6B6dvGysq5dvbax7LMYmOsaQHDZvw086xN6bRiUhKXZhSOZ1Ru212QJQ5qjonvlsWjRWzHGVit6zeA1FIB9cPvR9Blhj/EDWJUtPkIOrPt5vXV41xf/fuo6uuIYcsfr3V3rCHmd8Xp/t+vIz+u0621ax/0vnfsRWn++jqQ+EhbUVTj8WV0M35JRH5H8VcwmLmCv1kkF+v0NyU+cX9jIn/WZZNX/vAj1Sw0Lq2j6wBfUNzNG2MZfW+fuuo7AvuErcs4bkOvB2j/52t8ZYxnOUn2+GlH6FjCb0GGTL+xJ3xo2rZP8XR/52t/lf5ahViJ0euzHSmaUd1x4wGA+3y6hWx+GN+Q/APQXeOyHscU60bboa726jiaM+owW6tlv1xHP+0bzl9dZ63Ne9vf9ftq+SAbr5fLS/HI/MtL83FeguhB+KfcX1Hquqi2UiQv+0gVLfYUX+wLw0/3NkKetYRt/sI7KQrkdMLRFw5t8MZJtMOzTSkHlDTK4Ur6hkZ/7mrog34m8hg19uh35ub1h9I3qYviW5L4hFo1AWZBqjqGvQuLZ/i3wYl+gvLDQSwi/X6WwJf3+LPaFFqSbzwh9gv1FVKcGO3J1DW3ffB1hu3W+mPcjdvyfWUeYrzfuqxj743XWMF5HyOvUjxhHGK/zpXY/PXwd79yA9YVmF+xX3Zs/sEu+CqoPwT7ryBMy5xvaG79wAHINedoIG3zZ8nN7w5Zs2mci9Q0xm7CAxu8nxAW22cdtfK5jkpAfyO1rCL+b3UwnW9LonuFbwtsOyCfyhDXsSd8auE53Q+0dO9Nv64PvIzSacUrZ1zPMyjiqZlOwp5nxGUAkiS2G88UpLTqSwTrL9yP2lKT5teB5zwR0sBBpqQzW4/1E+PVSD1NpQ0qJtJ63YswBJI5UlYrak+9nHkDPGdXzDGMOoOec9cjrSOUAes6onmcY1wJQ796gn9mvmTTTWl9lvp9II0uanh/yR0czZ2843UMUqOacMChtjQ1zG9uEa91j0ky619IxxpHODLj2Y9wVzIu6an1Qrjs75trTpIcsdLq3l4A+i6XVGk59zrrnVmOcaUtU93Gs/Uya40jbGPusUL0GMNLrvOtjz/tdU/0T0gG1hjyroq6z6SN2Yezn+9F668jdFXfX/Qjbr+ddm9ern5GIW6yv097PaL6wvo6wr/dT4f6+rvPFvJ9uvW6hzq22JXn2jOFbstZHJH+I2YQOm3xhtU+G8eAj5ZmvF7baZ0So7ihKbcZp1pzhL/QRyR9iNmEBe9K3hk3r0O9vWBMS0x/UO8aXEPxB4Mh/H7ELvl0Pyw1XQd2Skd9gVljApr7FCwQ2+cImX2Bfv2DSoNiAXR+NrxESNMTeAAbV+pzzhs792pDfMHu+jtjXyevuyzp31/34Opow6jNaqGe/XUecfefN66gvF+Z9o/nkoMX7Kb6XC9J8QtMsZblMiEq33mh+9ufXU8Huk2M7fV6IdYLnSA5JesB8YcGrvklCvqA+p9q3gG38tI6kkG9XbUPe5FsQJVnAbEIH+tbA/RMGV8w3PvJz39APlHVC98jTBig2lsl6iVf6CPhW4G2PMJuwgG38xXWSwT7dkOqJy/4t+LmvqY/B5SIH+ln5ck194AvyG8wKc/AzwrIwS8vwPvyFk2eAHXuyTkVex3lP1ql9+7ZOxXwdYZt15ter6+SP2NYwXkdo13M9xnidL7X7EfL97Ns6297PhoVmfr9asS1Z/QMrTr7Q6DxhhKE/WJF/M6i+wpv6ygszOUJuX8NCn8rCVvtnyaiPSP4qNvnCNuuUC/Z3FPU1P/c1daHTkAmzbiss7Q95ky9GElC9QZ6whk19e7JOQT9B2pg3nnTPeQManz9rNFLX3jhji8IsdpzSoiOZzXfGZxqujTpmGvA+JolTFA1AB2uUJWgdGTEfB2ssh1d0RZkuNOsNAuSDjc4tVKtc7mUYQGVlFfOeNgDn8f30UJfm9wFUVlYx7xkHRmfpMfL9iHMAlZXtFTg5VjDyrK4o7e8C9b5W2ZrBGGtdx5oyzbl5to9DzST7LTtqn2OJF5DttdYFry9T26C6s+651y1jzK+ZumOgaG+WWmb2zesKjJ4POK6x6GdmKi30usVS9yJHsrEPYYPr/pXbQa+6qktvZozGPF0rel0i3g6OVCf2le2R+HF+jbAFnpNzoM2foHvymcQc26/jXUvrCHkdzRhjvM7d9bqEdr1N97P2+tzP64zXW5rfw/vW1/k/ez/terk6QusvryOpj4SFvlv+rC6Gbwk/oAzIJ/KENWzjb7vOWh993bAaB9y8sA191A79eRHyMmlW5U2+GMka8oQ1bOrbk3XW0KzTLyhtzBdWdd2/0ObrSxH6czZka/dZqudV28uoPsSiEUjrrOLuXGetb+j3BdPcAEF+3j/jbp93fexrf2f+NcIANxzrhi4+OS6IBeEBjT9n3t+sHoZujDzqK22LvtbDOnndvVtHfXm9ke88mu+cX5cmjPqMFurZb9cRz/tG89t11JcL877R/HadhftRW5QLNF/QNEtZLhOi0q03mp/92fVKQ+K8/pLf30fDgeIvIE8bYZMvLPSpLPC2wRZDhm/JNn2C6g3yhBmSQWpWbjnf0KpvkpAvqM+p9i1gg6/LqS8vSw6fPPLFSAKqD7FoBPLCI9C3hnzB2QT5qg84v7BhX6D4C8jTgnJ3sS1R2yqnPqHRecIIm3zBfH5G6H2akbnFFuvZLPuLcWGdXF1D6+d1nPdknbvrfmpfXkfs2LN1hLpO+YiF9WVsWqeut45N6+zb/Qjteq7H2LROvZ/1dYo9Xqii8/tV898PWq7hFV9Q38woSAZpuIJzvmCub/QF9TmR17CNv7KObkd+bm84+sgjX5z8IfKEEYZ+XzA9278F3tRXXphJQn4gtw9QusPP7Q1bsrf71+g8YQ2bfGGbdYbvr8H5hY383LfmC5AL2PVxfEZoDdtfL5KGq79368z9bdfZ+jOSNE8+oWmWstxP6NYbzc9+mS6k9ca+RdaGVqohs6ObNkOeVVHX+XJ+8G6FYWO6A172runqO26aLrv9uum6O26ZDrA3zgMOPXm6x+6DzLeG9PaLCXOe+UKnIRNm3VbQ5fJqhQf+R278/HTLnbdNh9j9nnzQkdPxBx3htxNQ3xCLRgD+2gKbfKK74dkE6ejLuue8AY3v0L+8sAxth96fcne+nSGngupD5IkjbPKFbfy9XidN5DqmZ/vXcfjaP9XLfsY+k1nX7E5bUi4X0GpEnbiObfx9XGfXuc/7HdyqpemFureI1tcdVM5qDeO+vM7e3E+P9r7W4F3L67nv95XX7bE039G+vtF8IV9lBPf39X6E7db5u7sf9eV1uvVyOShfLf9BzLO/cNu102uu+cj0/hsumD5808X2ALwZ7Q3ud+iJ0+OPuPf0uCPOmp5yxH29GNdZhC6w1LfJFxq/nfCB6y+Y3n3D+dO7rz1v+uANF0a14uDdB04Pvce9pkcdefr0nGMfMt330BNser5w4rJBJgn5jqJye6rPeBvfEt7OCHnCGrbxt11nrY9+f8OakJj+oJ59W6c+OHqObrTVWXOGbwkvF5DfYFboUBakWsamvj1ZZw2r68gw5gtPuuP5A3qBrd1nqW75ufYZIbOyniXsxATn1q9c7FV/X9epDft6P855HXHbt9066lteb0/WaeeLR32hhc4v9yND67gqyxdovjDzVYhGrp+mDeZLg+r1ZFRu/WWs22ndfJ8Dvvi2a6afu/g109k3fNb09jjygEOnZx71wOkbjn349IjDTvPl1pAvu4auT1LgPlvhvFsun/7sig9Ob7jmY9Olt14X7nZ48GH3nP7l6c+dHnrYKXt8PzPQt4bmDaYJiTe8HcoLW+wLlL7QPfK0Acpq4ef2hi3R7Qx9CyL5Q8wmLGAbf3GdZJCkB7xpn2f7K9+hB0XTzvoCb+NbwtsJyG8wK3QoC1ItYw/W4WeES/2pL0GVyuO+Odyfzxc2rTP25+uN++YY9+V16kcMa1j32/tag3d98e+nrqMrjiF3vN6erbOM9vWtrVPspQU7P6/2l1d/cPr/Xfza6da7bo/K3uFJR9xnetG9vpr/fLqn9+PoC6b5N4PqlS++9drp1y558/TqKz9iet/w3Sc9fvqnpz9rfvkRFvxyd5ZsenBs6iOSv4pt/GbhjGSQ+jtJnG94U19TF+Q7kVcw2peG4Vuy2Jd8QX6DPHEN2/h7vE4/IW54r/Z54HMdkwPkywxmV7bEPiP87bvuzs+QZo1pvWYdIdoAts18FdDotDSfSJqzSn8Yab3WX0Zr6wKVs1rD2M/r7MuDbu/Wmd/33XU/Ql5HVxxj03XK9NVGa+jeQX7t0rdMv3XZO0LfPfjaYx46/dSpz5mO3n1ouR/dnoDb0PuXbnvIg77/cfGbp9++9J2W3X146tH3m37u3i+YDj7gwKgsIN/gGoZ9qUA/XlipD3jB1/tNbavvj97VaUvq7JYJ+Fbg5UaYTVjAJl/YZp21623yif4F1Qk+Xdr2qezfAsO3DZr3xarFNxEY3l6ZQLWMbfy1de6u6xh2fYJfI3T4ur4B9QrFLtjmuvX+8jrten9X6wht33gdVUcY+3kd56X5PcZ9eZ36jjiCd22zznbYvM6+3I/g6+R1F7G+0OyC/Wr4A/u/L3/P9EuXvCEqdy+OPfCw6f8+7fnT0466nxd4A3YH+W+K/DpR3/Bg+OANn5t+5oJXTRfecpXpux/POvaB08/d51tc5MsPIFt+bh+yJRt9S/L2yCfyhDU0fj8hLrBhn7fqK75JQn6H4i8gL1flnLfxLeHtBuQTecIa7q4++t0NlQmJ6Q/q2V99ewUgV6Bl1NevUhh9XX2PfvtEZnxkEEliC2Mc2663uI5iaR0hSqWidVTp1vPrhQdWKsx07WXWrRdFDIlT1t8PuYavmgPoOaN6nmEcBeCcK3P0vepWAD1nVM8zjGsB5N4NmLX0haU175ref/3nvmgPQeCq22+cfuq8l0//9oI/j6vXe5hrUKc7/q8Xv3H6B5/8vS/aQxB441XnTn/whfe68IsvothILFzrnnsdvOE1ijFWHYpn0uHW7sTx57B2JT24B8festDrhBVLXr/qkG1o63oNrVZUbYcl5FIdaz9Dl31MftHLXAMY6Y6ZLvi8ByYLnDAoCb21tNqId32yfEZI2TDGNeTuijx//TMIYbyOsP166+sIvk5et8eerPOlcz/qW15vT9YZzRf2ZJ21+2nKAxTbkjx7xvAtyX34lojv+uSvT1fcfoOpLz4eefhp0y/d54XTYbsPbm+wJoGkk//Tn/3T6Y1Xn4vC3wle9tC/Pz3gHieWuyFb0u/jki/IbzArdCgLUi1jX9eh391w+4qcmxc28IP1T4ZF26E//6xa8neyf8KmPvjDCwQ2+cKe9M2gicbNBqR6sP7pVX7d346xDGd1+5+YKH0LSBMO+PH7vuBnFu4rGBe2pLyFwaM+t0d1Z18HL7Su1/blyyyvo77lddo+52V/8+tbmt+uo76ukNbbbp24HxmaL0RfgeYLWsdSlnUfg/VYlS2UiQt+aQi2htafI3UP0F2wXz8zX1jwhr7fu/zs6W3Xfcr0Oo464B7TU4667/Q1xzx4eswRZ0yH7j5o+tyte/4Z2SW3XTu987rP2DoPmg7e5V+Dy7e7dLe33HX79OOf+sPpHdd+2tSe4xFHnDY9/7iHTY898szp1EOOma6zDwCuv+OWcJdx5W03TM857sGWDe5sD/Z57AfKOqF75GkDlNUiWdtH8ja+JbztEfKENWzyhWFfugCvpxtSPXFzwwO/9BkRqjv0oBC4HNhiyPAtWexLviC/waywgE198IcXCGzyie6GZxNc22eEv42MWF3P0F5XWeXWX0brz9cRtllnfr26Tv6IYQ3jdYR2PddjjNep8+s66xivI+R11DnG+jry93Wd7e9nw0IV4ferlemWrP6BtXjux39puvr2myxbxgtPeOz0z+71nPbPieHmO2+b3n39edNbr/vk9KarPzFdaw+XbfHww0+dfuW+3z0dsvsAU92d8ULtnf7Up18+vfXazQ/sjGcf+6Dp6cfcf3ryUfeZjj7wHlGt+OPLz5n+8/mvC7WMV37VP5pOsYfn/K6CLVnaZyL5q5hNXMDQTxO5Tn9B+VEvfqr3PPOFTkOuQJdTn2YXDp888sVIAqo3yBPWsKlvT9Yp6CdIG8/2seO8Aau+yQHULV96kS1Z8gn4VuDtdDjgJ+77LT+jGX5f9hdavnHdqBboF4q2gpmfJsZ6kGXaYL40aHbjaT3+xRvrLSLa+8vUCtixtgyg7qV19CDYu3WE+XpLGK/zpXY/A2xqaBaq159xvB/09dde89Hp1Vevf8vBT9zzWdOP3vPplmEdr2mVA3ftns485Ljp6Ufdf/pOe1gef9Dh0wduuHC67a472LeGS2+7bvrUzZdOzz32Ic1dEV3hZ89/1fSGqz/uYgv88D2fPP3n+3zr9PwTHj7d/9CTpkMPOCicFg857F7TV9kDedO3XeCn0Tz+yLPSDQLpBknYn3zjA+YfsHkf3l/8M5LQ5rf/lNVpS7RMnZVYdRTWsI2vhdewqU/1bdZZhF0gv+DZBaXz/i2w/FmfVpFvItBfrcGiEagLj6H6NuusYdN1hG39ps8X3o1NQV2bg02k5iFtBxvA7gFeB6dwi2DK+ciDtY5GP2skDUgzR6T1WCNFHtUm3Coa8Lyukw/3PavsAczz2us1dbjT9ngAo9yjnQP0NQUwz2uv19ThTt/jXepwKPfoez2rR/Z8jgT3PoU0CCi6Z5qhLfF6y3w/SL40+D322dwannLkfafvPekJvI6/P/mBBXwdD2g8bPAwfNkD8TW1k3yBDXjrNZ+a/tOFr4n1rMC14ASb/l9feOf0l1d+CMWNuNfBR03/60E/MP3Yqc+Yjj4oPgPEUlwzWDr4Ccfce/oHpzyF/hLefe1nSz+nMvd7rjXTYByNn1h90KkPRu6j9mLjFw03656Tj5zMVHloH1yLkWYfZ+f72ol9oN3UpTnXNUscQufw8rzO4FWqxlE8hLQNXAcidM/wh31YI2kkLmx0Xow1nx5ozLoH7wVFvWc2hRbjLD5yD/cXAt4mf5Zjb6ZpNz4D5FMxMY/Qc5/Vwu7DygyTbuH1dSwwkEtS2PucR+uI3Ye2vCYYyDjEWievh8NP1Dk5fKSVvc95fj+V3eekYKSR0BfDh7JIzA6e8NkcfZ47qc+5rKNI2n1LmTlHgblb0UdlYzd/7hsxF9ATGVvk+YyGw6cW9z7ZksaPgw3OjMjPueFz7FzCPzj5qd7bH906+Tjl4KOnl97/B6ZvP+Exsco6Xnn5B+xh9w5bBworVH7XtZ+ZfvXit7CyCU87+n7Tyx7y9/lZnlYRytpgC3frtb7v5CfwR64t4dwbvzDdeOctnI9ZZBswn7pwHMVHHpyP7G3hc/XUV67a+aUujjneZ2Wo0ufaKTHT0OrqfF8zGGUxSHU/CWerhud9Pou6Z/TJH/XBJ0eUvu4ofmI7utUwmT61GHVxzG36oBXJZyiXzwChzqQyR2efA3Jf9Rkv9kVQWhUegjXvwliYfuglXxy+fUboHxVUxtPSmRmZKc7wM2P0AjOyz6vMsiPpngG/DybJ1zrOBHVl952Bdh3ME6PPmRk122YMzO+HsxPT1EndMyCNxOti1PdkHZ+Hqtc5O7F7Phr7WQODcibssgjWOq7YXxX8YAuA6xWBsEE1aUL1yj4XQ9Jmql7ZEjBs+qF7tuNa+4v9opX/7IIHGn7cGLs5F1M7phfa5qh+kD1U/uVpz5n+41kv4H+q2YRfufjN9lA+HwtyHQz4p9Of/swr+AdxE1586jOnn7/ft09HHHCIL8BFgkvYEDmoJFY/7MCDpycedW9WR7jT/hL40PWf5xIYCoNwlLoCkk6t5XwUMz/WQEJPa+paicMnkzpfrD5olxE2lDwC6GsKIGlfM2mjwkhZH9wTTBupg/Xa5Ze96HzniNKHPDiHanGYoJ5x9FGbKnWydHD4TFI9jFJvOQIDOdD7igDXZuJB3TPSpq574lk0Xo/Xk6YMxpH6Gjaf30foT0d/Xvqfz549JbGPWRDYomcCOlIhdCkP1vO/JCJYDq/ohJlOvSRwDiBxpKqMepr7mQUgzpnQ94BzAD3nTKg9nmEcBdBzxqhnLQBdcwF7Yqa3j2dzvRXz/UQamY9Xbfh2ifseim8ZSHN8Mapt+TnHPGj69ft/71YPw3933qumG+64NdQ0/cz5f2mfhVW9hF+833dM33/PJ4QK+E0sorFNQD/48Hu6XsAV9mD2ee1rxEgd+yydGXDtx6yLc0Nzo121faBcd3bMtadJD1nodG+vwXqXVms49TnrnluNcaYtUd3HBeaZ6xhH2sbYZ4XqNYCRBnV6jZlKCwPdlxKWZheOZFYfsO+lK+oS0tXtNRBfI4ynI56NfoZuGWiesEXbwQYwuzBE3VUJt4pGwfNg6nr4yczDSwxAmjkirccaKfKoNuFW0Rg9z1wPdbQ9HsA8r71eU4c7bY8HMM/7XmUjzwOY57XXa+pwp+/xLu9ohAX3LgUIUN3Z1pAOk9pU68e1gjFmn29XMcuh2aeYNv4PT3x2pX7OBkuTUc4+ZhmTqv/Aw06e/t97f7v/AVoBvq3iVz//Ziwx/cUVH5red519hrgB//rM501POfq+cS1ermU0Ie3r4vAQh++2zyZXcM0dN0evv7aGzS8aR+cD3ucHDNZ75tzQa31gX7QEyHMaztI9Z58k7SENCVCTMSRmMTTSyHMfo/M8/J4Z9EPjaPzEXJZNlWkO2EVXDw03tKLRMbfNeZMpTHvRNWXUs4+z8/1aiX2g3dSlOTc0UtX78PK8rsgeDuUMaRu4TtKJ7TNC2DbwFFvE47h+pliZR+i5bxRc+ywPrn10Cy9dx0/4mIxySQp7HzT6nKVxivM6XgdHYqx1vA9112L3cTJjffF+Iso6iqR5IGUW0DqqxXquLLr5frrLzBNDJJzPhOEqRbceMtdi5QamNkTZHR/B0r5k6HT9xpemjyz5OlhOuj/kgSO/7s75r1TKOMweDN6pa9oR86l5E153lgZlf5qecNSZ00+c+iwUVvFHl75v+vANF0+/fNGborKMbz/x0dO3nPBI5uWaVKHj2mQkxW8ZI/xDN/xc0Rtux9cI0RvzyN2RayM/DjPpx9XnHHOpR330IT1n3QsYKtNnUpkI9klG8h2xeu1WXwylLg6DyxTfV8FYmH5oMY/ki0e+Dno177uwQGH5S32dr5BPDUbKQQFEzj4AeTDh7GszYYlrQ/YMku8nUTgS7/NZNaTtsATXpC59ieGLR37p8wC87y57EPoD0Z+SDWN09qeoGL4zM2/jJKTuZ8bozIyMeWL0VY4zdMuA1mnZDvqV46TumQiNgtfrOpnjDJ3YAli8H1fsVzerlroT4VbRKHgeXNbzmp/S8IMtgKqjJ62n0Tuix1J3ahRQ2JDNfgIG5r5W9eNaqT5j+T4h+Yrq81Be/Hnom9mXcKcd3msiuGiuHXXKtq8w78L1d5/4uOnrj38Y1Cp+7JP/mz+SbQ0PxK9MOvO5WJ6hawjNPWSGaSO1OPzbN3zLB/5XbNk/0yUfBdce5BE2OLvrGhdhPTHnhqbsfAxutLpwBIaSB6fwuRYB6RnTDI1UdbLugScTaH/N1aemDN31NeyruCZ3ETUbmJOlM+e+wron+a4J1kNn9mFeLz5yRAjmkBiShodUumeaoZGq3rDdo8uq6SVmOTSO3s889D0A5fEZYUI8KfHsdCrPUbKXwyu6okwXmvUGAfLBRucWqmVO91MC6Dlnwqg3B+A8vh+h9vpMH+cBVFZWMe8ZB0Zn6TFGvTmAysr2CpxcV/Bsrv1dSNfawNGHsdZ1rCnTNveoAw7lrCWcf8uVNlo3F+esObuJpNQdY8bv+ztm8I3tGbfcuf7rn+yP4/T/Pev5oRy6ikBtQ3t13WOvnc+7Ga93GfiGfPTlWdSxB6Fa5tsoNPuSDlZg9Hwfmam0ELovB4bdNqi+L6zA6HliS1y1denNjNGYp2tFr0vE28GR6kC8LVt/gZn2daHVfi8VzSwbGp05kkU/BYas8w4AVXulYZ6Des92Q82XOJDyCck8mH6txVkjaSBrRlqvHZ1n/TACntc5YinPW8/ZA8jao/YCdUbrqeqOQ3nbk9k72hrYA8jao/YCrqvT93iXQ7l7Cq/WXs/kZQbIXvS3dQpQYaSqN5zWYmI6vOIzDy7+gNk+8iOKj5xm1RbQR+n77BZwAX+gde3HmmRfvHAYxWfSMwY78c+t//TUZ6Ow1/j2kx413f/wE5n7PbTcXLIJv2cG54bGYXz+zVdg1iKOPfDwmO8LcL7Vi/Zi6I7hjuqK5CP3OhdPNSMfol7Z59KomnbSPdPHkOuhabpWNBpSrHwU2cfB+pyB7GNSw/ClfQiNOUkjcVH8JsKb5QxexIMi6cbHGczeYGmeiRsfIml6HoDyYaz5Qw974DlADcYY/oyzL276+Bkhnoz+VOQRWoxT7E9PL9EmlwQDebyOmNXCmr+0jni+jnyc8Dk5+pBWdh+6svuZccI3WepIK+MQ7/P92FH9FOHTw4E0KvIdUevWc9+DteIDxkxcOdADih5vQBJd3Vz15bqYCThCdR2sBee8P7bxxZ1/z4OOmg5Z+d65y2+7brry9uvZa5MxOpd7DwaJB76j9uGfR/Hj1fYG+HVO/+jUp7fXwDUpnTHqWvD9dYt1RJ9qVsD3Cq7hrHsc6/3NOnGUdTz82uUqlbfxxSgjj6CMkSZTZ7lRjLWD5YtVJ2OIugmvssSR0yPkY5wxe0KP+uCTI4rfHcVPbEfpjpolzFWfcfa7Pgb8YAZzIw4KEOqhWfK6rwUrMc/OFxefxVpXhME2hKvKrAXbwLqYR+fnPh7iONhT887F5MrJB8fXCO1IDMQDkwNYOjOAJypTss8XM4s+S3GGnxmjMzMy5onRVznO0C0DWqdlO+hXjpO6Z8ISpsH7ej8oeJ2zeaDT+7yZVUvdiXCr6LIOD0jPVPNTGn6wBcD1mrBBDIhRVD2YVvI9rfXKlkjTl66s+250H7F2ZFHHFOWheUTdGN98voa3XftpzsPgzJRJ0S47vzKRfMRPn/k8o9ywHV58+ldPRx54aKyle4iVsl7ydRTf40PXXzhdfdvy/6LFb8o4/R7HlX7fv5QzsKTnllFjGHL2KZf7CGiywoawSg1Q3gWo0T0b8RpMVNe9JA3TxuzrtVOToh59/d4wfJW2liN7dlhStYV0rOLalNcTw5WmtDH70hiyLhyBoeTBowj42gOmGRqp6mTdE08m0P6aq09NGbrra9hXSfUu6NEsedE92wFu/tdoZYdKDfgkZRJUn6oMlsMruqJMl9GsZxFP6qqNfLDRuYVqmbt7YgA950wY9eYAnMf3I9Te+b3kACorq5j3jAOjs/Qi6pQBOiO9fTyb60VmMvJ1JG3N/aE5jeakpCE7fuiGB+Gbr/5EZJonhGqL60i997/Hify2hz0BPhv8hhMeztyXqvdUNBLuT+gBY6SOPoxvvvqTqCzi0UefHrNidrwN6mo+jrQnSWf2NxKSKHX+jIVer6PpNtGvWjiSsa/XEDrtX/alMwMjTY6LVjfpvM/sq6F6DWCB9cI29YGZSguh+/ICtITa94UVGD1PbImrti7dcLPPS1yj0Wnv42uEeCryxMPRWYEhwJRPUeTB1LXmpzT8YAug6uhJ63Gkjzx6qNsQPC8zC0t53nrOHkDWHrUXqDNaT1V3HMrbnvZw37PKHkDWHrUXcF2dvse7AhJuci+VF400axuKDrOtO+vtRg3CoXrP2Scr5Kdaym2odejwVHeOe/CE+jH4QdIreM/15/s3tWMeCpgU68wYYI5Q3QPUaIvnHo9fbbQ9vuHEh/s/yxj8cv4aakgHF3/AXKPqN125/vsNH3vUGezDhIb9Kq7FnY+cGgtF7iG9BWOQJrkuHL6d4WMYMM3QSCPPfSU6H9cqOT3pAcvnsig6y6cGR598NDS+NNzQikbH3Dbn4ilM+1B1zxhwQrOcdM/0MeR6aJquFY2GFCsfRfZxsD5nNGWfOjPXGNTF8lHwYvhdmNd9H6GFPspoGGY8TUOXj2QKs1qYZTg1Kew+dGX3wawW1rSSJPY+aPQ5S7NGHRlKFEw8J3kfDnam+YyiMcL3rCCt5xZGdpLr/KjxdJdZmi/WUf02iheZ1zMHKKNm6/S9fulg+amv8MzXwUI94DV+d2Rv1KfawjrlWuGXe4u68zQ9/ogz/RfkLgC/ZulPLnu/tXs/F4l1HMG+uEv5UQJKGj7omUc/YPVrlD2ee9yDY538WmyMe8NY2BLniOJ3h3lvu+pT0+duvto6lvHsEx4U6/jRXc0oacvHPqTnXmeBo9eCmSYmgqPP1wyWJjviElXH2PjQ6EF4lYzRa/KjLuax5OtQX6jsYVLkhcMnj3xx9oMV8ksNpNxFZfQx7erBvnYwz9AzH0PU/SQKo6a6JeAa0nZYgjVn9eyLB31+2gEPTaiTWa1c/MSo95z6FPLjJ8vEw5GM0QvMyP4kdWaRDB1n6JYBn9ezHfSd6fgZumXCEteZ7aDvTMfPGtIYAM5DLZi6qLqOeqhTuEUwHaznKkY/ayQNlNfDQ5yUkee5p40CiaYhirowhqjTUh2adq3PuPgs1HoKah2dVyJ7sz4skTQv4XUM4KI5N+qUrvEzQb/6mAegsojfu/Ts6Xb7A+DzUwB9TQEk3c8FHXLAQRuvLeAX6eJ7B32d9rX0r1HaWUG3q3n8/iXvxeRFPOCwk6Z7Hny09cYadkBAz5jXCE0576MBHb60cwSGrPsAxAZfe8AwkTLRPYS2odHh+75Un5qy9RuWr6P4HigUX9oO1Yc883VPTIpGm9eT5txgUuies08eR7Gzzkwz6Z7p2z26jLrfM15PYfqhxdnPnHxLo+4BeD10z5wb2idXnRmefF902nXe177Uf2EVn4yW4InJ5vg9VpIDeJdzhSqVx31zjP28Tv39Wmv4UlnHu5bWEfI6mjHG+jqGrS5oDc0btL6ewvDT+wF+Fx++EX3Yl3XhQFknpEVyZ7MW2RLdjupCo5PxvusumH79kreFGuNH7/W06VFHnh5qD4Dr9DeS8N7rzp9+4+K3h1rG845/6PSCE7/K1skL7gUX6ckVt90w/V+f/HPLl/G1Jzxk+paTHxEqkJfdF2yav+11Fvoec/QZnmy1jjVwX4Q6waeHb+9g+EtSfw6HDH/YF6sWH6s7hrc3KyxgU1+5MNUcm3xhX68jdH0uawH7Mt6/jrfw9ReC1xewaATgx+3tOu95L71rvb+9EZ85xnbXzeuM19vzdcbY83Xa9XJ1DW1fXkfs2Pt1OsRCvVvmWxLvJ80qM17xiSg842P/Zbrpjtu8toMd/B/G65/8E9Ox+ftFZ++4C9jGvzvWEfb1evStAX9QS2Nl/b0sX3qRrc+1VqmasKRcboQ6cR3b+H8X62zwZSPh9xHywA4k5o6QWS3sPqzMMOmGX7n3/YRvZTIT+mL3oSu774zDT/iYBCuSrm+v74dVEN2oVy4RPj0cSKmDvcCcXVrHVfipFuuhwlqZL6AHFD3Fz3MSqy/74uJb0vTFIW8HO/gSAt9t4z2TjHdfcbwfU4/64CuKHwdrwRZ0VbOjrNb5pd7zSh8DfjAje6oD9JlU5ugs39eq9RmXPkf1IyitaqxLoqcwa8E2sC7mseTrkB+q9IXuGZ5FYdXFMbfxgxnJZygPn17Umt8+wYyaKVm6MkYvMCNjnphFMnScoVsGfF7PdtB3jpQsnZmwxLXmi2mSoeMM3TJQ7oOHtB1sALsHeB2cwi2CKecjD9Y6Gv2skTTAfhUY0hiSxqB6MFvUZ0XpGXNuaPZJO+9gB19K8PfIeH/l+ykoaXe9Lg7fWSF/HHSl7bDE62L6RnRVhwxfWn3QlPBCB0sTWZMjMGTdByA2+No1pEFAvlz1dU+hLQH7PlTf96TWhyxfR/E90JB9NBSmP+CZr3tiUjTavJ4054amrLr+r1ECT8eqiCIi4ROViUd6wnoAiZUWDHosytO5BOAsNUbfC84BZK9H2+M8uh8FRmfpFr0HHgUg3gKLrWY0Xl3bs07b20v1GXvDrL6DHXwpQe+R/u7q76cY9f4qLdXrwjxDx99rtTtpXiPXa2DM2gtJE1ty3MPcF9RX0zWwJfUp3ZqZtK+412VHmv3bU8bYakWjeY0+gIFmmnTmwT7X3z6h6DQGz3EYW4M0R/rIU08EAF/wunoqS3k+6vEQci33Aq5zrr4agmv1VJbyfNRTA2hrtRdwXZ3cU7sCbpbg3iEAaaRRd7Y1pGHa2NYT03YNVerQmVEO3z/S2sEOvnTg75d4H/X3T72f9uy9eE82xqh6z9HnLSx2fdJwnRWqMzrPg4t70OfVMER9wOFzbU9Yau8pOOy2Hpqma0WjIUd5E3zF1cdRPET4btLnKZ2Z6wzqFsUPHWbVOeCFP4w8F4i6r4U0Me34jBDPxfqQjMSYGdkO1it7H5hVMjMy0khSP4+ke8bhJ7PkI62sg52ar9A6BPxIhVKIFWJ+qPBTjae7LjzzKshdV5VLhC+N0XOxcgNlaCPP5NtcpsFcN3TP2Sez4BocNVZSPjvgWexgB19K0HtzYb4bh27en9UXKt6fi+45PGrLF/1YJ/c1gZrqoOwRwexjQtmzr80szqiLw6+Xku8oDI++C3ANO+gFF3/A6oMe9cmHBxH1rsvIRvqJURfDlw5foToDnvyuD6F7UJ/PpeMcPnj2fYRIXItRx9OUZukbMSBG4nXOTkwzTrFFzxEoeD2zH+jwfnZ6hdoDgBbcLzNDu6NanDU6jYLnmu9ZqDIWtsRzh5igkRqkAWkMUafVs5nDOpg2NAu1rkBHMI/spdjBDr6UgHdJf9/smB44juJ7oJB9anHyLak6Llj9pNnnmo09Y5CmTDqzUOoefk06oSMFS2eGibSvi8OEZikG6sxsH9SzLz3s80AjfBiuO+bc0KM++kbwio8UeWJ6oSmTTuxrdppsccHzftMei5bxKemMcRuM+/I63X/P7eBd/Tp1fl1nO4z79vV+hHYd1+tYuk7B+gXDtwa9AYl6H4XpD+pb9wXg83ohLeA+68O/MN2AH0k2wKG7D56+76THh9oS+fL7gj1c5yZ7DfdY+Ykz43V0gbum373kPdPNd4z3AfiHpz3V2rB/3q/3N82v738956v49L+67KPThTfjV0aN8cJ7PWY6+sBDy7whYsEb77xtOuyAg7y2N8g3uC/Ycp1XfP6D02W3XBdqjtc/5cenYw66h+3T0n4Gw7e3x7xP+yyfyxLD29twv3VBqmV8WaxTJ2JfxvsXXPZvwReX66guIMP1AtUYQ+1LfZt8YeDv+tzzfivdSQtf119QvUJtz9VlLM/vsb6OZu/r/fT+vq2zdj9NOSh3FbZkWO859QmNzhNG2OQLnf+MDy9/HyF+aPRrH/ZPQgHpAryeaf5JUD0xX9CKn/uaukN/0IS8P0OGb8moj0j+CM89578t/pb5Qw84eHrrY/+Zi9nCC1jpe9FH/2B69zXnhZrjTx71o9MZ9zjWRTO/XzBe0GCf6/6FNl/vzy3HLPi2DpfjrN43toSXCWj1BmUC1Qw/+L7fnT583cWh5nj9U+P7CDesU7CNv9frpIlcx3RsAGXx035iH7PuGT73WXVdpWrCktXbrhPH2OQLe9K3hk3rbPBly3etfUt6tn8LnPp2I+H0YL4hg3H4Cd/KFEzCF8OHqux9YFZdkpmEL0YTu8Kv3Pt+Mks+0qhFnysbNV8x840iJ7QOPBwx36sWaT3WeLqregFTNlhET7N+8CZfXPqQp7qO7CnPx8hf6kv+GmBHJxRHVWBScz3VE4/8YEcwikjFAa0mcK4NrJZWdXXXUF/4GLPvr1/sxyaUTs0Bp/n9YaZn0acVwB5rSP15Pqd57j6Io7MXXAYXHb6vGYw6R+NYhyTfRPU5kvmaogjGWBi+eOQbr8F77ODc4JzHUVYLn1qMujjmNH3QiRnJR+51INeQes65LHnd14LldfmlLo51ap+j9kXEoNzroXGwFqw+Hiv+sM8VWbkdXRcm06cWoy6OuU0ftCL5DOXhl97wvdcdH8GwEssXoy5OfeW3T4AjJUv3jMS1GHWfz4xa9ZYBzIsk6pydmCYZOs7QiSNQ8HpmP9Dh/ez0CrUHAO2IGVpHB/1ai7NG0mVQgSGNIWkMqgd7OdhGToHuGR3S7JOurJA/DHqYkmpFcyZ5DaUvRGEkhZkyCWrrYqShCeV9CCOvLKQUCai/p2Azh3UwbWjkVKto9zGFDuVRtwFnq30hCy65DPicl5hruyZU70NQPvKNtYzqWqswvXoN53RP2TdV6sb+mkO729ZXoP2aBdeoYUPL4VPb4XUu2LK70efMJPnSRPKdIzBk3QWoaJDqPcNE2tfJusfQloB9D8KXdrfqntkeuunrIg4T1DPm3NCzPt2TfNdMWE+ac0NTJs2S2OFrIvGQhnSNJFg6uPs+whHk1edpG0DL2akY9WJNdSuAnjOq5xnGtcDoPIa83JsD6HkBG2yHNTV9dW3POuZHPkkPGVmrebCQdHdoDj4i8o+OXM95GeN+zepn93oBW7YRK71u1QZpVer+bGBLpDah7uO2DITG2yH0RrBFfR37C0NSrb1APzWtOmcbxr69pigUHeNI832R9XUszK7cvR0U1OExQD7sOed9blhIurcMpRSJ9CrbsOoHKzB63nHce65L+5n0jDGGzntZ6msBRL64fx1v7HPw2qlU7pGjcSRFJ67/a5SlyoDX/amduXWyNw/Ac/VUzmPLHoAYaHsqt86opwbQ1mov4DoftQcQE26W0EcYArW4+LZW1pa0dWd8NON20j3TBsdRfEXvJ3az5EXbobozbmIZtEtfZQICac/ZJ49DdqMzhzeri+nzFXnEAK4hP+pi1DveBnXfBsy1Q9tR6j3DY6yALdHDuXP2ayRdGDWcSUdb6ydGqnoK+aWWcwZeU9I4mnpiznXeBHbx5GTOK4yqdPgK1Rmd54Fy5PRDA40PCu1D0TP2wTX7MIQmh6brWiGfkb2ur6n5tKjjNXdMDwJnrVP37ENXxxzjsk6NRvsEZ+Wz4CoMrSnP10KamPagzjPppk+BNVnyKHV7EOojg/q4BFsY80i6YXc9RUZGWpKwvM+VjWk+g6e7zDwxRNKsBx86RdI4mHpGbueL/WDer4daHJ4DPs7AFnl9r2mmwTbILzzyyTpYsFKE8qUj942O7FnOtdNhxcrFX4f76qvshHWYUM7YTZeyEmTLp8SaYKQxsk/14reMMfdRF47DCjXH2PpQayidmOsXq2xHYa694pfYAM4NZqo5zr4WEvep/fRyZGWZGKrvY9FIbCBFyMfolwkufYlHPlmH+pGtIXpiLjUWpUosH9z5CvkM5kYcFKDgxseY6hi5TtTFqItjnXop+Y7C8Oi7ANewg17Uiz9g9K34ftqBHjS7qsy5wfKX+jpfQV8Br/MdnvtcwNhyn0vHOXwyz8Soi9UH7WeEd5SwIZbCZ4R8jvKx6E9JMJ6cYppxilNgCGbKeciDtQ48MPtcux8MGxwaI+vNenbQTB1+1sCgnAm7LDInZZRUsAcgJrJZAgNgzDQY1w1utAnVZ0wb2rJcV6Aj5aXehw7mmBI5w3R4ENXXtTo2WoN8cplXg1pQnvxZAJHP1jLK13Du7lXaVKkP+jBSkxWw6VSdfKg1qC/3OxljLuuhuVRiUvU3Qn3kFEBfiwA1umejwkhZ1z0l7dK1ZWB/zQNe87kGNPJch7OCmFOYc0Njrupk9QfHfCapHkapE6mv8YXie3AaApBGGvUhIx3VwWFC15D211IYR+/nPvmpD4b3ecDAQZbOzLmbfN4Uc6+HzuyDazHS7OPsfL+WS29JOtpaPzFS1fuw8m48D/FEjGfkIICeM6rnGcZRAJWVzZHXkcoB9DxCu47zKIC+d19Q12jXtGswrddaZWvOGmPR9Fwry6plYBvdspP0trDuPZvQopvbLyVNtsF1vceio9D6LWMc6cyAaz82Q32ZQZ4XHeOQmUpvQte3YVqxkVhIr7INo7oCY9bNK+eZ9BLzbOvrQI+H968FEKx3jL6+x32C6VQauOscyTZ9DOQpgLoDXmk+G9pT5umagiN4ELzOKECd3kse30vuCh2FWl9hG8B97MZTFU9EjUCuqerOKO971eGVUQ+gLkC5R9vrnPPKgGuHco/a6/BK71VXQ7CFPoIo2ghQfcZhUntaND6aKRqEI9UbZlvoYZ9CvgcKDYdHbUepi+kb0VWdF0ep6k1QP9eo2q/lZbdca02ydGaYSPu6ODxqU8o9Ol38AXOd0IM+rg4dx0ZEL9kXKayQX8PnMeiF3gK+9oC5SGgyhgVGGvks1jwEfbxG5UlHkRoeReLkN4xhE9jr4fMifCFn5bPgAqkXadQ75tqUSWf2YeBjEs7QLlkfRvbX+hDJh8A1XaMQLN1z9n1Y7HOBk8U2cm3kR/hanWYamiI0OhsfZ2L5wWwp/QrvbHTJLRqvjfJ9hOUpztMOSDKT8J35JA6ez6/sPpRz9T33El0jqMruG8tHL5iJekBynfN8Rree5pM4ekaE5+Xo8QlIXIM7v9TFbqQ+HVHXAU9+0xdH9kZ9m3wdUbOEue7Bud6T+6HFoBVoviMYk3k6C1rN1w62Iapzlj/ow8h6sL9GcRyokyOU90f2Rn4cWG0VMZdsEVevPPJBqEW45LgRXINnYtTFsU5cqnOjDg3PBsjCPIK38cX0dagvDnlgNOeaHSacGSvo5pNjnpiR+pB7Hcg1pMiZUIp9bjDPxKiLZ77DfY0W8GwoOtzC8MWlL/HIJ+uQ7wFkP1wUK7MvdM8rfYzkM5SHrznyvZeO+2RYiYs/4NTnrfIjUCdH4FCtBGrwox48+1mjmQE9ZVHwOhhPWjHNOMUWC4yEmgekZ/BZZR8OMPxg2ODQGFnXfB00U4efNTBEXgYaCmkMne4YVPpMMUW9Z5/gmmwJ/eCoUad8FvQwJdWK5syqeenWx0BmZ9I9e+ra5SLos3cQgBjofF3DoWsv3JN4zacNreg05w7yPnQoj7othissg30dL9XdCI0c3Ok1qK/MtTPlRfdsSVtP90Q76cS+F4lxqN6zDmjyOOhmneqrYB+TyqTQGILlSxPJd1ZgUD4IIGm2ZzYqjJR13VPSMD3FSPY9GPCazzWgFa3m6sjjQAPrPWd/1sdFqvZFLVRPmnNbv+Hsk6Q9WI4SEG21PmKkgzojzKIZ0v5axLvRC+Cp2EIVf2K6HgXQc0b1PMM4CqCysjnyOlI5gJ4XsMF2RFPprWt7Ntd7znHgQ5Wsu0NzqEov0HF8lLPox0jNtOoGbm6HPWgV+imudY+9rvc6qw9YH+kVnZledXV0XUNeh3eVvrJ/xkyTzixZk71CP7u7SrmdWb1hew1ILIqOsWdA+1z0kDFu0HFR6XXIHzDTFX/IgfL22gC0WfSrDNmGVd9GcI20AzZUzcoyx72PfYy5r4b85QAiL/uzBTNd8Lt7FRa6lzmSka8A0Jd7Gy+y3XgaAnw6ehp5PDETq2PuyRnlfa86VJn3AOoClHvUXsB1rWUGyFmkwEcGxTNItxxrSVtS6on1kYX85iOP5Bfd9HWho6vb4Hl41Hao7qx7ki/dchhVU0a9522A1uglS2eGibSvi8OEZikG6sxsH9SzLz3s80Cj+9Idh0eNZsYKOM+5Bg1nmsHSPQPSa0AL5yRWHYxU9RTyGcrBJfw1lMDR1CsDRWMl1cXho9D6mJM0XNVRZKwgej2Shih6wPJ9sLLrGWefjGGBkUae64zOmwX9+oq9jr3w3NeSD5GYTcGcG3rkW7R9NRrtE+Z5H/AsdA2vg4J9cE076cwYhn4EBU8P5KPI/kofTFLWFPiMsDwq49lI9oPPTfopeLrLzBNDJFqHI3znEkmzE6ln5Lpg1LieH/QHIddz5wrLJcH9+sn0W4u6GHWxG20ffR2h4dFPnI9cG/k6NqxjRc+iz+8l7gEZfUj4UReDxF5s+hzi7ZCW4VSXulbS9Ou12z73obIv3TD66CMPzkf2Br4VPQufq4rtKBx90KvgOkxK+IyY5yaSKCVNSixrCWpJrTNGYgOJB6tVW6K670/SOOSDG1+H/KQiLzozPCwm3XNaZxVYI9bx1sg1jz6TykTLvBeeoXvmNdjCwVXiSLiMfEvANeyAp3rxB5z7eIhD8YwDzeGXbs4Nph+6Z3jyg5vItZEfwblIMfCkqMy5wSNfnH0/IzAmbYMuWcO7GDYUzTxpHPLBGJK/G49GPhwbjhyjnzWSBqQxsq51NNKsHXk+w62iUfA8mLoebImssgdAzmLpgiaYFr9qdkinviHTt6SpR2CllJd6X9PR+wxewRmal3CNodSljVSfcayDJpdVK7wvoPom5LkpfK10TXK6J9qhS9/Ad5f1sieZ6UXkfBTJt6HWoenFNZGQpY3NX0XfB01W2BBW0SUfxBrMZws4esnSheMebCyaXtKkqEdf0Zl9lailegRd5HGggfWes2+q9VnAsAz2MnGW7rn4yMFJI1UeoBYnn2VppKr3HCa0omp/rWRoHKr3zOVy3QOG+0l7MfSAF3wGXJLnXg8NZi2YFHqhj2tTJk0uLUTRPdN0zRKH0Dm8HLm/hhqoJF38OaNRPr+PcBwYndehLvVqvgKorKxi3rMUdXbPHRbKPdgWHxkAntXXs5GZjH2Mtc9Vf6hLh3rrbB+3YadOL7FkTZaxRYvQt2prVR+z3TOT5dcGxkiO15jdXtdqpzk3+yMGbORNJd3wEvq+vr/T2qC9RLlKJEWvcdk/1dMr55n0GsdFxz7G3LcWwEivoe8zZjqoJ0oJ0arZrDlHsrEPYYNr7YiDO1M8uSu8us9iBZB03vucNwHq9BozHfu6p1631WAbhnVweLk+CmCkW/Zsro15uub3EfLR6M/GlFUWlLun6Hs9az0PIGuP2gvkGdnLLOBJ7okHdc9IR3VwmG3dtT6yoKad6j1nf9iXgr6HDbUOHZ7qM461qe3wumvIoilAicOfMTCre/g10LAOtXA5TOnZyXVwDb/nwjhGdTDnVo1Co8NHgd2qQ2emG1rc+cipfVEPV8tgX2VfOzQp6j3TzfUorAAt7Iv+mFrqw6CH16g86ShSc53Q4uQDRY98i7ZvIXzCPKdeAXtAzi5C0046M4ahjyLOqlniEDqHl+d1RfZwRA4D12y0D6zPmOuE9mHsoxC+FebhE+Z5F2WtrJkG+zCv975njc9UjEN64ZZLrPhA0RRRFyONhCPrGDo2xNcI8WjEs9EOPiD1nPS6p1FTH5V8D9aKDxhrflT6+bOPGLv1fLp3qy7I83LtKRy+Lxn1YZ9lqJc+HeHrYE/K+yN72/pLfRa6Nx1+L6DQ7GPB6z2zzzkSpxhjcuPLArw7FYZI12R7vWapx+iXc/bXFXUdqJMjlPfHNr4dljR9ulrhrm/sQxqHvw7MCeYY/ZwLcl/1yo7qbwbmsg/3ljQZa6i+5IvpLxzywGhWPQ4sUFh+6iu8hY+crHwV6MOpPmdfO1i+GHXxzHdU32t+K17FOGNLsJa3pXr2xY0fR/E9qNjnh7rRWFh90D1nv+tjRI2sPIXmyOdcnqgnph9ajHpiZLnP06iLeQ1wRK6pjgOsevETj/o4tn080QRFjrrFrkue9+teGQDPSpj+zOyRf+PvOjatow7/+GDxdjYtVBF+v1qZbgn2gZzrPa/4BHwrxAcVc3BC3zBYMd/QyM99Qz9Q1gm9hG18LW945vt/YbrhjltddDjygEOn//f+3xqqQ7fOXmPbdYa+JmJfjLfZ5wX+Fx9/xXTd7TdbPgd/Q/2TftJFnrYC3Y768rQXfegPp7OvWv4N9T/7oG+YTj7kSO/HOmCL/rLyZ8YI2/atwhbgBQUtOOCFt8N/+tjrp/NuuMLyMd7w1S+ejjn4MJ+/8v6uVeVLz9gSvVsMfXHyhUbnCWvYxt/rddJErmN6YZ+bFz7yS1+Q9fmDw5H//me3Jav7mHxBfoNZoUNZkGoZe7DOrs/bg7Dt1xW+GA+6dayvYxg29AXTeaeLP2D2bfD5ljNJyA/k9gFKd/i5fciWLPkEfCs0Ly9jNmEBe9JneMb7f3666Y7bXOxgiOZBKGza5xX/RR/6g+ndV50fagcZr3/mj0/HHnSPUIal/RU2vR2ErdaxhTb9/RJ/r9S/Pzs2H5+R6MEy74vVir+AfNkRNvnCJl/YZp2743qxDrYRywle1j7JH+1f8Mo+6wLu82uEfgHAc2/zUVydvse71OFQ7pF7R5n6HORcTAEqjJR1W4OcNExPMdZ6YmwOdfjSDbMdWtFpzg1WnsIGz+OgFhdf9yRfuuUwqqaMevILk0L3ARjnZYrueQdbw9+Gaf98GO8r2KhopKojvLSDAeo+B8/qEEnThEbirFCd4bLxm6DnfwY9Tzoz14FwPeNYx1tSvTDWCu3FcWRv1OcLOFtoTfnNNVhOjLPn1MdS8SNwlDzV+4C3yedQ86KjofrSA+bc0D4UbUn1rcCvEeLwZ69l+IgnafjKeSClDvYCc88wem/125oyz3tYxdscg/ULs29QFzMZ9cVR/Ajl/bHJ15H77GiuZYeZzhgtdx+IOn1I+FEXg8ReRFJ8R8cwVRqguUZp1bWqv4PtUN9KjqJBFlRiTzn6Psv3WerZwRx1n8UO/pnyM9gdH40jYRt9KnINO+DZQC3mkXzpkR/Mk36uJg6PjEVVF4/8YIX8Uut8h+ecy1JoF5U5NzTPzhdbny/FgVUP79BlZjkjeuRhLeaqJ4YvxhD1wuHzlE/mLNduhrYxfIXq8fsI/cCT0R+Y8bQsOoVbBFPOR15ZijlPZrMAyI1hg3KgXFD1yrTAsG301lQfMX1LmnoEVsq6j5jb5piiPDSPWJvkdWo3qqbsfHHpYyn5EaBgIns5BOVR15qNtkTXKP4OtkLZqmb/EoenPq+n/Y5iyB1sQNm3nmmGRqp6YgUKWTd/pjk36SXfV5n5MNz3A0Zhb5rzmg+X5DWvSxtzbmjKpDP7YNLZvdB+Vo0URN0xTdcscQidamTlNhRfml7UcajeMRrh85TOHOvY0PmhrSAdZtGD7yPE6JyziupVHkdeZyO2aCHiyQ94pqtswUxGvo6k4zqheEg1H2Gkrlavs2OuhwxiqvoKtmgR+lZtrerOe7Dgfo70rkm0+5g4kkU/Ygfr4B7ZkPdtW2ZEoeguAPwJRd/wM5IRb9Wn6DTnbgrAuPQCHcc9UDPt/GDdk1Dv0VFfi2ORLUGe66MARr0tezbXxjyr42OrC+c9KAEY0wsdOX/oNp6y8bwM9gCy9qi9gOvq9D3eFZBwsz6Yo0aNVPWew2zrrvFkzz5UqffM6bmukO8ajcpdD5hNCz7nxj2VPteQxXfhdTHSEQOh/VrQHiCvL3D2kares1P0cdjBFhjvn/NiLPk+dQcD1D3yjWr2LYd6wXleH9lPfRD4M+YaA85g6cycO6iLi4881fuA4Wbl3jfWmqo314KmkB6wD85cJjTmZoYXvvNKrPhAo3tGSpNn1ENnJkIHcwExIE1foXoEbc938wHJAzBunqQgd71Dforw6eFASi1WbpDHss+CKBy+XyLqS32NXw/3Q4E7vznkL/Wplv3UZ8Kz8HVtsh3OoNDsY8HrPbPPORKnGGNy8elGCVDKNlla08bCbkTfwI9RfTvYDu3+WcT+gf39xt3CqIvll74dLEH7o53y/Yta2j+P0hV9oUtfYvjixo+j+B5U7PND3WjMfqmLY07TB52YkfoY2YPDGlLj0kvHfTKsVBej3nPq89SdErwGOIL11MOaHeDSKz/xgg8UHxonhFfnzLnBXR8j+Qzl8hVW23Xp8/4nVIN4Vi5g8N9QlyB7acENfrEtUdsqr/QR8K2gDwZm4IS+YbAi/UE9+2Ud1IVOl77QPdS+5AsLvqYLvBzYYsjwLen7fvITL1/89olzrrsgsjEed8pJkX354z0XXxrZHPj2ibc99SeH+1cY9fAF+Q2s8OIP/OH0rpXvI/yqk46bDjnwwFBffvjYZVdN19+2/C05X3XMqdOBu8pviWvwi4/91unwAw5Z3mcLIvlDzCZ02OQLm3xh2JfuvHkHSfVt/dJnROV/Twuzbksa3TN8S0Z9xKywgD3pW8Omdba6jjVw/wSfkB6EWiE/6Nax8bobGwBr2PiGNd7qHUBa6HRuDxp183JZ9wzfkrU+IvlDzCYsYBt/23XKPgqaGPU92udd09Pe81+mW+683fI5jr/HodNbf/AFob788dSXvmK68uZbQrXg9xHag7BsU0Ff0P4J8lv+8b/9I3sQftbyMf7qu58/nXX0kaG+/PBdf/r66W+/sPxN869/dve9giM0+zwAt3N5v/HPbPxMIt6f8wf4DaMv6xnHqqWvQlcjSiPVHJt8YRt/23XuxvtRu+A67dOmfYy3B1gXlk+N+vDvpw4oryFPD8TXCBF+OR+lc57ZAyDnYgpQ0SDVG05Xke6ZFDr6pBt2N2qprsieHZZUbSEdq4Tmxb0uDVeaMvc5h1F8Jj1jIAeK7wGZfWpx8lmWRqp6z2FCK6r2eyVD41C9Zy7negcV3BfsUc6xX+Skm175PVvDfg7tgfZjGGs+vbqfHnWffW3TYIyq95x9cdOHNUN7sYR8RufNwhcoudZ0HxTMYmgxzuxLj3wFjqz74Nxg5aMIHwNzcBRX761nznVtSa1LA9I0pbtwo+ZR97X4qquGMi4/axSHPyZreK3N5rCatzu4HpMohQ8NtkH1GWe/6YvDG8iMpSP7o75cS3lzLTvMxFmu6X5oZJwLCV/1AcMMvzAhDpQ+R+fGNaJeWtO1wiDbMPPFlvjrhnTGWJi10CUfHFhoBwHsSL+P2r+unn3pps/z/R3+7mV7gX1CuApWTX7UxTy29OPgST90z+FRY1GqgQ+v85tIfuESIM99LRYwuM7MvtA8F3ywfD8jvJO26uK+R54NbT0xfGmIzvczWD5ZXfJtVD1YIb/UOr+Jro9zOQaHD+b3EfKpWEZn120UNIYNygFpG3zp0MbStJM/Y9qh2WcJdWWF/GFkr+RYIte4gh31muqTZoc0ZeeLyzosJT8CGOV9CF29rAVIW9Jeq+MF319/0tFX9gZBm07489iBgP0AOfv+aP/ouhb3vjR9r+3vwH5gcA7N/fHcQ9r3rNFrflkH7IEG7/MDDV7vGK70Qp/CxkazIObc0JRJs5QYY9RnHC2QTMHSmWm6VjQacpbjNaU6NKdFXYx69t1sfOoho2egOdd1mFWnGlk5U+Wh6UWd0nW+Zvo+QqDnFay1hOdU15RumE/qpLdkjHygezY85LUfDdQ5rQ5mMq875nrMBqZJZyyUh+iXTJBuWfdoGZPQ3T5jLNoS6czhtpqLqrqDjLpjnued0n6NdGGe0jvQHhSOBFTDdyysqqO57mdinit+ZBzj/V265luEbrjkSWfOfSu8fO8OLVP0CqO30TlsAAO5DszZs7luWR2NZhp6bQ/obRmgpgaMOd9j/KxRHIDYwQdoCmlQ0UhVH7ElrlvGU9jt0NHHevILj/zSF4dyejTnbMewDuZc3ZPqrjGt+C5qvWcM0iFZKn1JIy26Y5qhkaquYNGZgdyG4kvTizoO1UecfEzMPuB11NzfQQW2o+6fYr5/yDiq3jP9/Rt4/dySUTR+3W/tn3sQOIOle/ZhVrfEBmkWar2pBSsfRXhcy3Kt2V/T/U5n9oHaqPGZinmVXO+C3iDvgmsnnzozUpo8ox46GsReDI1SZkA6+ho/B30PXyvp8FSfMX2cNmBkHZZ9RugP4vykVG4ZZWhjzxIzCV71LZFP1lF9HuDG747sj/qyt4Vf7s2rwaDss+D1ntnnOgpOMYbp0kKu0FyDPovRldiN6PM6xtxHbQlfG3TTFwd8ckR/qJb9pT4LrLYDATuj/TXmvokXjthH5TE7jv0b3IO8jzw6zn7TFwd8sgcV+/xAQ+Hkx6zKgz4F6wp48rs+RHMNC5/LijP9YJ6JURdzrjMSKOrCEeiDr+h7WFNP1MWqiwc+4D5HCOZRLX7R6JPf9EWUdSKyp3ryS2/41Bg7v9TJntU+17vxUCzgg9KfkjUwBDMNNk2r9PtzFkL1yugJX7rpC1+sI9WbCM9ztCTNKYmLP2fLnKEpk84+Mx/c7xiQTvkshKZuQ+Sgom3wawwY9ga/fY0K1VM0fhfZG/Rh7R0I2JO672RUyXHQG0R4NtQ+X3S/he9N2kfuS+Lel6avUN2DbtY9h09th9e5eK1Dw+t8LwXTC02ZdM8Ac0ivs+xpZaSq9wwTaSRghfpK4Ghq0nA6veZDFd9D2t3QHOQHoyodvkL1EkBTk6ZRNWXSPEP7YOWo92ze/DtW/aGZ0Beq9ky6fd76kzjpzN6Q6sharUNP9NGhOb0uvHYPmf2GkJS6Q5wwKBWseT3Wlo7ESffU63rvozrGkc7sZz3GXWjqdOIdCL4XeYekG+b7mrpUl668v0O7kHcGGOnCPAf1GVvEn/mic8TbyANY0Szl+h5w3ANhab1Hx76wAijahpJbALhmr8lRqPeUmOegnphNhRVA1hui7I/ypDPnvsT9vVDzbH2Mu/k4jACRmQTb4MzTNdjT5CcmhTYFlp4xfYXqEY03D85GHocJrzcc90BKjCRxGMVn0jMGauTgpJEqD0jPmGZopKqP2BJwDWm/16JL38D3VWY+DPf9gFHYm+bc+TsQsB84sTfYmtCZ0eVm54fmXNf7O7QN2A+x10Nz86LeM/pWfSZOJV+INd8XKLmu4T4rlVkO3bMPrqOPVumL8M6q+8jepj4LDPVaVdOS9sHrI/ZhVreE65CZp3pTC1aewteyCI/actX7a7rf6WBPO504vo8QSM9JJqFNlHrPSOgzqXUdLIAj+kO17C/1DfzmWnaYSV91ZyCYc0N7oerMMOUHO4IlkZS8SQm/Fa0tP2kmcY3Slzj5/roT8whmLXTJBwe8Fd/MqizvrlJ8cvg7EHxPeKT9KTU7qMGdX+piztm/4fuWmEcwa75Dyl13DM+CWoy6WOvA63xG1LJfuATIc1+LBQyuM3OdQV3MdZy9Vb7CK/QQyvueXDNR6h3zlI9Jqot5Bjc+xqhzsJF+ZYX8Uuv8JuAln3NTlGtAW+6+V8j0g3lWhpP7vKWyfUboT0kw0kZjlthG+TP2Ca7JlmQ/R/jDGHpYInL6oXmppMu1aFRf3PvSLltfAUp5qfc1ofO1puBpvYb8hos/YNquZ3uDoK08eBQ6lEfdhqZGna45Y3d3QPie5ehrNrTc7LPqKAfvx+CeibE13Ctpj9rnBxpY75lzQ8/6uEgJyKxZEHNu0ms+SdpDGhLwewNjWGCkkec6I3sl99dUa/6aMLa+NxRf2ofGb9hFVw8NN7Si0TGXrJyp8tA+mHRW3dfCmTTtpDP7YBpN4KojLdq/j9AflySNgHTDeJpmvRXHYYWkWs8OaTKaQzV1ylwfs2OuG+Y1MnodWCgPkXqXVm9Z92gZk+XXlJkf1YQSA9SWFs1FWXVNll5mBUbP13gH2ou6Y5ltbN4OXYTnAYj3XzT7xzPpNR7u5VoAkXMuIC/rjpku+LEO70mWod6rY647jgSkALJm2AAGNnK5N8ds/4LV0Wimre+sACIf7uUgQE0NcF66l8J5n1fZh6wVAJbhZ4R4IpYnpyWNDh9PU5dJ95z9WMe1Qn1+oMAjfGpw1KjVJ92zdbd112G4dlHrPWdfjLP0eWS76Mw0k+45+SzFQF3CXxNGajHq2ZdOPozcB3gdteoXzbmh3SyaIR9e+J4qh9iBw/fG969jS7Sv2ufFkL+fY7iPPDuducxTsFDDG+d5Hz7RUjBSr5drxdz2mgP2gdqo8T0VR6jeR/ETDwImiCydGSmbc10ahaq9mHRmIrQ3RUByIHur5647Ln1rPlIboFh37S2hebT1hnFID/viM0I9J/0BC7bEwiW4O1BTfckXj3wdG/qs6Fn45d682t5j8Vnwes/scx0FpxjDdOYZOlDWBnsLi96VmH7oBR8q91EXjqP0RfSHatlf6rPgaskvV40aWX3QPdM3GTl5BwHtj+/LcB/hi0d9yd/fkfdFR96fjfu8wUdOVj4In4vU2MLXoONj+GSeiVEXc64zEijqwhHoo49c9dTDWvSgt/GjLpaf+gBy+NRkVBNzTrD8ro+R+hjZg6Na+Oolcwxe9VHKfdUpvjTmyu/6ij/s44PQn4oYKvtjErLRPaMjmEd4s8g+l4ycIR1cfF07aa5R65WZVp8Zhs4XA9IpHwbQ1GyIHFT14N7CJ9s483OffLICMmuLxu9i6GEJz3UNal7K9Yy5Umhx59NwsQMCe4L94cY4Q9NKmnYw+5JOvL+j7h/2xIM6c97nEWt/uQooNIbMPrgWIx0xwBxS9dDhlTbVe4aJNNUV8ksNh3KGdHDxB8x1QkNFvXD4KLiP3gHDlY4+heolgKYmTaPRPjdpH7zOsjRE0nRDkzEkjlrYJZ9F8trPCNc4nqaukbW6HOzzo/f6Oa0GdXqFPZEWWlX79hIb5hYbSblUvadWB2/5GjFWHYpn0uHW7sT4UCdU64Ny3dmxt7wD34u6zzWAke6YaV/ff8F95Im9qPsqbgLv6/H+Pg8gMdNBfRvmNSr8XipKt9qd1tkGsALIOgfQsA26h1Xm2dZZ5Njqdh+BrDdE2Z9cBwbMs62Xe4x1qP2smuyY68qMKBTdBaDcv0ZoCZ/1SILxtC2MqjR9heoRjUez1eGzbgeZ5VSH9pU6PzG90JRVN4yBWtFqkA8O2Kz3DBNpJIt9YEvACgye+736Xixw9ss6YA80eJ8ffrIYfjCq0iM/s3WDa0jTqJoyaZaivgMD9qTuKyNqZOWz0FwQReX9GL6PwZbwPdVy8WKs+fS4OEPXcI0zmL3B0pkxyA+mVfoU3ll1F2seQj7YAgN0y0iQQiSOiTP2AQXXwdQAtaLTPqHkPreGNK8hH1nj06m6+C172umecVAjz34X8Oi3gaL8+IwwjvhoQPnsUA088nVkP/X1a1ODvBqcNNcJXfqcnULDDL8wEQxSXZYhpQSvkVqc6zWbe9C1pcHyjf01ho6xMLzw8/6UI9dGfhxmVmV5d5Xikxd9SGP5XsBQ2YtIotT5OzBgL+o+Fp1y7mPnO4K1z2W/919o3xq2fZHWPhadauSc5x4gfM5lyeu+FqykeXa+WH1Yq+mL4DXAEcpzDw7UVLek1HtGT/KBhnmGRjOYGiPMxPQrK+QzlIdXIs9NPudmpucV9Hk9NEb5XEd15+hwjbnhF859rGV/IWzIPqA14n+N+qOxMA7plA9j5mOJyOmFxlVZl89CZVLonj11TaFQXwSQdR/AKI/QWiCA2pTXE7MceuQb969R2jmC7cqDc6imo/NtwFk8al6y9Rsu/oC5jms2Fo7AQA7kfL+Hb5L2kTAx3M/kF0aaeT+H7Rz3oTD3Jjhq1GxGvufsa4cmRZ01nKHpRl2M+oiRRp7rjM7zwGuKnH5oHI2fmMuyqTLN4Fin+pg7YLihFY2OuW3OxVOY9sFk6GBpW7Xq1Ddk+hhyPSK8Wd7XfPrcV4SPAfeGGn+yjD8dM+todeuZ5tyo41EbSn1FD6/RssOYadIZvEZGrxNWrCVP5XXWPfe6ZYx+u6FjD1gv1dqXde3qtY1cNGkbR7oGEFz2bwtmKi30egcV2BvtT2Kmg/pWvD8De7BNAAuc39+Ztr7+tKgv/+lx7vUGjgSkALIugUF5BEC2oWrPNjEyH1u9HVvwhhai8YCRxmjMNOk94fJ2cFS/CxvAQK4DM45k0Q/mb6j3p2QwdYQ1OPuBhuxLc7Z06nPmIlXjqlmHH4Yzi8HSmX1IdQ9fk07oSMHSPSMd1Bk0a+51v+da89eEsfUTqw869cHIfdRebPyi4Wbds3xMjHU8VR7aB9dipNnH2fl+rcQYdhDgxrThmxR6ztw/aVLUQ+/X4B5wM+Z5hO+fBRiKdZS83ryfqo7Opi8xhvBZSr6nqrNc633Ao584R9SQKC+6Zx9MDxgtob2YdPiFw6fumV5Eyn2tjs0f1sGcizTXXXuamJcO3XP2yQr1eWAICt0x0lFdjDR4N566/tlKsPLRkf1BnxU9iz48b/2J63X3IZPvBa+Lmz4mGOYMM5W0ilDWBtP3onfVtd2PejDG3EcN7nznOIqPPDgf2dvC5+qpr1y180u9Z/aZhCp9rp0SMw2trs73NYNRDt4BgL3A5gSXAKHOpDJHZ58Dcn9nXwHsAXYCG+K572Pk8lI0+2e5+6HBnBvMs/PFmCs/GE5hL0efPEXSNlCDS1/ikZ/6/ITvATiz6hrMOcGNX5mRfOSlnvzC6I1ca5S1l3wyStmvzozRI3/UxzXAEaor6NtRfNWQY3R2P7Q4+UD5GmETOqjx1OyYXmhbRHUMpS6Nq2RNZsrEmaVa71lQHl4JYJQzbIgcVHV/T8bhU5sq9UEfxlpXQNKptZyPYubHGkjoaU1dK3H4ZFLni9UH7TLChpJHAH1NASTta++gApsC6jkCAzkw2n/EDhy2P3wf6/dTm0QzGGn2cRY/SuGz7ClRdM80g5GqngJDlL2GIzwP6eDiD5hrVI2Caw/A6+itPnVmuqGDFfJLDVDOkJ6zXyNpH7zOctI8xQ62QfccXkyr+ShmPl5T5PSkvdDo8Mk0Q9vZ/K/RnOOg5gPT1R5zPJ2hHWKh1/uIDcs1tgnXusekmXSvpWOM3tbqzIBrP2ZdnBuaF3XV9oFy3dkx154mPWSh0729Buvdk/b9A9oRbU6/QwPdl3aQoM3ZO9afDmHwp6WyDcN6zzaAFUDWOQBcs2gb5vcg3bH/JVQ0Mh+Nmea6Ash6mwBGGpQ0z9Zfutc5O8g2NDp4FECjbcj1RbZBtz6/h5pxjMbdeDL6U5OPx5JTh8e6Pz6rBtPHMnSjPmB3qQuH33DpU0Q9AlQ0SPWeYSLt6+LwqE0p95AOLv6AuU7oQR9Xh44DBus9c27otT6wL1oC5DkNZ+mes0+S9pCGBKjJGBKzGHoHFbF/vjmQsUFRL/sr9oF2Uw+9X4N7EZsQ+fL+2cC2pHkmlh/MltKHPCLnfax5iG4dDPVaVYdVdc+wpH1AwXWwdBSrLjnFOI/wtYMxqt4wHWdodKqemGnypRvGQa3oNOcGc6HQEdJhuRYjGbEPqe7aC1XXrxEilMfhz087okbNJ2jSNhbmOkn3zHWcI8EwZ5B8WYaSRuItuobK6ZpI0jWzj5F+sL/GqCffOQJ1cnfk2siPw0z63VUqx1zqUR99SM9Z9wKGyvSZVCaCfZKRfEesXrvVF0Opi5XsINDukPaPG8Uz6j2D5Pu5A25E7AT3D7vjmzPfv6RHvjj1cUnVFawFK59FzEVAW1Lq2adqferMONEMRZaPMXwO8qOu4NrODOXyFbmWcq1VONZp656ROTeYZ/WRZd9bEjd9ETjIC2ED1woNlDVchDJGM1gaLB9n57PIkSb+16g/FRk4irau4KLDZ52y7SvMlUK7DL9yCaCvKYBRHsGyX5DwtQf3FCa1qVJP3L9GaecItifdB+cO8ggbnN11zUuinphzQ1N2PgY3Wl04AkPJg1P4XIuA9IxphkaqeugdBMoGefjbPGl4SKV7phl6fwf3JDZFzM2pWvvL/WIaGq0oqd4zzdBIIx/GzPc/cwx6oXE0PtzQYIyq9wxX2otdnzRcZ4XqjM7z4E140DfywUqhg8s1sy/GOWL6GFqOllb3EXNneRN+NwiuhSM8aibBPIOlM6MvfCvUuoV9RgjguYhMz0tjJklnjqdr7nMs8QI22AULfX2Z2gbVnXXvvW4ZY37N1B0DRcceVDexeUWzL+lgBUbPBxzXWPQzM5UWQvflwLDbBtW35R0EytvLobeu0OybDY3OrGS/x+IOxem6VnvtQ6MXeBQYimYh6g1b5mfVZEfVwd2fadWlxxzBUtJrwesggFQnnHXvjd4TjtfiY8sKgHmIkYeh0XvEygxMlzsb7t4O/Bohnoh6MvqTM2l0sd5yGK3uGYOYFDrCr0GHgCxMf8BIB3UGzaQZfo8Mzg2No/ETc5nQqQ9G8aW9GLpjuKO6IvnIvc7FU5j2oepgn0ujatpJ90wfQ66HpumaJQ6hU40sfwcFZT+5O0lDkkPT8wCU59gB9sE3ou5jcGxi9mmlPk9VZ7nWm1qw8hQoFl/aSHVnL1a/08VHoWo2qC4NSNOUVoT2xNLIw/e1cAdJq086M/uQztnTpHnpqPfsnfO6mF7cauRFZ/Z0XhcjlaaADlECAxB1celjserwm68R4unoT9hg1NFLn0llkFh+6nPUPifjahVX0Fxfi6drceNHPRhj7uNrou2OH9GnWulbOEpfyvPR+X7tqNkRV8NFGr/UxTHH+6yMPIIyRppMneVGMdYOli9WnYwh6ia8yhLHmB597mOcMZIdFPjOJI6NpCJHXREG2xCuyK72bwzfn6HFyfcWDmQ4hb2c+nKkXnjoUe/IF2PofD9pVp+cu7KfGHVx1HJfqaVoPPSqLg6fLH/WhxLqXhHDyT41uPMbzn7TF5E95mD1YMx+aHHy/Qwe+RzD5xCBPIdqxulrhFYDG5GlyUyZFO2y9cVCqjcBjHKGDZH7WtL9PRnTDm2q1HtfR/EVkHTCT7wUMz/WQEJPWtdKHD415XIfAU1W2BBWqQHKuwA1umcjXoOJ6rqXpGHamP3yGndQ4PszYJqhkapOTvsN00bvc7XfAvuBjSCHdqfqnmmGRqp6CvUxWGvfn8n0QuNY6ENj9qldOMc61G5WDebc4M5XgOCXGmXSKGUGQvtaSftQ6pXRgzM0F0E9NAqZnVwHN5FrM99fE4OetBcaHT7rPjR9hdEn34tdX4rw+0hfIwQFx1jqBaHa4jr2pLcDH9hpAc/qPRUdfa3fMkZva7WzVK875ty+Dsy1J0ln9htGEqXOn7HQ63U03Sb6VQtHMvb1GkJ3+7eDCt+fYE/3ifd3LPzpcbZhWAdHkusKoMktaT3P5nrAPMc+TY5sKtpZAWRtwZvPAWyjQa0e3ouYp7RjqP0MXVkBZJ0DA9nTdY5k6R5yZc85gqWkCc/5GSGeiA3jqUni85XMZMQAc4TqHqBG92xUGKnqDcc9eIqRXEM6uPgD5hoj34OrS6Nb9Z79Kq5HfVGj9kVTSNNo9ZpPcl04fDvDxzBgmqGRRp77SnQ+rlVyetLOO6jgdnBvPOf+SKcaWfkozNsB9sI3o+5NaHqua74QKz5QNAVyF9X3pPxZK37i7AdzAZzB0lGsuuQUjfa5SYfv15SPUqrztEE+sqaPDtobX7rh0qfoNOcO8ggUyZ5W3TNSaR+S77o0hk/dMyDd9HmwxQcGUzI+I4ynpD8fu+exmW7b6AmGyvUxXv0oASUNn1prIo2xMJLiD5iJ6/xvy4UtcY4ofd1R/MT5iBpXS353NSxeteVjH9Jzr7PAsTB9JpWJYM6Fcr+uInbEJaqOsfGh0YPwKhmj1+RHXcxj7u+gQvvB/QGHUO4hbYclw/01Rra/g3+m/IzwPSlae2dDtLbBmh1g5uCYwyP5VK1PnRknmqULY6RZNfuqZkSNnPPck3zOTb7WKmuzz53qJ82+0DyrZod8Y18q6j3Dk0/uItdMKAfKGhhxohlaTDf54pEv5gVdO3ehWunz8DWSDg+Hf0Zo8Icjn8d6YLoueQTQ1xRA0v1cUFnT06ozw7SRWtz5+uhEfv1oBazodRecO8gjytpxQHi54+ijppz30YAOX9o5AkPWfQBig689YJhImegeQtvQ6PD9NVefmrL1G8b0HRRgX+o+86QIGfXxPmKkDvZhPwb3JtgrZUu4TxHqK9H5dZ8t6EnPGSiaC0e9Z/TJ92L4wahKhz+MoYdy5PRDk5LGKWYx6ZkPMzT7FBiS9rbkd5G9UR9rfjcIDNTB0rSkfWh9MfqGfgQblKd6H/AGvtbEsBtUgSdkRqd7ew3Wu7QaH8Rgp479ue2ZjyPGONKZ/YwjLsp61Io2r61nBjynZsGre8x64TNfUF9N18AWG9S6x8xEr1T1qgEo6mb/Ku+gou7ZnBUYSk6O/XUZyrP9Hf1OZFYARdtQcgtgkSPp35/JPEN3f2bnb58RK4CsV4LXQQCpDnR/9lRv7lnMs687svbodRvASGNo9BpHUuvKHFVv4O7t0PDa3jXaovTiymDAPiP0h2V9MhZNKe1Rnso0oTEMmGZopKonVgBZ4xolpxcaR+Ojknjgw3AftdBebPyq2dnqYAbcrBnpBXCukQ9RH3D4XEuMc8T0MQyYpmtFoyFHeRN8xdXHER6KxXeTvuo0dlCgLSGPovO0j0XTh2BGvb/C96TujbZlmPcBj4skjiIZqbQPpgfMPtecoLo0IE1TOoJlFhk+t4a030Po1KdrNRodkWff02DpnuXzyL5CvgcG5uAozthoWAcjndUxeA5Qexb1AQPSqY8W6x7UZvo1ql8054Zu+tLXCB3B5TFuLMuQP4IgI7HBWfXa5cvIj3owxuzjIy9vS37pc0VWPjqyP+rLnoWuosOKleWnvsKNbxSe+9IgY6aJCWdfI5hn6JmPgWdlTzlyug3uO2MsDF888md9EcWPg7VgNFu+gwpsie8PcmSJeSz5OuR7tj+DexR7od3wQC1ycPEHDF886POTJn1Ae1+7sp8YdXHUyMoHwbmpt1kDY3jqY51n9mF5nv3ocKafWPWei488+10NzDx0sJ/yUU0MU7zJ58im8D0vdUX20JtrUJrT+WSOy33la4SEPyjnIShvfBsi97XwhPX6jGlv50OVeh86lI/8Uc7Akp5D+CW8Tp2Zc0NTLvhC8RU2yFcNUD4KIHKtVTi8tp7uiX6wjdlvXqO7XheHr71hlL5xwN1BgHsHxt6AjCmT7lm+juLTsdh/wb2IRLtR90d5aPpRF6M+4uRbGoyaMa+RdM+cG9onF90EvPAJ1hPTC03p2tdK2odSr4wenEnHNGlFtHhEbRbZm/XhNSaNI+porr4NnBt1H5q+4oPluxl9wVGjTvkshh7Knvvc0CTXM7aj+xrhvoEPWrBTsD+HZ8wncdKZLYHKdWlnqV5vw0DofA9MqnYE64X19cKC6abU+xvQtUsO2Yaxr9cQOl4jxuxn1eshxx7Ubtc7qGh3SBG62b8Vnr2v7Z/Aq887UcIG5UDdP8fq/vIc+zQ5hm7eDgrAmN62AWzHS/dC5intKDoKtV4DyHq+f3O9yDbM657196oO1aX3jreI8jYBPC/Xjg1q7rHjXVd860uimw9HWnhQkqV7hm/JWh+R/CFmEzqs+J+68bLpYzdcMp1rgVz3c8LBR0ynHnLMdM9DjppOO/TY6XFHnxkzDMPrpAvwerFQgfyoFz/Vew4fH2mUN4ZBunRbMpjd+pZwuYB8Ik9YwyZf2Gad7npP/ZtfnG6+49ZQLY6/x6HTW3/wBaG+/PG0//XK6Yqbbg7V4tADD5re/rU/uf72GOzfEOa/+F0vn9552WejMMdrvvv50xlHHxnqyw/f+4q/ns655LJQc7zxG180HXPIYaE6bLF/W/+52Je3V+dLCsW2pP59qb8X5Ne/J/AZSqMTc6XmL4S6QuHimyTkdyj+HO++5ILpguuumr5w/XXThddfM11+0/Xlkvc79oTpIcff0+Lk6b7HnFCXX1mP2MYfrKOywJcHthgyfEsW++j7Pld4R/MgnIErmD2YSM5Xbi/Z8sa+AOQKLrvtuumVl/7t9GeXfXC69JbrorqOw3YfPD39uPtPzzn+QdOTjr33dOCuA/x2zFu6m3ybqg+RJ46wyRdWfVtg4/4Fb+NzHZOEfEdR4UsvsiVPedMvTLfcebupOb7SHoRPfekrpitvviVUCzwI3/ZcexBiZza+vRz1L75514vPxoPwPMvG+Ct7EJ71Zfwg/K4/ff30t1+4ItQcb/jGF0/HHnIPy0b758z9S/s8e4CED9tnLew3/FhGdaHR2RgBfr9AxiZf2OQL26yz4X5uu+OO6e0Xf3Z6/XnnTm/+3KenG28ff1Db456HHzl9y/2/avqWBzx8OvGwI2Kf6/7rwtpvomx06B512jo2+cI268T1/J9GURgECDeP+4+0anAU3U71QR82iTr6pJ1T0G/j5jtvm/7dZ141Pf+cX5l+/cK3b/0QBG6889bpNZd/ZPqpc/9k+sb3/er0F/Yg5T3A5PWCkYhRlaas2jkCQ9ZdgIoGqd4zTKR9ndzdoymw702tU7tbdc9sZ0fX54FC9qnFyZ/x/oINL9W3hDvmDI1D9cIe3FoO0pVprmDXXev+lzra/5wwx278BYqtwAG2oWegaO5j1MXho9D6mJMYrrQ3lVC9ROdDtp40qNM+OLMcuufskzG0XCL8Yax5Fq/4xAenr/+TX5v+2ZteOb36sx/b+iEIXHLDddOvfuDt03P/6CXTv3v7a+2D4TtsUZwc4iIgDh5A1n34BGflKdr9CY1M9REv+J5Wvfo1QjwsyZEU3TCe+YmteVTH2GuponnWOnDhLVdN3/uhl06vuuzD1PuCK267Yfr3n37N9D0f+K3pnGs/ZxW/xiLrhc98IeneMpRSJNKrbMOqbyNYUXXHce+uVnjYh7HVikbjbV32aD/AFi+13bcNzBMaSaqXWMZdu9b9L3XcueH95k78TWUtZb+ivdk/Mc+2ziLHVpeFmroCyLoLzu0DGGieSXMcMM8Vn+zIzLCh5BbASJMjAX3g0oumb/2zl07//l2vm664+UY39gGv/OSHpu/9i9+bLrz2alOzK88ZafN2WIm05+2+9HrAcY2Rjyxrfh+hnQTe9wqjnlgBZF2ermB6Sa/5XLj1pXkNO/AQ/MEP/c50wc1XsXZ34RM3Xjr96If/9/Sbn3snr8kbAOIexLqnGIqecbSUewdJk0PTda2Qz8he11drsY/Fr/tXOPqQUEV9xrmvYaxlXHzkqZ5jBxXcEgzBKIlZDN2zJ07Kwfsx+Oq5Fb4PZZt88PqIfUDBdTA1kHXhCIDs4XNrSPMa8lNf40ujg/WWPQ2W7jn7sY5rhfo8MGRfmlboX/vbt08/9Jrfnz57zfI/S+8NPn315dP3vepl0+ftM0UHLp7YbsDvoWMz8Tpcd8y5Y5+RfB7MUVIe2jtdi0uf+/YZYXouMgm2oT4vfcw+nrbeRicO9UXM/DhUK32J47jKPnv78Y/90XTN7Tfhol8UvOSCt0w//5m/xk16wfiG22+dPnrd56fXX/6x6X9d+K7p1Zd9ZPrEDV8IGy8cZ2LUORrHOiT5JoofI5dRPRhjYfjikZ/76CPHKD+O7DV9fpTVwqcWoy6OOU0ftAXemfYbbHip3NvYK+1Pw3n/un0kx1wwamv4Sv+n0emuO518R3zkicFG7lFojlEXxx4u7TMDKngU9OQbcy7H5IsXfVjw3RHDKYy5qi/5TZ8i6hYfv/LS6VWf+ej00g+dPb32vHOnD192yXT9bbemnrumnzv7r+1BaB/8f5Fw9c03TT/22pdP19yCv7PtqrhZMV+D7iQ4fN+fqC/1db4O+TzAaGkOaUxNXPqcd13xbS8pX80EwShsCSaQR744FVQfYtEIxDq33HX79KMfedn0kes/7/UvMr7hpIdNZx12wvT6yz42nRsPvR4H7z5weubxD5i+/uSHTk8+9j6saX/0uuL254y+UV0M35LcJzQ6GyPA7xcYYZMvsE8LDthu+Klv/IXp5jtuMz3Hfve/Rp+H/yyTsGmf83YWeOHF79zP/9foN71oOubQwwb7kzDcvwFW+5JB6huljfMfVNP4TML/Kg1tdfwlS05+zK4ay5RZYyZKMsZbL/r09Fef+dj0mvM+HpU5HnTcSdPX3ech0yeusgflpz8a1S8uHnHSqdOvfd13TIcccGBUArMXCNSC26P9W+CVPq5b3h5cfo5oA/MzQsEzLOXgX/JFr7AlULku7SxlmotKj/nnz3v939lDEPjLSz88/fJ5f7P4EARuvfP26bWXfXT6Jx9++fSC9/zadPZV58X+VEgO2Yaxb684CkXHONLloxqOHfMc1Dl23L0dFL0m+bDC+wd8b9ah/VOv9lkhfzmAnI9x15f5Z4TanyWU/VtgZH6GLn8YwQrAuHsbtAEkzVLSxJibe8EY9zC/Z0ejbaj1OZewQTkAfsfF503f8MrfmH7ija9YfQgC+EzxF9/7N39nD0Hgby+9aPr5s99kme48Yvh2ADxv9o1n0kvMc15HVvU4MCjfjccl/kgxYgDXkB91MeojHvoeAFm6Z5uLr9+94gv4n52b8Zijz5h+/Myvnn7/kX9/es9T/pXFT0+vftyLppc98oem//t+X8fvI/xi4KKbr55e/OE/nH4R/6yK2496vASyQn6p5ZyB1540jqaemHNDQ0V9xuiT78Xwg1GVDl+hOqPzPFCOnGIHBdwW3xvf56rDrDrVyMobf/9Fs39g7k9olILlS0ex6pJHJL95W0CHp7quVTRFaC6ddGYeoYNpiXFI01eoHtF4ENP0c+/+6+lFf/3H00XX4T+m3P0486hjp5956vOmP/jmH5he//d+bHr/D/1z5v/yCc+annTqWdG1GS//+N9On7z6ct449yGzvzLX4s5H7j5KyAfMvi39wToYqC0tXyPkU5RJ0oXjsELNMfZ+4pz3R/icLbYD/J8/+zrjdRx+wMHT79nD7iUP/a7p+059wnS/w0/AVMNd0/EHHzE94PCTpm8++aumVzzmR6afe+AL+M31Xwz874veO/3yZ/7GL23wl6JXErdko+d2WFK49CUe+WQd8kOBkx9uZfVhtHzRj3Wyr5DPYG7EQbGDivk+av+K1j5Kp7zZZ8b+C98XcewT9nHT/o3yvga20JqsUQU3vjvVh5W4+C0jK304oo91Ma8BjlC9DxsQ/+U9fzP90bnvt8rdj1OOOHr6+Wd98/SKb/3h6Zvv99DpgceeMJ1wj8N54Qced8L0XQ951PQrz/226Z3f90+mf/2kZ8esdfznd7yR8/WqZowXJd318aAPC3npnHP2R33w+z7TnmHUZ4Tp6UgGxdOUGT3X/nRNuvG7WPMsfG1dc9f0kRs+P33wuotw0UUcZg/BX33Yd08PtIcd58U94vR1nKWffeIDpz9+zD+cvvfUx8O52/HbF549vemKc3k93ovuwVOMfjuoj3jN5xrQyFM9AoXi2SE9Y84NPevzGyW7S80k+WGUOiHeQSDv64Dpgzz3eujMPuzXsJ3hNiztY5jR10WuAdlDqXhZgzr2wTXbks5MN9dryC+1nPfh7UPvdeefO73sY+819+7HDz38CdOrvuMfTs868/52rXRRIGuLQw86aPrOBz9q+vlnf7P7K3jvJZ/jP83aRMby/iWNzkGfpzaET104AkfJU70PeFyo1tr/NZoY40hnBlz7IT3sxqM468Igz193+fq/dwO/8tAXTg8+4uRQnL2RD9l94PRP7v3M6SfOeib13Y3/9InXTtfefvPC1fVKFemV80x6iXmu+BxDx14q5C8HsIfMazAJ3oED+xHRvR1qgJJmKeoz3p8RezB7XwMrgKy7aOYqgIHm6XrGsc6izzG0nyWArHMAI90z/hfmfzr7DV64m/EvH/+s6Sce+zTL1u7AotvLZ515v+l/ft13zv9DTIfXfcY+SYg5dX98rRmv7DOyRlta6x6lg55jI0eyuz5FB2wNRQ/6AO/zg6ebLcOV9qaqgxGvv+JjXHMJ33TyI6aHHnlK9FuhY18bnRysHPXg7z/9CdP3fBE+M7zqtpumP7zovX4bOczDtcnMQwfr3uhRJE5+wz50daxpzGu4VjTaJzgrnwVXSb1Io94x1o53vf0Dm14q94UbNM67GL+tkNrAjV7Gl/s31Je/V5fAPQjmdmSOAEq+tJ/GPrHqhulUzSU9Lz7z4OIPGMewL0I+PF4o6hHSYbk2+r2PvS++JeHuBT4T/K6HPjpUXKzcoN9rvjGmluN1QTz+lDOmH/yqx6G4iFd/+mPs9z3ROp7X/VEe2jur7plzQ6c+DDM2wuC6Y6Shd/Opau+VDOX9kb2RryP7xvibIx9WrCw/+IPXXThdtuFHp33PKY/FbM6PpDJH56Kjz6/p/E/v88zp3oedQH8N333qY6cfOv1J0+OOOZOfUW7CKz7/QVyC1yTz6Bj3QF+H/DjkgdGca3aYqJx8rVJYfu5DPTEj+ci9DuQaUuRMKMWYG+9q+wXwB24dg/0N9r1MDCfXLLyXTvQsY/VHQn0ZYOP3EcYe+J5EKA+vRNT0Pq+69rFw+NTi6Cg+Mnilz312sCY/6tkXz/oUUVfYUHtVV48XwPjJLZvwjfd96PQfn/710y8865unH3z4+sMJeMCxJ9pngk+1zK/mF4uIXHeiwL0WDh/XwrcOLQE/iu0jl32evTg0nwcYSzWHNC5hLL/0dX7fN/Q9ANTIHMEw8efJ3iH9iYq/0hbyPnQob3w8YD2HwLu76tQLvPatC8Dj7YF0n8NPjP4IDORA9nIAxpxr+Ff3f44nK3jicfeeXnSfp0+/8oi/N73mSS+ennb8fcMZAw/xd135GbtGvGYcvOaAdUCTx0E3655jDWo7vB46s7tNnYXkSxPJd1ZgUB6xH8H/WK3A9odbkvaPWyaNIeues78BX+nfPuF7gv1z9j0Z5epN7INrMc7sS9NOmqyWTieO1qqRKu/D28aeDUZV44g6jLdf9Nnp8ptusI5l/Ndnf8v0s0/7uunr7/OQ6Zln3H963L3OCGcZ/+bJX+MXxEXKxSNybeaj5DkOfM3wSaem3/AzwMev8O8Xne9zMLzGV8Re0IvIeR9lnXEA+Zrk0O3/GhXzServqJ5Jb8PAXDs6rce06RsWfpWP8JAjTrFR/UKvDYOSIAvfdvGQI+8Zaow3XHZu6T/iwEOm//LQb5vOvMdxURnjby7/lM3pXjn3MukhY9yguVeq18Do+6gAVpjpij/kQHl7VcQd7B/Y9FLT+/NGZrrgD/a5x1f6zxp1G8MgaCo38mEj1/fVVs/Z0Wgbar0GgNvJNQUw05Fkf43/5nOfimyMrz79ftPTT8cH6XXm6z/7icjHeNTJp06POAl/nwKYtxB5n0sAnmt/HnD8ieQl3HCb/8aW+T6LFTb6WXTNHXcLSxiULnyN0MOfnFl3HB41m0c+LuO515F67uH+LXeOfzqJcIcdPtkQ8/xaUWba6Z6NxN916vo/H/zNFZ/kPPSCD7CdevF9n+HmAt5yxaes11+jv35n6rhwvWcbwkeh9TEnabiqe7GE6iU6H7L1pAcs3wcru55x8pXvF9j0Urk/aPLgfgHaN7EPxS/1zBvwlf4j1mj74Gzh+5N0eKq3+yg/NJer2tPQntV6zzik2adQPUXyIbIH5PqMkYpjeMuFn6Fewrc+8OHejInBb7zgk/SWgP/1iT6/BuZxopHnM/aF53XyNB19MH5d1jJuuv12tLPfyFk6M68x6vNgBxmZD9Q9e+pajCSxAoRh/jXCdOAjAh7h4/nZf2ZCjr6xD4TmOq4V8g/dfTCzJdyGX/Phk515iqMcWdyCK7GnhZ95wgOmg3Yd4IUBrr3tpunsK8+zXl8Vr+spx993dQ7+efTc678Qc2IeDptbVORFZ4YXN9/UxVoHPV0fI2rZpyXfhVGqi4mWeS88Q/dsvvL9AhtfKhpq+NsSMObpOu9f4YG/hq/4zwg5YLTg/mBXQkdI+/6F5pl9WMHQ4atDdWqs0fkN8xrgCNUVrAWXvPYAVDjRAC2Ojswfv/wL02U3Xk89Ar4294RTzsIiHjbnXRefP117y/jHAAIH7d49ffUZ/hmkX6vOpbZc9RnHddr6NN1yx/j3kQqHHXSgz+DcYCyFQ4y6WH046CtU98AAP9I5w/eBa3opMU9n+8AMT9kUOCK3odah6YGyL43lE5M6X+yua/I0nX7YMSwt4db4fVc5QI3u2ahopKpb4L/9Pvk4/5mhS3jT5faRlTVzmvHBuw/YOOdtl8fXCRk+T4GLM48DDaz3nH0s2viuFfKZ9Iwh6yVfKL4HZPapxeHHHewf2PRSy/51jAEnNw4yaXJpIdS2hv3mM8KegdDav6J9KPUZ+4CTyPuvkM9QDl6KNZ+e/5lFoNDcU/hkFkMHv3nDZ4NPPOXM6eAD7ANzzvF443nr/yz6tNPvy6/r4SJ+rRp1f2zAyDqsjjGgA9pQf+PEGGcdcxyWZ79zBI6s+7C5hZWnQJHsqWsxErIXm3vPOpifEfpzEU/GYOkhAzbyCZv0EjNd8QOnb/j627k34BszW9TZBhNLqy991IDPCtfwuss+Zr13sp+v1M6nbvhPM2++wt8Rhx+BFMYYOvZxOYAFrRfW1BeY6ZIvtHrJzazXsV9g40u1BvaoseW6V61uq5XXsF98RtjvSPf+vrif6OPZ1Qs7qP0sAWSdA2jYhmF9xJFIC7qnwQz+xvg19F8bvOvOu/ibJ9bw7DPvb62Ygys7K3QvqpN55vqcP3rZ+s+FPv3oY9mJfmcPrcA3lxeivsILfUKvG9Acz+BnhHh8NsznZmhx5yOnxiqReyTNPuk5+9quz9jwc0E/ct3F0y132qfgmMI5idEgjTTy3MdwWfQzTrR3ihXgn0c/eM1F0Y/B3vlOvF+4Y3z02kv4fYXq12ss2hdzNkgPwyfM8ya4SvKROuuaLkLTTjozhqGPIs6qWVJtf8GGlzp+Wyf2gWzU+EzFdNfxFf8ZIcI3pWOcdF1Hn7eEnzQ6Gp2Za4z8iOIjx0Kez9hT12IkYqTSFDVwTc8xAK4vv/nG6WNXXBK1MZ5+xn18Xsx//2UXrf6zKPD0M+8b18Rr48RWBzN4L0kzUIrcDvzmGfzKpzWcdbR9RmjsczSfCVlBbYShaHJoL1WdmAFKeak3gSEgbedu//dYO7qPEsjhkRd9SGP5XighP5LKHJ3h43v1HoZvll/B3157YbNEt0q5Ni9ng0tnjIXDx/8GfdJx90bXIt542SdjLo5pOu7gw6aHHLX+P07fctknvJvXDsZFocSoi7fwkZOVlwAip4/U2dcAnH3tYPli1MUz31F9rznL3Q+w4aUu71/UEyMrfcbaS9Y5ruMr/hvqsQvclNgVsTvVRwYPLclnB+e0fuG+r/EVcagGRm/xEdIwE6NZdTHPYPlkVEO7Ob3lgvXPBh964j2n4/lrqnw++I3nrf8nmaeefp/piIMPjmvZqGuDLXTtfMhnMGelHB/4wvpng1918inRiaUTl3XAEcX3QLXUIMkw4XulcHQUXxw+BcekkcK34AdmeA77k1RP5KR7XvPLOopOA6M84lFHn4bqIj6AB6H1oZ0cia7hnO6JdtKJ9dHJs054ILoW8a6rPosr+IF5djz1+PXPCt9y+ae5vl8rcazR1qUxMzGp+iyIfXAtRlpYgUH5PECN7tmoaKSqZ95Bgb9NkXjwrRglYHUfxUhDfyWj/oU0xl22CWU/uTnYF98U1StHS/GlKzNoJt1HzCUrt6H40tnHEXUUZ+zD2OcaFF3frunNG75tgv8sGr0xkf9RZg1fc2//F7DhvfDs9JLvGevvv+RzXHMJj77XqdaH3oWwnmHdAsA1iiZjCA6fzGLonqPDT2czEu/C1wiB5nlKdnS6e7ous4Fp0hm5nPJHH73+jaDvv8Y3XVN0O0UPOV6DDVljBD9zwz+PfuaGy6crbr0hun3eM05YfxC+88rPRr+ukgMw5s0nvcRMV/whB8rba4zGNdGvUjiSke9/JPYTbHipeh8RpEf7NuRIpNfwlf9Po/qzAzjX/ezZUT87cGRWAMxtyHUEMNORZL9lz3pNWFr1CjOtGv8L8+yLLwg9xjPwz6Kc43H5TddPn77qcliLeOYZ/vfWfP86js1Z60OG8X2ft09OVvCYe54WvY6GbRjWB6yk6IK+0s/cjtuvEeKvNZLnXg+d2QfXYqTZx9n59SmtllY/9pjTV/+AfPDai6fbpzt9uTQvqKnX8L+qi8ahuvExBx82PezIe1nHMt591fnsB8APPOrk6YRDjqAeAb/E9x1XfIYX5NUxN0euzXyUIqcnPWdfOzQp6j3TzXWIpGlCI3FWqM5w2fj6w7FfYMNL5dsDbBvj+4PB98lT1VmueR9cZR1f8f9Zxjai7l+wD2Qj1mn1nH1yF7mWcohShw5P9RkjReJn1ENEUBNRF5e+jm042z6zW/uWhBMPO2J64PEnx7XwmndN7754/TOzh590ynT0offwfh2YbwAjHfKKf8edd00fvnT564P4u/yxp5zmc1Dg3AF76lqMRAxIp9wjighCesCAtA0s2QDm1wj9rzMxKDTYCxjmXN6ZjZm2fvn3WTDPqHNMGmRx6AEHT/c7bPmnFOAB85FrLuKsuMPIQluCa1KLeSRfnPzHH7f+CyfP7j/Ds7lPO2H9f4++5bJPsa/Mw0WpnBlRIysnlIemz6QyR2efC3Jf9cqO6kPgdMdH40jYRp+KXMMOeDa4vwOh7Cf2BnsE7WeEd2hvZznDe/Z7cF84OLNUGVneZ+qe4VMjD86hGlg5D88BavpeKRwdZJ7BI1/BE0MEAY5gDf9bdMNPk8H3AVqv1sLxrovOC3eMJ516hvdzjCPuwXM5ibl28MD/4KUXrT6w73/cidOhBx0ccw1gJqHJnhVfOhqqT7OwGuR7MTj5zgrAOGq+lrN/AoanInri6Thjd6nL0zUzQO1pybsAEdI9Gz1yw9cJ33/thTG9vcfFj2Kir/9opvTZ8YTj1x+E+OyO3Zzr/PQT1v9J9c2X2zsz+6GCoSmxxoB9mNezT40cnDRS5QHpGdMMjVT1xAoUsu73bwcV2JdmH1l0zRKH0KlGVm4DeL8H94VD2Q//s+daES0eUZtF9jb14QiNQn5/B8o9+FB1ZvTJ92IEqNVRbOKN52/4+iAehNaX7+HtF3423DGecOpZ7AOae+VpR2gjZ2lyBDz6Hu+/ZP13xz7mlPbrg5hM9jQ0hqhLI5X2IfU5s4FnqxsGqFmo9Qify2L8EHs9PfGE3MRM+/p26Lv7VcCbv054IfsU/kSvOp7zMY51z4846jR+s/wSrrztxumzN+Lf39Htqz3x+DNXf8rM5bdcP33iOv0gcb/W3caSNSFaFdoG1feEGVEouosdtNCezNgS5Lk+CkC9O8A++E7U98PQKYCs1/Ya2Joj0TUF6qZUZuw5M8WgmKaPXv756eqbl3/lEn+aDH/INe7E53zm6iumK2++kfkI+Ab6rzrpXqV/xMjKZ4Ch1aEAClvyvovXvz746HudPp8XLGiflzGbUZlp6LLQgJnO655htM8I61MyGMg6cf/07Z/S5emNNdgWGoXMTq6DFY87dvN/mMFLYL9pXCPPrxpuaDBG1Ts+cPfu6bHHrv8E9fdceQGaY51d00G7D5yeeML6Z5L436PoLcG5cJSHDtY9xeBajHPEQz+CIuk+ODdY+Siyn/oodlCA/c/7M4wVH8j5/gzfB9vPzDwGdQWOkqMx8giWxDFQ94xU2ocSuGbRhPSAAelBH1vAXqB+y+e2/2kyfi/4+uD6f6x5vD2QDjoAf9X7NbhvVp/vYzAPNjR1aXTg7+D3f2H9M8LHnXp6rMOpDbuRNJC9UlNiYN2GYJ8bvrSZqg956ON/jeanpZ6qYNXFHJ3l89+YeXo9P2PJxYdQ3bsYYbDNBsijDjp0OmPlp8zcdMdt6ed5+mr+b9ihyTrC11H6nLP7hOPWH4T4OqFNYi/Z4mkbvo3irZd/slynBhA5PJacuTbh7HODk1945PsZESNqqlviVUXpir7QpS8xfHH4O6ioexeBnEfkrNkBLr3yEyPZz9HsFY/E2LPGV8gPDUZv9hLzlI9m1cU8gxsfY9J+IVfBTaiW+hC+RmLz3rzh+wfxTfS8hgXnGb/rovVvm8BnkM2VODcYS6jec/a7vo9fful0023LvyjhrGOOnY4+5FCfgRMLGAqjKOYZHD4Fx6SR0kdeV1D43GD6ocUjPzi+RqiwIWtglPcRaNeqGlS0JaVO7p7QZjz6mG2+Tuj9/tFKhHnOccAndxE1G0r+hA3fWH/2VRdM+B/rmMZ5xpt+ysxHrrlkuuY2/JMFJoGwwIAB6ZLPA0RI9xxeWYZ1v9fq4xV7nn3fm2CWQ+Po/cQ7qOB+cG9SlP1TpP3jnNClz3l/h+8JkshHob4+byL2GYd0MIziS/vQ+IVjHROdHwE35aXeBzz5QNQvu+mG6eNXzH+UZMYzz9JPhsHpn5lt+v7BJ512pl9R80rgflkKfyGyF/k5l2z4Z9FT7O9wzvFJZEO+95kv9s6mbkllN1yXfB6+Vqcz00OqrxECeFj6MMdCuUe/hNJ15nPZMyZ3TY88+nTqJbz/Kv/nUcCf53WVMWMc6cr3PeKE6biDDkPLEDffcas92C4O5WudcMjh04OOPJn5Ev4G/3s0+slMk27Q6xZL3TOOZNFP4R8R5VrdGWCkC3u6g4C2A8yILVIAc20ZT6+I93dgF7QTzG1QTQEwtyHrVY4/HLXedvR6kWOdoU8vdMmXAvD8by5Y/08y+Gkyxxx6mHX6PDB+vNnNK5+ZHWf99z7meM6o8zxUqdo4kqIz2yC96euDj7mn/x2u/oq0CCGxwGv7XFgBVO1Tkx6yZdboXyNMT0aCT8zQ5GgJv+qOabpWNBpSrNyG4od+9DHrD8L3XfM59gF8rsc8LNowfDfZV33MgZ/Yjscfv+GzQnyd0Bcp8fSTNvyUGTwI2YvTueiefXBmW2jIzHRDBy/Gmk/PrtbUpeGGBmNUPfEOKnzfBgGPDZGDo9jvp/aZsR/D9yjeF4tuc25VCmoj1WeMlM08ox4iGqg987q46yt65EdANrpnzg1t+VsvWP/64DP4v0UxxecgNn3j/VPPuHf0YioOzWfi9Qh2sM7TWTqz4X0bPiN8/OlneD9EzPWIogID8zmDGt1z+J5l3xJy71dW0LeIzwjrkzESlsoTk2P1SfQTe8qR01W3BKznb8PoGfj3OvTo6YSDl79hHT8MG/+Ls67jQcX1/CirRk1+qXf8xE1fJ7wC/0XZ12NYvun7Cd995fnTbXf599r4tZBgfmgxyj2XPseMmVg3ehCuglWTH3Uxjy39OHjSD83YgdDsY9mhxPClITrfT2fGfgzfAu1NhA2FkSDn4XUM2r+yv2mfC/Nc8SPzExpJcA7VwAO/mWtBLeYYbLWbb7914/cC8odsY4mYg2PTnCechq8P4khXxNyyDpdkeAW+tOdkJ3Z8+srLp2tvXv7h3qccedR0wmH4Oajej7MsRBHMNLhciILhFRt5Q9CJOXac+zgO/NDaP2l/EPqDchZ4YBJZZw6vreMJm33TYBuz70/kYHddB2/6X5znXHNhnR/B2Vn3HD7ZDq9Dev3JGx5q+KHft94Vvyk/5j34qHtOx6z8hmb8dPZ3X2HvrNHv7AHywQGb9Z5hIo2k9fUaQlsCriFtzPak1/yyDtgDDd7nBxt2UMAt4v5gq+yAFqOefTcbnzqYsR+DW6CtAA+C+4Uja4pgzk26Z/lgFkOj1PQx8ch5Hz6xaF8raXpIbYBi3TW+znfbnXdafQz8NJkHnXCy93Mufln5ndMHNvzPTX59kNcYhPlZ+70kHT45Btzrps8GH8WfL4pm768XgtvpzAC1otW+fxFQqvfsE11ziezTYZ79+jXCAfgATZAcsg2rfmE9hxX1uQxIb/wPM1fp547mVULHRwZFrwUo8uPsgXbW4cejMAR+pND7rsI/RXCSkfMzT1r/5vq3XPbpdJ2KVlW91xwJqEbdAaDoKLjqmOegnphNO5ih3526b45N+1n1/o12VxbYhiVfKPupd/jFGXvSpwCybsOv3WvLeI2k7Xjzhn8W/eoz79v0I3uPPTzxd9ISHnDcidOx+A0VBnUN2Yb8d8eIC6xwzsWbvpE+f2krrcQ06TVu3g4eXrGx7B9Iu7HE6my1Dml+jTAejPWJCZ2ZbltvIrxZ3gen40mc69JwQxtv+jrhe6/G9/Xh5GSfz9S1B86suxh4T9zwU2bOvvL86AU5P23TT5m5FF8njH5De69gFHkSLI8ie5v6iq/99SJ1eNQ+sD5kH2Z1S2zYQQPuT2Kk2jeKpKNB7MXQKu3H0LYUjoG6Z09dS0SU/QUzDZbODCTNUtbhe1Z9f5slLn7i7KcAwH+z6afJnHmfmOP94LMvWv/5ovhnUfQBJMwLwfqIF3w3nN+34eeaPvrU+CSG82wI9rUwAKHFyfdy9i2RJit63UXMneVNjVfwzwjLRwNI/HQdY9FI8ARGDxgyfDLqYvlLfY0/P8487LjpqIOW/8kRP7nl4puuZi8WxDrdVbwulh+skM+w/AnHrj8I3305/k0evT4beNKJZ238KTPnXvuFuDYuhevFfD+9LkYt6ugl8wimFzzyc5/8pi8O+GQPKvb5gYbCyY9Z5B1UcEe4Z75DXrOj7KP7US1+0egLf3+HdiB2xkec3J/QPfMMbvowRp1DBFTZ7xTh00s+52ZWH7SYY/LFnc+D/jR96NJtfprMWTGnXuHsDV8ffOJp+Pmi6I/gPYA9AK+4j4EaZzQURtFw4bVXT5fdeAPzEY469NDprKPxS9Z9Hb+QR1y96vDIFvILj/xgHslnKO+P7M18ruCfESrwdCQbAdSmSp0sHVz8lv2JGyzds3wd9Gps+ikzf3vNxeyzoTKMrP0izryGazaqLm3DY49b/0z0E9dfyt9Af9FN10z/+4L3Tv/yA6+cvu1tvzHdhq8druBtl38mruWXI8PIumf6do9gG73u7HsU7K5rce9L01eo7kE3657Dp7aj1vcPbHqt3CHuCXIOoWOfQrsbmoP8YNQ2YPVrGl8GOGDX+ivgT/rglmBPnKWBdv+i3nPpi31VXQE35aXeB7yBrzU5sERR6kMe+G/b8NNkbr79tukFf/Sb0z9//Z9Pv/uh904XX3cNH5znXnFZdIyBf6LEFXmZQfAefKiaZjDnJm3nORt+vugTTz+TfVxQ7EnN6c3Dr9npzPSQ5ro0zqqNGp+pmEfo4N18JAaUbs1M/KnaM8aGvblqjgNmn3c9asP3E773qvNjXkRco2gGMGCm8/o9Djx4euSxp4Ye43ve+dLpm9/6a9MvfPyN0xsv/YR9ZnpNOMt49cUfma641X8e4PyqPgzrM25eMZUYGOnCPAf1GVuktxd1jngbeW60n0B7tAb28PTeJWZTYQWQ82Xc9WX++wjrPoxRdqO8Hzr6/Rvv54Cbvxs6Lu/PgPKFSO/7S/eyyOW1VMbPCH31pz5GvYaLr7t2+uvPfnL6hXe9eXr+7//G9F1/+rvhjPH4U8+wzyQPjCvhWgO2QVrodWmKe9/09cFHnay/O7XSNuyhv/uLHrJnuJ9GZ6bX1qUzqwNj/Rphxwz0przUm4inKg7pnjkXAmetU2cufejZNT3q2PX/MPOBq/E/R72/CSzoi7Kv9VmomjLqwZt+ysylN18f2fY474Yrp29/629O779K/9vVg7cCUi3nfbBd+6dI+8m5odGtes/oW/WZOJV8HHqX2i+w6aVySzAk9mFWx975HBaR1Lq8FXy5/z7C+Ht1EXV7fF/KFoVWA7Vntd4zIJ36aLHuQW2mX2PAnLvJxxkH67CQJ+bh34v3LX/00umCa6/GhfcIl1x/XWRj4J9FAVyPHAN1zwJ0cI0oBm/8+uBp/hNl0O/XSIwGaVOljiSzL9DUmwhvljMwJWleItcrW+bajt18Hvpj0f+cp6epv6+6Tw3u/Iaz3/TFwVowmnPNDnVbkfUHHnmSfYZ2kNXHOP/GK6crbsFDyeeW+QpeA1CedPbBTF0/4fj1b93YW+D7H3/8vS+fPnT1xfWSNoJ556wF21DqPWd/1McalHzpjuFZUItRF2sdeJ3PsBreifYbbPFStT++b6Gxj9q/YIX8Uiv5Or7cf0O9/0W0DO6LmNsSWpx9Bc5uf5uQB7Zo5kKFT5af+gqv+srsYF91MuNXGL341X86XXvL8vfj7QueeJr/Xwe/Im+Dg7/GXE/M0zVeF0na+LIbbpg+d83yQ/uwgw6aHnj8CT5X+yLmGMy1Q498cVoH+ezIXvG1gh2sYQnkURd3V7TPCOPpaMH3zdD4C87roTOzfVDPvjT7xkE3657N3/TPo+dcjY9Q0AvCPGeWxBikKZPO7MP0kKPvNR16wPIDeF+A7yt80Xv+aDrvxividvyefQ8GvOZjtnTT58HVkceBBtZ75tzQsz4uUgIya39X2k+w6aViS5r9Q5o03NCKRsdc8gZ8pf+G+mm3fYzO7cAQbCjMYugSoZG4qLwUyW/XwhXASEOTpXEmxkrJZ5r6jLxufN41V00vfs2f8mt/Xwwcecgh04NPOMmvXe7JDGmmqg+YDaF9oN702eBjTrW/qznPw+dGQKkuDp9cfJSiLu2Da3TSW+A1Hwc18uzH19z1LlnYEuSu509PMVCeutKZeQ7qM7aRfzCgnBWbvo3i/VfjmzvRCxgzTXovGL+W6Z6HHsX8i4Ebbr91evG7Xz5dfqv/7ytctUbdAQxVszJmnit+5thnDyDrUQCRl7+85EnvgOB25D0SK4DIh3uZ4ysb+EtpDbvKN5drLxa42cclVgBJN38W8CdkpD1Db6M3MLKRvvymG6cf+6uXTzfcdiu9LwbuecSR/Ese8DtYQdk/QXrOm74++Fh+/2Dt98zG2Oe6CyvMM9elW84dYn8bJb3ENrR1exD6k3ElylN0zkDReMdWvWf0rfpYgwIZWfGYDf+Lk99Yr37OBSlPmmdoH6wc9Y7/2Tl/Op13wxXs+WLhkpuvnX7cHob4DNEu6RH34OxFaqYQidk0YB/GPq9BEcFCDW+c5334REvBOyjgtmhPjJmCFZAcyN7quevE+zu4F0ycpTMDSbOUdfi+n9Vv9hnsE+Z1cXiMnDPQEswj6Y5vvu326UWv/pONX9/bV3zyisunn3rdn+OGeD9+U4MAeIPKEaFxz6xV85zPb/iM8DT8Rxl/rZxf2BIx/YVY8xCxds2TLtfiFewILU5+w/Txv5TxVMQTsnualjo5AnWyjuSLk6/VdJhJn3Ux6uKYm/sedtQp08G7D7R8jE9ef9l03e34d3bvJ2IumSWvc+3IOIbv13R+yafe5j8oew+B73m8/5EnTo8+9vTpIUffM6rr+MS1l07/4pxX4NK8Nm/HBmpxPuIe6UGoHgcaCstPfYW38JGTcw5OgbnxrrR/YONLrfvIsP0p+7mwf8zDVy95A/aLrxHy9D1hQAU3EX7pjTo1xjxXfRwHffAHfTyiRi55s4Iz/dDJ/2ev/7Pp3A2/Zkl46En3nB5zr9P402GOOuTQqG6Pv/7MJ6ffOufdfmWcuBGDmEWONF2TInen5NfcfNP0qSuWPznA/1B9mN0z5/FFY77WCY61fX+8Xjgfqz6Wjpx9cQVxviL7gpGgnvogoly/RuhPWfxZT7pwBPySgztfEYcJz6JODY4aNW5EdbI0DfIjjln/doYPXB2fsqM55jcssDYIwBg/Pu03Pv2OKGwGfkP9/+fhXze94dk/Pr3xa358+oOn/tD0P5/4XdPvPuX7p1c/88emhx6z+YH4zsvPm372g6+2W/XXSrZ60TiYhy45ReNTZw6P2o5SF9PHXdCNujMLYgzSlJ3egcP2gzvJ/fHQfpeIvhrSNDq9/8L3TRxhhdl+5vAJzsqZeq41o+gaWdSHvOb7YFqBNZPmXI+fefNrp3deuP4N8MDDTrrX9Prv/0fTy771e6bf/OYXTn/0nd8/veWHXjS9/vt+dPq/nvE1/Nmh2+K/veut04cvvYQ30r8WL0or2OBe+PI+8Hn9CroxHnmvU6zNexs2tHVpnEmXPmdPE4dP3TO9iJx3ATQ6sf+vUcv1lMwMjLSfofmoVZfq0svM8Me05yWAljd9G8X7+fM/gfH8BoMScNPtt07/9oN/GWodDzv6XvbQ++Hplx/3ndM3nfbw8kO3y1UtOfHQI81/4XTW4cu/bV/48ws/NP3aJ9/G3PdnS+YJjbHlJuJtNA4gMdNBfYH9evsJNr5UNKzElu/vZKUL+Er/9olmL2ZsMdzLQYAir++rrV7kuMbGPoQN0MwjAPBL3vuO6c/O/bAXVnDf406YfuX53zadeNjhzXzghMOPmL7jwY+YfuUbvn162bd9z/Qg/GeYLfBv3vBXkaUVmfZXWGDuwV3T+z6/4Qdtn3KadXlv4bx/lns9dObBPiPrmZkljSYj86HRK6xEevfwKWsGR561Tp0ZfW52fmjODe1m0U3AC38e0/ToDT9h5pyr7I3EdhuAmOfXSuwDbW+r+n986q1bfX/gD9zn8dNvP/n7pvsfeQLnYSnyII46+JDpVx//Qj4UN+F/fuId019c9GGbh8mYb4OhMIuhe6ZLUXgx1nx6INe6hmucwex1Vr4/YPNr5eZ4YLeUR0hzH+Uja3w65DWs/1yWL33YXzyRLUF7EMz9cfZaaMvb/Utc+tZ8pJ6TpTPzGNTFnBs69WH4i09+ZHrJ+96JG10FfnXRr9lD7qhDDsGCXIfMdVrGP5v+wXd83/R9j3gsulaBb3f49fed7RO5RmWuyUWTzkwbetd0zkXrD8LHnHoa+9SvoMahWs4ZaElsaw3rMDi39kGw3jOvkutMKwPSke+68gd+BV/oCSApz0xT7X+PxyJQ6poxfEsW+5IvyG/QFfAfSp76xl8MNcbbnv2T8295KBemmiP8z9987fSNb36J11bw/zzyG6fn3utBluUFdQG9sKSDz7vhqukH3/670/W332J6Hb/8+O+cnnQSfodYv0piSzb5Kqg+RJ44whb+U/7ilxb/G/g9Djpw+uFHYr++MvBbH/j4dNNt/rslR/jRhz05sg5L+7eCV5330enC65a/Z+t7Hn7/6ZhD7S/NL1P8yUc/M11yg/+kpRHe9F0/xt/GTmx6PxS28f8O13nnRedN//hVfxJqGfga4O9863fzZ3Ti71v/e9eWt/Xx2RL+4q91fV3eb+CvPvlR+6zv1VhmEfhe7Nf9wI9MRx6KrzVinqB1Aguv66Zbb52e9D9/OdQYZ//jn5gOOSD+L0c3f4aF68ywoc/3B0loC8mGo488830/d131g7+KmiN3jLDJF5q+foK0Me4s657TK/ihd//e9CF9LXCAX3nsC6fHd98Ir9WYBA2uMr3kk2+dfuPT6x+1/fRDnzN9x5mPmj3IG+SFO7zvigumH3nXH4RaBn7A7kuf8j3TA4707wNaxcr1CPq6YTUOeMHXHzy9HeofSHXtmp7857/ID1R2sIO7E2/67n9cH4RCfvcM4vtnFKT9/TRpOxqG37w/z5kXwvs9uKDTkuAO+DmgP/Bnvz/dfNvmPxu/+YIXTo+5Z/xEljUs+L/9gfdOv/iON4ca498849nTdz78kYv3C5SXY4nawO+64PzpH/3ZH1s2xiNPOXX6X9/+96K/3T/tc7ti9bf7+0lSyQJgryEv24H/axRYZ4zGPF0res3AiysaGOlgpoN6x4/e8PM/z4nfT5ih2Uws5qs6/urij0Y2Bv7Ty7efYQ/B0OAadQcwuJrzo48/ffoPj/oG5mvAZ1cvftfLp8vss1Sgru7r1HzbALZgpm1d9+5vz6prlx872MHdjfpehWwc9X2v1c69Tjx7f54zMrIlnsvJeswXX3+tfSb4x1s9BP+fZ3+9PwS3Rdx7xV3T9z/iMRu/Zvi6T30ibnJ0xx5e4as2qvq9G76RHr+It8xL2UhnVkevZ2xDW5cesJI9BL9GiCekP7UTsxjaou2LQD14MdZ8eqBUKxpnaBsetekb6/kzPNnsjLNwDfdrXHzzNRt/aPZPPuhZ3m95mVty7I3n5ZpMIUIHf92pD5l+5AEL/3yWcMUtN0w/Zg/Da2+/OdZRmFlyinEeUeb6REuhUfJ60T64RmfTlxhD+Cxh2MEOvgjAexbfvfi+xnc2f/8TY1S9Zx3QXMJzD+ng4g+Ya1SNodHhe4Zh13TdrTfzIXjFTcv/7Cv848c9Zfr6BzzYJyuArHMAvAGwwu5h967pJ578NLiLeO9Fn5tuueN272clvwZLUNd6UaO2/JyL178++NjT/OuDs+A6WFJ50rE2NQ/IxEhGPPSZEtLDAEa5xW58dKTDn7iJ4fERmxh1ccxt+qAVyWcol88ApTpLXve1PHvUsesPwg9fg5/fGfO4Xp2PkUFpVXgIU+de8wUUF3HfI0+YHnmc/48oroGDc4NtKPXCcciPgPsjD3gKH4ib8Nnrr5h+8uw/4TpYSPPFCvnU4OTTS8G5PDHIDw3m3GCeiVEXY27U411zBzu4m4H3MbyT4b0M73cDzn7XxwM+KvDCrx1RL37UxX3fmh8B85+85pXTeVdfBbWK59sD8Ece+8RYwdfy05kXIjl7MTj5zndNTz79zOnex67/D/Xzrr7SxnrXvnawRanrsNotd9w2nXPR+k+UefS9TmGv5rQHlo4cjEup3jP7gpGoHoxiYflkZGLLcKoeScwsPgdw+P6/RuPwJ+yA4Upjlupk6eDwmaR6GKXecgQGciD5hx90sH/dbAH4aOdv8ePWMCXmkJFmbUPRRhfcuP6T37/65PuzD68M8/C6Z5x9skJ9Hijg+A+P/obpUfZw3YQPXHnR9NPvw0+IiPlxDR+ci87sg2sx0uzjLH6UwmfZ01b3DH8HO/hiwN7J9P6o97T6/tmxD6439dFXRF2Rvaavq4EH/r94w19M7//8+kMDwI8i+4/P/nou0tx7Yi5ISrpngOzx1DPvw9ISLroW//KF+R6+dsfoSPqjl65/ovDgk06eDjvkELTbypjj87ES2ZeqdTA8+eRxwCRlnRmpNAW0i+p7wiux7swGsSG+RogxmE/IGqrXAEYa1OklRh9T1YWBTqVNDw/88yigKbqdogd8dfy8zyWcdcRx7PN9cO71ZsZozNP1Lzz+W6YzDsdvcl7HGy4+d/qlj77JMp9HbLvPG1j3KEjPupFYzOoMqR3s4O4E3rPa9zhqnknvFStaDTC3IetVjuS/vOPN0+s//QkXKzjrmGOn//r1L3DBuYsrV0a6xZ/50485OvIxrroJvwWfizH89SeOa+T6+zZ928Qpp0ZnWsnWKStZ4l5o8pLu2IYlv8GwuICyj4Lr+BohntR8PMYTs0aj/ZHqrJyp8tDZp4x6x37NTmf2gTb4MRu+n/ADV9lHY9HfhHkM5eCITb9Z/ogD46MdDAbcU9E9w5f2IbT2MbQl+JFs//2J3z4dc4h/M/4afvdT75lefv4HuM4sgMiba/BMmm1J80wsP5gtpT8F/axR2cEO7mbYO5e//yXmOyNSr9X3T+RIE3OJ0D1nP/VhoB9BbYTBdcdIjf/oox+Yfu+D7/XCCo499B7T//iGb5sOP/hgruERC3HRxKh37K2dTrz2K+uAO++6M/rxupyLzqHD8o0PwvL1QSzVsmWt7jl8zzDIZ1rZU9cSSwGM6ggAC4b2a7jedeUP/cpdyPFcRL1h1C3hhID8BrNCh7Ig1TI2+FfdftP0nL/+76HmOOyAg6e3POefdus0r8g5vbD/9vE3Tb/zmfdYfYx/94ivn55/2sMsy+s48AbmR1Fxve4qzf419cQfvvqS6Ufe/vvTLXcuf3+a8Iv2WeTT73W/UAPkhUfY5At70PebH3/ndAf+gO0Ntr3OttjXdb4s76c2ePtc6/2UDG3HJta6rgPlHTr0vmJlnR94+OOmQw+yv9jXXj/qa76w7f12fVpeGP15fsNnPzH989f+Bf014HvsfusFL5wectLJfDvUFQacL8T6AmAn/M773zv9wtvfEmqOn/2ar52+6cEPDWXIl13AE3/1v6/+79c3/8iPTUffIz6YX1kHGO3fkLfwVejfXxvOF9zg77rqh381vacDahTaCdUf8GJfoPgh7cALEcostGWd+Fvf8uvT+TcufzH6d5/8/fWHXqd1hjDjZfYQ/IWP4Z8ex/juez92+qmHPivUAvINrmHo3zW97QufmX7y3X+68Xe04Q/Trz3lhdPDj/P/rtxeOHHsf/2LTW6nLRnMbn1LuNwIecIa9qRvDZvW2avr9BOkbZ/shfv7Z2g79AePDN82aPEBU/y86uBqubCGTX2jC2Rs8oVNvrDNOul6kgL3ZW3/xANfCzeaG9lcwSLpOm2MTb4Q/oe+8Pnph1/5B9Nt5VdGjXHA7t3TL33dN09P67+Gt4/34/uHxPW/fu2rpld/4uMuBnjJC759euIZZ1g79k3Lt/uX9Ycv+cL0PX/4MsvHuPdxx0+v/P4fsCzml3WMCNU75PY1bOrbk3UG0HQk/FmjDO4oy8FJ02Oylxwo6ziw6RnNLBsaHfyY49f/eRRfJ0SfAkPWuKZy4F6Hrf+7+pu/4L+Jgp/5gWNmw0xzXQFkbVH2WTFNTz35PtNPf9VzmK8B/yHoJ971p9MF1+N/fwE+f8g8Xddqr31o9AKPAkPRLES9Ycv8rJrsqDq4e19TXXrMESwlvRbl7QCkOuGse2/0nnB5n3FkVgDMQ4y8fWNlBqbLnYWRdm+HRS77mOvj8HtJuuzPFsyzamQj7eyhjqo3sA2rfuLzr75qetFf/enGhyDwb5/xHHsI3jvUtldYYw/fvtAm3nb+Z1FYhL6G2O5WzTjydH3Ohp8v+rhT8b/pAe+vbBmTpDNLGFJ6N6FfMXS8r1W/3jNO/vYJPhLBfc5AKXKKpBsfZzB7g6UzY2h8iKTpeQDKEZu+jeID/H7C6Dc9z+3qUQMeseEb9S+68erpnCvjexR5BksH+6I4WSy65hStTvFtZz1y+uEHPAmXXMW1t940vegdL5+uMua1Df29jN4OtFKfp6qzXOtNLVh5ChSLL22kurMXq9/p4qNQNRtUlwakaUorQntiaeTh+1q4g6TVJ52ZfUjn7GnSvHTUe/bOeV1ML2418qIzezqvi5FKU0CHKIEBiLq49HWcfE5NPsjrqFW/aM4NDaV6CmodzFGKnMGZztDFHzCPqjGwLh3roMll0pk9ndeDr7r5punH/vKPp2tvxq9/W8c/fOwTphc85GE+kWtUBhVtA1LWO5/c+JaQ5e+a/urcj0/X3bL8IxxPPPzw6bSjj2Gv78cg6GFJ1+dcuOHbJk7H1wctYX/iWIfaZeuXqP4wgFEewTIHR3+NosOkNlXqicv/GvUnI5SzP0HBRhwUINRDs+T18oylF8yz88XFZ7HWFWGwDWHqUcevP7jed+XnYr6vRubcYBuyf9whh00POOpEy5bxu5/W7/WKWWAsRpV45Acr5DOUh/eiBz91+rrTNn+P4cU3XjP9xDtfXn7GZ91HrJOYazt7CwcynMJeTn05Ui889Kh35IsxdL6fNKtPzl3ZT4y6OGq5r9RSNB56VReHT5Y/60MJda+I4WSfGtz5Dcuf9UWoBmYOVg/G7IcWJ9/P4JHPMXwOEchzqBZ+6Q2fGmPnl7o45uQ+HerjQQ8tykOLGz/q4r5v1UfuSVkTmuyZ+2gJHXwTfvLTq/5kuvg6/8lPa/jGBz1ketHjn4LJHgDZo1w5aryGheozzn7X91vnnG35Mp5y1n04nwc4582BpY0t3rfhG+n5P0Z5K+hHxecXRt1l9b0h+TDlgyPxjuJzACffs6TDZ0WMOrPwyZbQr8zfUM9HYveUjMdoqbccgaHkwaMI+NoDphkaqepk3RPP6Z6HHj2dcOgRlo1xjX2mhN8ub7M4zz+66dj6sv/1p+I/wyzjLV/41PSxa/B7vTCHkypjtaZuE6TjGj44F81SYtKu6T889vnTY05Y/+df4KNXfWH6V++J30KN6VoKqXTPNEMjVT2F+his+T03TC80joU+NGaf2oVzrEPtZtVgzg3ufIX8UgOUM6SDgdC+VtI+lHpl9OAMzUVQD41CZifXwYsx8/GaIqcn7YVGh8+6D01fYfTJ92LXlyL8YQw9lD3XNWKwkusZZ1+MMzHT4itUj2i8QcgHD3rLtcKn9qHxaXHSNP3z1/zF9JEN31sHPP60M6Z//+yv84UUQMlTvQ94Fn7NGtJ+j6ENf/3pT63+0lzgmx78kJiPqZiLNBjaekrdhk9fcfnqZ7ynHn30dNKRR0S/B9eGmXVmpLM6htAohfZi0pmJ0OLeN/YUdQ9qsnTl+G0u/uxcZabSQui+vAAtofa95ccet/7LKd93BT4r9O547je6YfuI4JtOf9h0gH9IsIh/8d4/m66//eaYF8EPMfoAOs0+JpvZzl984rdM9z5i8+8xfOsln57+4wdeN17NlyJmHEmuK4Amt6T1PJvrAfMMHReVpsmRTUU7K4CsLYZ7ngMYaVCrh/ci5intGGo/Q1dWAFnnwED+/3f3HvB2VNf18BZCqHehhlBBICTRRe/V9N6baxL3GseJ7bglzj+uiQs4tmPHjWJ675jem5DoICEJIQTqFUmI9u16Zp8zZ8qTMNbvW/eeWXvttc+ZmXPve/Puu/fOSFjPGlRtg890nLVxymmG166Fx4EgsW2b5Yv5cbolU1Q8Z6xpXhshaE34/PqwwbaJ8K3bboL7Xq5/H46w1cBB8LMjjlOVWQOHPm+NUGhed5jnYu8903cD/+OOW1FXY8yAATBJv+9HiEdAxnUUjiwfbfjaxKTN5D9z0k8ZF6YNqQ6oNBCRVzViM0tU1oE5II2vCMNRlYmOkBmmBd1Jc9ppz7RgnxYub5pN0ZzihWqXY7Y403YZ0PQ+4StYR8V0pyM+9VPtGUHct2t3fFXoPlacwWurl8NnH7xMvuYgAxaNBpRBC65qBI1tW0TTXbhXl67wq31Pg8Hdm69jeMXMqfCHaQ/pkDYOxaKLuKLV+ISgWVAsovAlsG0vfMfkm5YFJUQrm9ZkoUPMItLS12n1ZZ3mU8rl+Y4L8ymK6tih8sg3HXGos5Zo7puJtVGSWcJCp0yhaVk4X3QoVJ91yoRsnTS2ZMGNQ2bzlck3nfOtcR2lXC5ospymkSyfMt/KeVqwlpADImbTniUs540pVM3gPC0A/m/yQ3DN80+rUY0hvXrB/xxzMnTfZBMdU/qTkLETRlPW4fOqua/qqE7amjffgs9fe6V+Ub4aZ++4M3WTfqilf5kxCn7TadXo+4PUifvxGI4NLh81Qi5OmoxFgdO4CMy22/Yqnzjxwz4T4y1+RUiHSD1KBmYIh7/QtC5zjBUmMl/ujMCaY43CYmmm8YaB/bXi8zs2vE/4yMKXpJrveKMxaDCEMGcLxtxHttwDOneqv9zpk0vmwlfxleG7QJ8Ui8fhpmOX4ihHocSybk5I2hi9QV3xB2rvU6Hnxptwrg7nPHU33DznuaK/NV4HsTbvWZ5uxBwTax++OZ9V7LP2THcqNh2YlmwWmusKzU1zzD72Nc7nvs63scLYXCdO4TvNdar5XmiuMB9ZhtJ8yuSZz5w0yxHjwvKEMAYt1ee8MbvON875xrIi0cwVLdRJkzGcVs/GND+w+TpOyLsbgXxudKNSdQKzZ3UZ39j7UZ00WgTmQHXEZDpfAxmp8HXB/s3Tn4dzHrqXdR3oi/K/OvZk2LQnXT4KR7JxKMAm63DMBcrm19WRVp++u/vPN10HT857Db1qbNqzFxy3zTbUk8cJI9FQfMswmk0X4p00nM7yhfXUgaMM40K2XWIhq0CEIiLLFyypwhdpIzjmQu+bTpjq1Leb+fKKkA+RjmlhWmWuBdtrz2w6nTL7dDyWWPLxEZuZfdV4G9NrIJ+ZpQoL31gJc/EVHHWUcaQRmE07plOpHT9ye66pwz3zZsDPn6EvrWp/SvIYjtlTzdJpx9zb68CUA9ii90D46V4nwcYNB2jCNx+5HiYvkicvD+PG8ZpTUY7mQGP2TJeZEDQPrPmUqc58SaqvTFnT6mdb1qO0xuyrZnKa7sacdLrkk6ma66zRwmkpc37SvFdZJ1tDjRaslU2zZVoWsW9MdVlfG/khdvm0kZfxbUxemCaV+IGluJznWgqd1jrOh2Z12kI+ad5zMYkSI8V5SbKmlGlZBG0Fk197Bf71LzdwXIcuG20EPz/6BBjTf6D0xcZDaCyaE8KmPcsGJHkKvS/6v++5G+6eOYPXXYd/3Hdf6NK5M3Xnfsx0M401EhdtzrIlsOD16lNP9unWDUYN6Mcx1TPrgnXEFEjMWhaumVamhdeeCU5ziplysi/CbBT5lL2vvBEfFGVRw3nwgZhYqJopwFbpu0aLEDPbcVsgCmDXQfX/Hp28eDaz1adsG1+M/i58bsJ+sGm35n9H/mn6w3DNy09gpGOtI4dtIea75QWkJw0cAd/d9SjNVOMt/Avxi/ddDjNXLOb+1ghB4yLE2AiVrEGxTY75rtoKTSubzrM2Tjld1+xJxHB5QvRYSiTLDPM9zQu8lpbquBFymhaRrmMNirxFgkI3cPI4RFw3d5HGFmppzcSEWAunOmG+F5qioHEdpoWlWUWhkTUIuiUzUEQ6i7SoENMWLYTPX38lvNXwXUH6RfqDw46GnfVVkiDsbWiyL8Ve1zLPEWnJFD7AVU8/CedPeYzjOmw3dCgcsfUE1zNhfRw0FMb2aMO/RfcYVfNhPhuwNVwHDk03cNj2Bg7z6POmC45eEcoR07EshLlMNUlm1SIlr1zZ6vzE47ExCJp9Es3fJ3x8kZ53VBahHzPBtCS59d6kG/zXric0fnCG8B9TbpFXYNqXR7IxNRfWTQuqiHzHshCtdWypf9iICfC5bfdjrw6vv7UWPn3vJbBgzQrqpmNkGnnUQWNmTTJTaFoWqDPMdaK5g+VNE0yzadqaagkwtLw007INql2drSvSVKGx9yVUNp2y+XzzvjXzpdGCY2JNlhgpmyemsJSnhcQE1hJpPsME066OLc5LI0mmrKPwg+a+qqO6xLcbe5SyWDV7mudVOJ2y82kR8qR1HCoSTrSkhHVhvjXzGRY7nwu8pgXe57++Aj55zaXw+tq1lKzFl/baDw4aK1epofFknbatxDSm03aTBHPUfC7xH3x5Nvz77X+hFdSCXqH+52FHYR9eA94QPEaGeR2qkZq+P0jXH+TCtBFyeWsEF0fbgM1vAyVYG1Pe+6bVl/kp8jJ3lreWaO4rTf7nRn8O8N0xpVMOdYLC18YSs8haSqpgzinjgvPGfKvy7Wb+u43fJ3x88cvUWXoRY9PeBWf8if2GwDd2OIyGqAX9j/6LD14uZ3mxsYn5rprZNLL3jSlvzOMISykvmD8ybnc4ccwO7Ndh/uoV8Km7L4GVeFDkMWgszNOyxDp2VZ3c2WSfIOyrvO+Y8saa83W5xp6vtbyxelbHeb57nyyJva8Vwuw7tnzKwafY+0mOmGPVynI3n7KOyTRu8nnJRepLHPLWvEe1PsdKOfFD3lj7RHW8LJhv5FGJxXxzlZxTtromP1snjRbiSyNIhTLdudBx6ivLgKo1kvBdeP2NN+ATV7e7uO5J22wHH9ppZ4xoJB5Y162MLeQd883VcUtvllN/xuJF8MXrroa3W5zN5huHHAKb9++Lvd2aeRzVlLC8MiWJm060Te8PSn8ZUyNdIlNYFAirz8whVhLjQqQy5TlSnxkD9jVvzAXC3CivHN2cH9jfMKevCLURjBF4oCw8bKaJCKyNKc9MR1inMSCWI2/hyxG5yGfZfLsFvxOM6zOk9mzrs19fAsveXMO11DEw3iKNFLSu49iR28NHttqdx6kDvQL7zAOXwtK1q6krj8MsCx2TAmmyTpGiKVA27ZnNQn99pw/APkPrrzlGoH+P0r9J34Z3sC/vMTbZt8CUz7HzMVSmHDKN43XK3Fe1dA7amtVx45hCih2zp5qlaBnLaVmEfMFUQ3entZtpa1oiTXOl5r1SHe2TxjyOaUkUPrkuL4uoLvjE5oupdcqaY+3iUst6lJZY+qpmEl1iLsrkvW+a66yhE2Js5EV+0ryXqZN1MHETLYmIyTIti1IdBqJlEfRb+EvxczdcBTP5Irb1OGiLreBfD6BTI/IAOnbK7BQ+RanvWX1OufyyNavhk1ddVnsCbMM/7CZnsynGSRrWEPPYGpteuOp1eGUZXbcwj+6bdIGtBg+SeoRtIy/obrooEFafdcoE01wnjS1m05yItWftG+cplFh81Tw05YVrP4VBx1tZCCxszRzQMVdyko+1HJGRpZh1LWsd7cAuA+q/eB4+PWqN+6aNUNb0fuEhm22tuhp0lpcvPniFXj3Cj0dL04JiXwS6K4WuYgqw0QP2wz2Og4n9h4hRg8kL58C/PXojdpNRijFNZ5jveZ9NXqq2jWdtjYDs5zk7574R2nHVtjDz3bQgaE0U+aIRvKZaiwkhz2pdWKJ0W63C8qY7xBzSokULjwNB4rBunaBoG6uY7zU+szXJWCPkdIlxUes72GNboFRRzRzGefqu4OSGM6oQths6DL532JF6RhLqq3uLG2R7LSxRs0Z2j4NVEOhsNp+66gqYt2Il6zocPm5r+Oxee2tPHEEC1dVseHRO/b7vvnnmd240SDpisqbwgDWzRG42OOE0yUg7xmLRlnGaPY54TFJ8IKSDih0phVWzKdpapEkaW1xqevQNtXYUtlYclamIq732zGMUeseB9RfqfSycIzRpNIAMkm/q/cfOR/O/SptAX6v45qPXYxfqR12VZSGM8D6HoU6bxcQVrVvnjeHcfU6GzXvJp7bqcP1Lz8AvnroXO0pfQmnbTHumOvOVeQC6q29ak4UOcbnJOpzWvjKm+ZTyPju0osR3TDfVSMKmU2bfmuW1RR6JRKvPrAtfF1hC0bLAfMxWaD7rlAmmM3VcIgtuMnaGyTddV0dMFRpLM43MfVWHuozPN+9LowXHFGJjzcxhnit8MRLNDRcWE7iAA81nmNEJfv7APXDDC8+qrsbm/frBL449EbptvDH3p/1kpgFVW4s03UoxlVis2m4k8Df1v9x4XeOV4gk7DBsO3z38cF0nZZR5HcSJllQBjCc3HAgnVb0/aI0WGts6RdMeKZtO2fuoQj401XZDLZw0n8v52mwdFPOBkI+0emTUOyMw5SyPAXHRTOMNAzvaRnnvm87VmU8eCc0nVUi4xEafqKzD5EWzdZyi2TjcyDM/qaPWpdNGfPHc4Q1XqCDcNvcF+OWz93BXWUeGeX2iKVP42thLY6u13LvQd5Me8Mt9T2t1Ud/fPfcgXPvSUzqK9Je7at3vyDeNXtBRnTbzecNc3prl1A+16rOmpebEl6jwTSPzOE47poj8wFrH2jj42ujGnDTKUeNY+2AjcB9lvlOh6ZT5rpzUcZKXbErjBHHSfM7FMpbTOo7lS6x9K+vYJ0tivlEp3xyzpzrnG/M4pK2ZL41MjnFBjVNC6tOdF4WvgfQsfCswX5IJU5j134XLn34Cfjf5YUnVoF/3bvDr406GPpt0xV40Ji1ljMCUs7xydPM5KoluTqN5zgP3w10zmr8mMbxPHzj3+OOhy0adUck4gWUzRIuhfsK4aHpFOGnEcAlsID+CDUKMvkheUiCamHLOl8gx91FW325WxzfvJXV8sxxxzucbrULfI9SDI92FTafMvh5FJSy0Zy7P5L1vOlsnjQrJJ0N0zBP7DoOuG+FfZRWYvnwhrHmbPvWFfcI4FFLsmD3VLAvdr1sP+MVep0KfLt3Eq8FvnnsAbpzzTDQMD52yUFQXNZ+jm8XcRA/v2Qf+Z99T+BViE/79kZvhvldn0mDcPzBCmNdS5LFFTK5pKQrN8qElPsnYM02UaFkIc1p1yt5npkXMoamfbXUeNfZlbdRowVrZtFiqjb3vWRaUEM2sjQdyOm3SQdhi16J10JI0RZbPcYUvYaIDa6MbszbLp837ro5EqDGNZHlhSbKmVNAxW0HQbHKizAzVuLhn9kz4f3c1fxKze5cu8Es8CG7WB/8wxnHoxsxjG1OomoVopMiX0LH6rJXp2oL/90j9ybQJ9L2+X5+IB2dk6keDZZlC0yycxrbsjTUwo+acpV3xFfA2Q+1ar9SJA2HTjokiHZhyhc8aVcinLANEeWtkkR9yPKTT3MVx8GOWV4S0SBkX2Tyxej5fND3KYiPQ0ZZZMx1ivpOmwOW1bbzRRrDdAP0LpQKPLnwZl0UfJlm05pG9+sHP9mz3xfbvPHYjTF00l+O6Ua0RvPaNkNPG4/sNgR/seSxsRI9mDegTrl954Gp4bsk87BePlGqb56CZrRG8Thr3TRsh0foEqtqWiPle4zMLPHPDRYixEXKaWYNSvoINtg0FanpyWOMbUxg9DjXNzXk8L6nOsK4j51MUaQyLvDSrKDSyBkG3ZAaKSNchFKYj2SCZfIafXfAafOXGaxsvik0X1/3JUcfBhE0HY0+qLWaDGfuLlkzhk1VkWEdRojl4F6a+Ohe+efNNnK3DJp078yvBzfvLWyUyDkKDoD180sXNrwY30/dEPWyAMkukWufA5wPzTvt8lUbWebZbUWG3QktkFUSJdhxeEUYNrWycayXfjrK0AtG8DlkUWgsC53xjCYRCLHrngfXfJ6TLMll93BcVM4WqWahGeH/7gcPh33Y+kvN1oC+2f+GBy+HV1cu4H43Ew+Sa9zJ1hOCx0LzjfYeNha9PandR30/ffSm8tmoF97OBbR9lwCIfszYCszTpWzTTuteiXV2WqYJ1zBIqm07Z+zqOaGtWJ40W3jfNlmkWTnuWUBYhTwsziEOg+QwzVBtjnq2U0ZR1ZJj75n1u5tuN85SyWDXfNG8c6tQ37XxaSF4aLjWvGheRlpRoFoW2ZnWMxAuNEGJccFxmGSvRjl9dsRw+de0VsOYt+qBbPb5z8KGw58hR2j9pdMvF3KiL0ziWxbigu2pai/ArK1bAZ6++qvGL/ITvHXEE7DB8uPQP41AsjaXGTa3p/cHS+UUpSZoYl5LPMNuqtS7sM7M1dmMdYmyRl2nm6w0F3cM6ghZXtPJGdpSkgzIz35Q5p2x1fKvxs3WimC3GW1JFndlnbUx5Y+3r65rOO/r4Qnpw47GofzGWOLIkJsux+Xg/fPMJ8IkJe7FXh+Vr18Cn77kUVr75Bo+oqyti4tDwxjllXIR8yt4nofkTttgBPjK++eseS99YDZ+862JYjiz9acwwesGyosjPNfbMR+a+vHS+caVPFvniGJMTmPpavsqP6qxp3houQg21qEYSrIlpwX2UyTQu+dxLNLM2uquPQZG35j1s1jew+szmV9Ulvt2sjm/kUUl0M01dHYe6Bp/ZmvnSOEO16hNYyV1YCiWfsvmUSurENNbGkliajK0eNhlTeOnqVfDxqy9Frj9hNeEfdt2dry0o2yL9Zb+Sm/eCT1ugN87REBYTmy+8cu1a+OTll7a66O9n994bDt5qHHXkcWQEgUrJ0F0NWq9GehemgseaLsSLrwipTkbwzAPI2Ow75qXzlW3/rY5vFjs/sL81+XbjOt2CUFdsEZnG+IrQjop8YOSAWI6yJJ0Wt9Apc7nqqC5pekPBusTcV3WpzrZJdNMV5p9a+iq88c7bIriPYx6bWCBjUiDNNEnRAB8fvzccsXnzxXPpe4xfefCq0C8MXYplnyImj251Pgu6S/7z2+8HR4xq3q6XVyyFz91zBazlOaG+PCiPw6yam45NzI3zFFqsmj3NsxRt2xhplk4zU5LuiU4ZyZgbxbnm/VKd7FNodNM8FRc+LrhvkS+x+TQGJ1WHploCaT7OtZLPK+EWryPDshDmbqozdUiimWtand/Ql0DroJAl52lB7DSHmjcOdcLcge+xFtZG8Dpt3LcTrHn7bfgMvhJ8eelS6VODYyZMhM/uuY92pQXdlXlMYbbMd5oqIs2sjW7M2nDxpWuvgdkttotOpP0Pu+/OfahzYDK91hWwppRqTnBeePWbb8Kz8+o/mbrtsKHSjyHbroNwk7F4rwrNdYlv7OsCUyix+KppJM47pptxzje2OtJcJ40WwpC8R6iBHDUtHx9FA2uxz5uWu9MlpqVqHqdo5lc3gsbYt2vnjWG7/vXvE8qrQoLv71nA63apsI28RNbgO7scAds3vDdJeGj+S/Bvj97E/aOGC2KCzxPK6zTdzP+22xGw06D6T9ISnlw0F/71gev0fRFsxtlGcJpTTjPybNsWdOW+CCKNiyJf5tBwYTEh5Fk1MC6qtsEQtG67r8xyts4aweukZR8HgsRhW3Wni22vYb6X8xQVOt9oEek61qCxTrlAmqnpyWGN7zl6HKwBPuffga/ccE2ri+vuMXIkfPugQ7Gn9K1jikoat8HysjmiJZKl19++5RZ4+GU5R3Id6F+U3/qAvB1i/RmRaEColaDpsks7jRjOH5YpOtq2l3WZKWpgnivSlnHaz6NjiRLmoMZnpkiWpvlzFqWGBjfW7mhqzB4Juhd51inLIslTH+QwDsUun+SYLS41fMne8Mt/ymI8EHI5LhCyjgzLIlNnTfaVvlbx871OgpG9+nNdHa556Uk4b9ojboyi6epizUI1e6pl4XxcmE+MN/rw0M/3PwnG9Gm+qO/tr0yD/5x8Kw0QNxmcm6zLafUsH20LaRaqaaTId8w31cpsGdPNNPvWLK8t8kgkWn3Os3A6MAUcFpqENvO5A4fKoc4xIZfXRpJjMTDUfMrer6izRvCaUoG5r9Mpez+MUzAtWFPIK3KsSWYKTbNw2rOEsggNFxYTTNOC8xlmFNtoedNcYZrrqEb0/7vrNrjnpRYX1x00CH5y1PF65QYaU8aRoTTmHK8Bb5bPsNbRgojZtPLvH30Ernr6KXJrQRfZPeeE4/lnnQaT/kkz5DxqBGTuywE0/lt05xGbh20NTIZpVCGPLPOj2m7sZZr36uqo8ZAS44LuBXNfp1M2n9dCZD4eCKuOtswY1PlyxxvV8KGYVcHcV9n8ujpaqm/N8tzIS3zCTk1frOdPjlJXqWfmu2PKG1sdablrkwpqdILuX+xzCvRBbsLPnrgL7pr7YjIG3jAI7LbNfNbEfC98Uc43jV6Pzl3glwec0u6ivtOnwvnPP4KRjMEbYszb4XKslCNfnMIny3HwY6Yo1NFN6zhvzOsg1mb5tOFCfOKihsB92JMCv84Sez+pE1M1D6h55qQF3zE2GctprbN8ibUv66SOb+yTJbHcQo+C2VdtnPppHWqJaCmNFpJH1qColAVruktadMoUagGtU+CYQ9XsWyMUmvuajyzrcKye1f3+sYfh8qfoqjH1GNyrF/zq+JOhe5eNZTQdW2Jbg93cGqku+BnmcYo6cQDumvEi/Py+5usd0ncYf3XSSdCzyybcj8D75iAjSsSh+aGuYNsGujceCDenK9wjsJOswzEPpFp9u1meb+QlfnQzr6qOc7QKiWXdYc26LiLJmx/yKYc6fkUoR0da0tFRjrYJe9/VkSF10sigG7Npz9y3ySeSWPKqPctCNGLSoPpTrT299FXuIuvSbhw6TSnLG3NSmULLa9usZ184d++TxawBTftXH7oGnl86D7vLPtG2pEyIdMrqUwHdCp/6FDy4ex84F18Z9mhxUd//fvxOuO3ladxXGiYt1nVYXtbhWBaiucxpz+z6vDXV7GnzcdrIa/IxsJgWQWuSmS2nUybftCwoIZpZmxRWN+lQjrXZOmRR6BLLQjRVZuokxIX6rANro1uIXT5t5PFALqdJZgpNy8L5iZaFywtLgdNax3ljArM2y2uTvpwsNMaW93zjtOfhp/ffg349enTpAv97wskwqGcP7U9D0Bg8csFYG/Ipe58538h8Zt5r8JXrr8NfyPobuQL0b8n/OfFEGNoH/8C1/ghaRwDnaUGxY4JpLnIamT5RPqXpX6ObDdfutI/UN8M8tjDfnF80TDkfZZHPcY2PUawDcxh81iJj3xixEf2SpodAj5HhAQm6I8x30Sx4SZxpvJ5cI3KaU5qv4J4bd4FxfQdznAM/0IvmYLXUF71Va6LI1zAuiK1tM2AYn/8Tp5zcStA2fP7ey2HequWseSxmiVK2jQraM4eqbeOjundhy76D4Gd4MGzz3cevP3AtPEmXrUrGiDTfRZc42dYyC1jLXZs4hY4bIaeZNSjldZHNM1ukyM6fMoc1fmBs0TjWCOaVW7EtTvNd8iWumWeKIo1hkZcWKtgTNLIGad6Q6ghsVvVwHNU1sJtniWgpzbTttfGjc+fAN2+9kd060KWLzjnuRBg9YECYP0J5RGGOOHA6yxSVed7yFfDpK6+ANxq+vkG/6H909NHFl9nrYCsISBPlLXnyVXyhUINthg7hk21LD90n3PFCUxSz3aTO34oKiYqepgNH62hgDkwbVMfJLOQVIR8Z5Rc5s+mUvS+LyjoRdOdk3Hwu52tL+8brMl904+nWFup5RxHEMoT1t8YjxjrE2CKvaIeMGAef2675eoEL17wOn773Mj6JLnbDznTnBY7jmD3V6puOmJDLa9t50xHwH3s2X9T3zXfegc/deQXMWbmU+8m2GNPdaQSxNbEoljqqCDplupmO6rSZTx6vSPPaTLNlmoXTKZd8TVIjmGbTac+Mcp4tWRQaY1lH4QctHQvtmBv5LpY8pSxWLZWFTpn7qnZ1tCgxEi1EJ0yhaRaFloRqg/dCo4WCQ1xoXsZKNArLl5jtnI8BcfApFp65dAl8/tqWF9c98mjYZbMRoa+MIx7eS4yRMGmWTnufmMl8OZH2J664Apaubv6axD/uty/sP3YL7sfQMdJGFGnmYp1EQaMy/7GX618N0vlFo33HXNA8TkWr87DJNmjDGwZ0V3Za3MR3zOOoZolL71uTRaFDHUDnf9nlyO+YL9ni8Ekbw3+Fqm9uiTHI5lN2dYZI+w451Pj0pdhb5z6vqgw6B1/paw9V6zHw+nCFPJsG2wDNq7/joOH8ZfXnl87nqirQd/meWfIqHD5yAp/NgP5m0dFwmESnXKwuwHyG76AYi68M6ewTD8+r/zQavWK9dubTGL0LEwYOkVeSbpwsMuuL0OQban3d4TCOBTRPMl9Bh/mrYPJxAst1flRZXS18hzo01XVknDq8R+PwNOM4zKSxVc6j1ym7gSzvRwygOq9T+G451Pj0fP7j5EfhW7fe3Oriuv+4z35w/DbbqqpA0/YY1PflnumTq1+4+mp48rX6V2KE47bdBr64H/2RLSNE8+nmOV5D6qNkmG8Q/ZsHH4I5S6svvfTR3XeFMQP6u3EqYMNX1TX5BvWt3BC6Y1B+nma4po7Bvjxf9RWhNepUaK6lWG9UwPmUvV+q40EKLYNis7zT3Df2I/Y+k2mAXQY3XbFe/zVKXbSPDhNrZW5qWix51cScU8bbN3c5FPYYMop61eLBeS/Bf0+9gzpxfxrQ9oVHCzphclVbi7T2jWN8Ik/cA07ccntadS3oBADnTL0Hjrv2/+CqGU/yk4Yg6/BMSbon2rGWFppCi9MmZXkPF0iFppvmyWDfNI9T5EtMvmlZqKYxHJMhZsG++VzJp5TEtg7Lh3Uby0I0lzntmbzIt0bby6ki5+O0hXHyjcBMmgVpERGzlckbc4FqWQQtbI0Lk1zRpK82UpY3Zp+d4L+Dz9qrnnkKjvnT7+Hn998LK9e+QSupxcnbbQ8f3nkX7s8j8To8a+N1WOzyaSOPBlad8r/f+hd44KWXqKIWe44eBd+mr0lwX+pMJCwDFnleWN6YwCxNQlxoI6LrLz4+R04JWYVdNrczytg41p+YQon5FnSGzedbQx2tmLQQNxLMmmPNwmnPFOby1ogogXd+j5DvdOhEsC4xLVVzXdHMr24EjXUdcb6COazw/bZqqu8m3WFM7+qvDdC/Ip5fJq/Wwmg2nFDE1ghUV+lpRMvO+Crqx3sex+/PNeHP0ybDpdMfD/15BA6dDpxpyeMQNe8R4eIbux4K+202lkQj5uMr239/6GY4+brfw+1zpmFvHsSxINK4KPJFI9j8pY1Q0hp4v54lSjlXGZhD1bbCqM4aweukZR8DgsTRtvBddIl1Gyr90HAp96CLWNCaNcj6JhAuVCSZ7Py1ZA5pYY1QaMngUufZ9jZmiWh524vT4KQL/gjfue0WmL9yBXtNOGCLsfCNgw6REXA9+ZGlmaaF6BZsgeL8yZNbfU1iHH1945hjoLOd3DOMkwxImlOWr2YpizV9ib7uPcotNx0Ifbp3xQjrs4+DRXZTzZbTJHPs6qqZopgZKCJdh7pC9PgVoRwplWVRaGY6UiMjTFuLtHQox2kjD5uNKXkiZVkEP+Tr6vC+Y8P3CScvfBlrqT5p6HGzmDjTeF3OZ81CNaJHl65w7r4nw6BuPSVRgx88fhs8RP+y5LFknDAQD2qcNJ9zsWyL0+pZ/gf7HAvjBzRfX9Ewc/ki+Ke7r4aP3fJneHbRazyODJUw3UxjP4md75vzdfMKrZ7lS0yhsS5oHSVmiA6sfsSEXF4byaBRyToyLB3LeWZ2OGbNQxaaUoH55nTKPI7qqE4aVzBTJAvWKVNomoXTytaIvOYCiwlBl5mINUO3jfIpSwfRzBh4P2irKxrl6Vp9H7n8YvjH66+BmYubryxvmDB4CPzgyKN0LBpKmW8I0kySZ50yEi3ivGpJsSbQ5ZT+6667RNRgUM+e8MtTToLuXTdxA1lIgdO4iBiNbJ6Y7Tjf9P4gfXnf5jo0u1mc85FxgRERaQ5i5rpM3tj7LAutA4s2cC7TCJlYxpImrwixMePhOXD26K9MnvnKUfO5nK/N/hJmzXfRgdVnzvnG6k9qOgH3gjm8OdSraDIKN1wEzbHTdDOfmBZcV/is8Ubf4Tt3v5MbL5FEZ3b5x/uuxAPOQu1PS2FuvI5MnOaIsUV9WSmr37VzZ/ifA06CYT37YL49pix4Bc666Xw+KL68fKkfOWbeBl6VNMtb45xyiIsaAiu6UwFpY62ImO4VvpiqeWWUr2jed3UyVpGzsSxfYh2HdaizCrzxOGRJLDfzHbOv2jj1TbNvzfLSaEG+hmUmXxY8pqQc813YBrI6SSo7X1iaZJwmD5s4Gda+rHN15pOH7eVlS+CfbrgGzrz4Apgyt/4Xegq6uO4vjz+Rz0zl1hCxbAMRsiQkn/i0CL4USN4YF88vXAj/fJ2dzakafKmnk0/ir28IipFsHQxbN+WN1ed5Mp+ZIsfBfxcmvyzfsa7CJP7+YMVNxyjFduMcrYpiGk21smkyg+/qIt9YfYHVKUgUlsJVcIgLYiVb4gtvOTSGI3jKFT43cpkklrxqYs4pM6muqOOxWTrNHEoYQSe8y6Dm9wl1SGkcyz4UjTJOB7/MhEg7HtdvMPxgr2O5pg5r3noTPnPX5bB4zWrqrP2TJgOXY26UckxQbdsSNN7o+or/e/BpMLxX88WGU9w2+wU49prfwg8euY0/9BMNX9XqfPZs/kiIDqw+MydVp+x9ZTREM7smyXzzHsZp32gdtOQ8WQnLQjRVZuo4dL5pYW108zpt3FfZYtcoySyhaGMKmCUZWBalvHRIdMoE1pwo8tqkLye5sTZ2Pt2CpgrLMwMsXbMG/vOu2+HoP/4O/jJ9Gtd0BKP69efr9/XvQd8V5CGl0TqYpelmxBrJ8iWmMJOft3IFfObyy1td5eK/jzsGxm1Kb61QZ8oo00DGBGQJizxrZsrJvkQ6Zbw91vD+4K6j9FO0dOO+1DVh9lRjn6o6qXQ6MIfimxYZ+8YGl48aIcS4sJhbommB9/CK0I6MRYyND7+ZOGpEia5jDvN+cXyPdZxVxkWaH9yjN2zarZeqMpatXQ0v8quvuG+qY5aorBOWP1WCpogukfRPOx2kuhqvrVoOn77rYn4fs3qeqxpBWbfBtN8WWQpvhgfBS4/8CHxk4u6wCV/RumO4+PnH4air/hd+/cQDsAq3mUaN16SMi2w+xxqYNqT7kO7jzbOeg6/ffQO88TbOHSOp98xhzk+aPgay7qLZtlieme8+344p8s8Z1oGlSQaXuEjnp5Ir6gypjsBmuQd9AvPrf7kB7pg5nbWkrS7DHJbzEtFSmmnb6zxb5buw6s218OuHHoQj/vgbuOSJKex1BPTq7+923R0uOutsvqK7jUzwa5Iow7gwbUh1gBr0idVPXHY5LHj9dUnU4F8PORj2Gp1+2M7WUGaJyrrMGOHjFWlsz81fACvfqP4w0Yh+fWFgz57aQ/rwc1GVROvGAtMGVXGyHh2pTcF9ZYDOX9v96O+EwyMTcdLYy8RJoyM9BrHmUFkW5XzqSxT5HBrTzXSyyfSBmGnLFmA2j636bQrbDBjKtYTQl4XEgSnUgJecp0XCZJmWBSWYtxs4HBbTVyYWv8Z1VVi8ZhXXHDVmG+1L+ygcNI+tTEvLR8xO4VPEnjD7yF06bwR7DB8NR4+ZCItWvw7Tly3k2rag72U9Ou9luGL6E9Cjyyaw7UA6Mz2NjWbKEoo2psCYQtMsimbbHBWqfm7xfPjUzZfC9CUL4P65s2C/zcdCz03ojX2C7LOvN00UfGaqqeAKnxuN5DU3SmnMfXkEqkx8x953dbRgXxtrJFoEzaxaUoV2zI3IxSEfNVooMKRf4J+89jK4f/YsuHPmi7DfFmNhUI+eXCel8baWOOtjQMy2aL5ZnObwdumTU+EL110N986aCW+93XydvhRHbD0efnLscXDIlltCl403xnExyetxzOtTzdI0h4U2UF45agSNP335FfB0w1UdCB/cZWf4+J67Yx+3TjLCOi3vmNPKiS9zaD7Fmg9xJ7j1+Wlw74zq864eNG4rbFuGellH0XBBd2XzqScyk/cdiytamYMcEzjONILTXO41UmAKLR+xbEPnf9ntyO9QQMfFwBjQkZ9Z81lUGoowIKsymvwULda3DA86d7/2oibK6LlxVzhoxDiMbMUZ5hkqvhdledPF/Nj3eqLeBWvd3sPG8NXhX1qxBLPVoC+0z125DA4csaUk/IB16Ehdgl544Dh45DjYd7Mt4IWlC2D+qpXqtAP9u+feV2bwK7NNe/SSE37z/BmKGQnzZxzmr4LJxwnkeeRRzAdYgo/z391wEb4ile+ILVj1Olz/4jOwy9ARMLhn8l8BWX12/yO08evGea/WY2iok+cXrlDnm5b5+bN5q2DuLxtuedJPzZ8Hf3fVxTB7mVwW6O1338ED0Qy+Nl83vhJBgmKYPJp8g/Ppk6BfxAPgtc890+pfiym2HToUfnLMsXDGjjtB7672R5JA5o8C1dhMRkx1uTyzzaPVFfP3z9fdAHfPmIFxPejL8v92+KHyOITH068pAaXr4LvX4A8PPwozFlZ/uOiMXXaE8YM3bbc+Jb+1YTMwsN2yzcqy8w2R5kLM8PwY3Ah+RT6fcqZOXhFigh8EZsyjETRLiiuYUOXTgjXFlHaaQ9EkCX44zueYQo19nhvK7vjq5OIXH+e6HJatXQMf3HpXrJV9pW0qMdbxku9FnjUx51RLUnWG6bZRJzgAD753v/IivjpcxdtRBToYbdRpI9h5CH0CllcgzKRa2bZBhGq2nWbWkuCbLngwHsTou4bj+g+G5xfP43nqCOg9w1tmPQ/34Suzcf03hSE9evO4vP+8DhZllkXeR4jmUUKevvv0yZsugVnL4x9i+tfytdOfhs369IOtBgzmftykYym2dUWapeRLLItmXyLnJ4089h1XtRqfQOsImpkWyuozc1J1ylohd+Hrpz0HX7rhKnj9zfjL6HTh2Knz5uLBcBvYiK+AQPXauG/RZB2O1Zd1Wp5SCePtqXmvwZdvuBbOe/wxWNbiIrUpRvfvD9859DD48r77w+DevWi1pUbgmJiF5lOWULQxBcySDFoW8Iv77odLpk6l6lrQ6cvOPflEvsoFQ8fjkYhZS5N10RrYEG2c+qZLPoUSf/fm22q/OvGVg/eHvt27ST1q6Zdh8qhDyEszrRYu+C5sOmX1rVleDGJKWkxNNRc6pqTlldlydRIKd/4qviLkwhwsX+UbyLcDbh3a+usxTr9NusNlM6bA6vCeUQx6BXHM6G2hVxd6gGmz3V/GKWNBxM63vyzEl7Flw2giDFYHfKaWAzffCm6Z/Xzpl0uKR+fPhhG9+vEBJYINH9aXwPJVvqHGH9N3AJw+fhIM6NYdnlj4Kr8/1BHQK8orpz0JLyyeD+MHDoG+XeUHyTa7mD+BzW+xYzWsdf9+3y1wz5z8X9r0qbzbX5oGK95YA3uPGK1ZBXX3XIUm39BmHNv8DGh3yDbfl0esdXW+JSxfwGW4DnXVfGv+R/feCT994O7KTzi+tmIFX9l939FboMrU+GHrkPFfWroEvvOXW+C/770L5q/s2H8nCHSFhi/vvz9899DDYUz/AX7vWs1jmB6F+QwLnJ/DzS88D9+//Q5V1aD3KX93xqn6SjWzRdEGeV9heaIcLJ/xZy9eCn946FFVZWzaqyd8bv+9o7Xy5nidMvkY5OoYFoREBZp8Q7bOrZGoxfOduPNX9RUhm8S+cQ6JF/jri/MUEheaf7FxChdsO+2ZFupzKvja6BZil08beTX+k0te5e/AVWF8vyGwNb7yoUGibU8ZEbQsgsag8CVR5ENTzV4nfi9t9yGj4fqXnm489+Edc6bBrkNHwrBefbCr9K/dVr4XjMR5tlL2PnO5bTNoGJw2fkd+njw+v2MfTSfQq7WLnnscFq9eBeM3HQI96UoYPDYtsEAba4bmjUNdzJc8NwV+O/UhKqzFkwtehSn4ymX/UVvKv/GwP++tMS15zAzbjTRVslfBdT6PkfOlcQXFHMmC8ylLKNqYAmOCaRdL0yQ1QtBlXvHGG/D566+CG/HVYBPowrZDe/eB8YOHYFcag/ZFmQY0TUpjXxea+gtXrYIf33MnfPvWm2HWkvbfBTTQB2E+uuuu8F9HHws7Dt+MVqPrSpiKZTNcXrWkWFuLNCEXuzZn2VL41GVXNP5899xkE/jd6afAsD59dR2ZbSXGQct5bWxbrOyb5ezmvDumTYc7p1X/23b/LbeAD0wYh7UouI8ymV575nXkfG20YFZ4zzeDxZqPxjJNode4CFrNOC8s86IaqfO/7C7vETIosANmHdr4bcepq8v6aQI17Zk78i/EX773z6t+E5hepew3fCyOkrzSw/5V70mx9qtRSF2CUqLAwG49YJuBw+Cml57jsetw5yvT4ajRE/kAmkXYMFbVaONnxqHzs+42bBScuNX2sHztGpi2dEHDFpfxzKJ5cOnzU/lTndviwZUuKMrzjDc/v4JE80QXa3x83hz46l3X82PUBq+sWAY3z3gO9tx8NPTHV7iVSPa7BNuM9a1LfJOGYGNgZcU8OU3zhwmp8/NYMI/g5tmPGJgHIAaYiQefj15xETy3sP5cuR73vjQT9ho1mq/fF4atQ8Zf9eab8OuHHoCv3XxDq3NvpqArix87cVv4+fHHw4FbjIWN6V+MfvcwVFnmGp9BPv8+CBmEqwzzJ3rZ6jXw0YsvhcV4UK9DZ/wZ+OXJJ8BEvpoEjafwq8lBV1tZ1+Qb0D/vkcnwwvzqD8idNmkH2Hb4EL910fDMGBTPw475EUoJD9dT5zkeKfHd41Hto2SYT58a3eMoeUXIpjIPpGzasyxQCounWu6FppCIdcJsiuYUL1S7HLPFuAi+afY0j7euXTaGy16s/ng1feT/jHE7UzH3C4wQTWO5vGkaXVnN4EfN+YzIBxjRqz+feebuudUf6iHQvyUffu0lOGbsduEAIsMqy4KHJRR+0bREmuZKzXuZOvrr9cCRW8JBI8fByysWw5yV1SfozYH+Op487xW4YtoT/IVhOiCGbeeFNaJYaxJee30l/MNNl8Bq/MXZEaxY+wZcO+0Z2HrAYBjVjz7IQ8PJ2NE8Ilgb0935HOICSdg0szb2apr3eUVOU8JYQtW00LxpCk3LwtUJcwHfYx0xAfnuWTPhU9deDktWr5ZcS/C/oWdMhyPHTYCeXbviUDywMLZ0m8QXppC+AvHF66+G+196qfEVVA57jhoFP8FXgCdvvx302KSLroOJmTUVEptOucIXgzQlJZa8ai4seM1bb8M/XHoZvLiw+j9Rhu8c/gH+RKasK5kvHDzSnmnFqq1Fmvtiym6cp5KE8fbj2+7i/wBU4R8P2hcG9OqJlUU/WghzyEGkU6bQWBfmR81gceTjwjMtVMtYTrOdbqtj86WD8/lfo3ggrAIV2gE1B8tX+YamcQwNPm04HdCtzg/LTD7eBnTtAee98EjlDxd9EOTEsdvzJ0izfzHbiog5b0h0qFOdwvIZf8KAIbD67bUwdWH9F1oXrVkFz+KrqsNGjcfVVa1I0WCHzdc6k4ZgY2Blngd27wFHjd0Gdtx0OLywZAF/5aMj4E+YzpnJn+4c2KMHjO03UDYlzHOe1+AfBP9w40Xw6kq5lmNH8eY7b8NN+MqQzts4aWjNafh4YxxXQX3bSoPp8LQg9vmUa3wG+Zjg6cmB82lBZkS/QYn/m0cfhO/eeSu8+fbbqDsOekwfeeVlOHbCNsV5MZVyoFdYN09/Hr5w7TVw/fPPrtMnQbccNBB+dNQx8PHd94AB+qX4eK+ULV+zPQzfsQ5Z/114+5134YtXXQ2TG67yTvj7PXaDD++2C0bZLRYO67F8BUJdHvawW52NtnDl63Du3fdzLoc+9D7rwfuF+tz8Rqg0ErT1a+twRdEDmm6Z+hXP96o6ORBSAhv/ouVQNQvTGZaFMA3vfA6N2VMd4opW4xMinTKFGNCnNKcufAVmr6z+usK2A4bhL+JB2JU6Y4IHVSaYZt+a5bWxXWjZf8falzUpyyvvMWw0PLv4tcavVby8cim88vpSOHjk1roJNEaGZY3lvDW6hZgKNdZmWq1CJzyiTz84eesdYHjvvvDMwnmNH/5JQf9m/cusF+DO2S/Clv035feaZHCigmWdneCfb7+WX1GuLx6Z+zLMWLoI9h05lj+ll50/01hfnkdlvnFBlDfNFaZFqs5whS+G0wTvhZwFCM7jQln6qm8aTeLV+MfFP990HVzyVPMnG5uwcNXrMHvpUjh0K3x+8npov5Vdmzz3FfgSvgK8aOoUWP5Gxz8JOqR3L/jqgQfBNw/+AGzWV54zOKzsGxXwejgtbL5BvVIj5OKkhbG8xsU3brwJbptGJxuoxwfGjYNvHnaIdnfbzmM5thtp5ppW43Nvr5mB3xu87fnq7d1ri1FwxDZbh3rZCiLVtPBMMB1iargIMTaDahnLaaSQp9DyEeu2SCiavWLbhDRPN+dH7OriV4Tk2AEzhybf0JG6UqFpZNrCuiN74tOu0Ss88uetWgEPz6++1MmAbj1hn2Fj/GgynGpDpEMhqzKafIPzD9h8K3jgtZmwYHX9mSemLV3InzzdabB7RfOebA8WVMxvmE+dZ3rSFK+ggU/gfcr4HaBb5y7w9MJX+QK/HQF9kf/qaU/B0wtegwkDNy3ex5PhGb+Z8hBc+lzHzyJShRlLFsFds6fDvpuPhV50UuPG+UG08TPjWNogzy+bV/OLeeb5TeY5yzQQMo1g+WIDkIO0IAZ96vMfrrqED0zvFV5cvIg/sLLj8OGaKUDvP37j5pvgnAfuhUUN75/lQP+a/9Qee8L3jzgSJg4eIvuHSPY62u1C27w5zfNsdZn5M3bzXOX/6r4H4MLJ1V/XMuwwfBj87KTjilfNHn7YOrTx68ZR/6LJU+CZ16rfCz55p+1g+xHDo+GyjEGVz+AEZngeDa6SBzDf5VNu9E1aUAHfLQFdG1YGYFNZG//AeY0UmELLp8ymagot7zg0ukU50/L0DDrUZXwelouC33h9wgVzqJjrI5ZBQrM8N11H0NxM06hOs3Sa7sacFE0n5j73wFNgeM/mc3/+Yuq9/F1EHkaGkvGqGtm5OGqyNbznppXJCL5pWQTdbeMu8Pc77AHXnfJxOH3CTljZcdw7ZwaceOUf4Nv33qx/EODA2O5+eQb8z+R7uaYOg3v2gE/svI2qZkzHX9pnXHUePP7qXN0XXWPYZ2s6F+SxX9G85+J4LNScIqGa2TQlnJZF7BtLZZTHoGAxRIdY2mTc59MvPR+mL2p+L8tAczuoRzdV1fjZ/ffAfbNn4Wpk3uiVIl0Y94Tz/sAfrFkXnLHTjnDDx/4O/m633aCrnhGGG5kal1hC1bTQvGkKTctCEjmu8W+fPh1+ef8DVFQLOsH3OSedwNtP/WSbHPM6VJPSWHyyXI4qOM4w9232m644sctIOr8ogvsoU5DjCl8MYkoSWzNNC6dpYXllLrE6TEpY5ANTB9Psmy6YW6grt85fpQ/LpKABK46cEZrqLN9mHCV/PBdtf9HpX3Jep0y+/kU9pEcv+OPz1e8T0hfb6QMzdEWGEtps73s4P/Tx/j2Hj4EbZj4Da9+pf6/mLjwQ0vcR6eTZARXrsbQBpyWUZZn88IrE8jK/XMF58ZOe0B33YZ8RW8ARW4yHea+vgFnLOv4R+OcXz4fznnoU1ry1ll8FfPEvVzV+iIIev98dcwAcM240TBzUH+58aW6rV6b03tTVLzyFB9HeMGGQXpqKdsfB9s4g86NMGluWW/iWsHwBl2GKesbsN6jKZ0ZCXP7Uk/DlG69p/b5cjy4bw08P3RtO33ZL2HX4YLj02foPdxHumvEi7Lb5KLhgymT48vXXwvMLq093WIeDt9wKfn7s8XDkhAn8AavM3kXznIXvkAPnsYDnyRCtQTgzz9MWLIDPXt78/OzTrRv8/oxT+Ev9xThqprB8lW9Qn4i2xmDab65sbcGLV62Gn95+D0Z50IeOvnaYnh/Z+lPHOrTxbQNKcAZTusWObf6Nm+pCvgJkK/hAyL/Y6G4sC9GIkm+Nbl6njfsqW5xr6tOCY2JN1m5bytxXNAbwyPzZ8Mrr1Z9w3BFfNY6yU4L5JgMUseZlbN7rQpOyPDOFqlmYjlnCQvfv2p1PGn7Hy/Vn06cfvPtenQWHjd4aenahT+rxEMJJLGM7LamQLzGFXMx3zavQAtYSSd5Y6/p16w6H4cFwj+GjYPrShbCgg6dsI0ydPxeufOHJxl8yhO8fsgfsvfkwjsf07wMHjd4M7p79KqxY2+7TpXfPfhGWrFkD+40ag5vPjwjvI++msjXaQcnzXdi0ZwnLeWOCaRdL06Q1WnBcZqKgcUEh5xOfbv955+3wy4erPyCRYrM++IfkcQfCpGFyUofBPbvDyL694S8z57CuAn3o5oqnn4Sp9Gp7HbDd0KHwo6OOhg/vsgv07dHddk33KcPqZxshF0c5CzSkhbJprjCNauHrK+ETl1zOB5UmfOuwD8BuozbHvjKOPLcqGt1ycdr0hoKWmudAmFzTLAt9/8xZcPMzL1A2i11xW4/efgINgbB+FCvnmiHJp31ZU6h54WIdRLSM847ZFqYl5W3fI/Y+c01TX14RUk87gNahqS7rpwnUuOIin2Hy8U8a2kB6BWJ52uj8K0Drbb7ouXgQfGxB9fW26EoVew4dJcPXwQZsU1eHhnHGDdgU3sZf/pPn1/+yWbF2Ddw08zk+DdsgfOVbBZmXYoWy+tz82bwlXOPbjkhdkAFDe/WGE8dtD1v0GwjPLprP2/xe4+93nAAf3mFrVYIB3bvBcVuPgSfmLYK5K5rP+E+g9ygfmPMSHDh6LHTduItmEcl+mTTQfpf/8rZ5cjozfynzCNFEZjisECXDfIUvVyxbsxo+fvVlcPuM9pcrold/vz/2QBjWK7649NYD+8Hrb74FU+Z17ATtbTCiXz/41sGHwD8dcAAM6907t/fJPFf4+nwt4CrC/IUeeS75hk7wxNy58NE/XwLzVzY/tz61zx5w5s47yTA5+NXUoY2vm+23usQYXDL5CXhybvUFAI7bYRvYeWTxOQTrHyFKpBWo/YaEIMNtHoe657sh+BWwbjV1nb+6J74ipAgXvF0UEpv2zKZoa5EmWYrxx9xyprmb5o0p730xI5+151BHNS6vmn4orpv1NNfl8Da8AyeO3QEjGkv6lRtVKpNmKTpepzLbmTzfTXOZ87Vhjs4m8/KKJfzhmDrQqeKuffEpGNitJ0wcRGf3cONok9XZ/KlmoUwpr1M2n5iTqikV1XEgzcfYxvYfBKdO2JFPYvDUwtc6fMq2KtCrwP88aHdZZYJuG3eGY8eNhhVvvskHxDagf+feNJ2+fD+Kv9rBm4/5sCtUZLE2Thnropg/pznUvHGoE+YOxOoH7ZnA2lqsZWxtGNMHWD56+cXMbfHB7cbBDw/ZE7p3yV9Ues8RQ2Dya4tgzvKOv9LPoW/37vCFvfeB/zj8cNhqU/oUN6LYhTLX+RRSoDlppmnhNC0snzIDZ5NDyku7dOpU+Mo11/NJAJpw1DYT4KuHHMT9aJusRVrXUcROe+ZbJm/MfbmA65hNM3PI+Pmd9/HXJ6rwqf32hOH99MLd1i9tBta48J6tiNIcUkCUbpMymtk8MdukOVHkXWNtt8QLzXulOhqi7j3COpDfcIQl0ErogG51vhsz+XijDSny7i9lzttfeFIR/QVtbCtydcSDuveCPzz3kGxDBovWvA4fnrArf1md4bvnYPkq39DkGyrq9t98S74qPF2Jog70hWb68AxdtWKfEWOhczSPjjFI84ZoPpP5K3HFPEc+MxJDNJ39Y/vBw/iA+Na77/D3It+uelBaYHTfPviK5QDYJPf+roLWue/IYfjqogfcM/vVxiuDE1a+uRaueeEZ2HLAQP7yfbJ3svteO2aQjwmehhw4nxZkRmQ/k/d+9DgYCk2XTPrMNVfAUrrgcwt0wZ+B7+EfFn+30wSeuyrQz+JBYzaDm158GZa/0bGvzXjQY/fBnXeG/z7mWNhlxAgel3cLPb961hIWqN48AfmhYzqC01yHmldoeceaf/Odd+FbN94Ev33w4VbPo73HjIYfHXcU7xPDD1sD23+D78ZMPgZWl/WVDeYTVq1dCz+89S7O5UCfaP3mkYcUj78bJwvy/QpScB4L/AaFDo7Zz+Rb1ynI5wlSic25RS8q8xqbvCJEh8zAarJmTprP5XxtZDJ57ZlCNvmuedVaYCxJ1ZTyTDCtdaTpAHf/qzP5qxQ50CTsPGQkjOjdj+t5b4l5rAzr2My05DxZFAubjyR5Y/VLnPHpiXjIqHF8JYeFDV+rIExbsgDue2Um7DdyC+hJp2PjsdAwllC0CW20TomVOem0Z4LTnPJafYkKX9bRiT9ev8dmo+HYLbflEwW8uLT9KxVD7026wPknHIyv2mpOmeYwYVB/2AcPiLfPmgOr32r+0ji9L3nzjBfwF947sMtweW+Hdkf2he+xVhYj0Wkj6HgSU1ONLH0LU0I/j8qc9j4Gquk5/cuH7oP/d+dtrd5jJQzo3hV+d+xB/IdDG9AHlGhOr31hFqzt4LUBaVvpAzA/O+44+MC4rWETfPVOO1TsC5PA8mkzWJzzkW1My8tYxTqICp1hpAWvr4KPX3IZ3DdzFqpmbDdsKPzytBNxv+gTrjQWjaOcxknDReSz9tvEnmqWFb64kU+pB2e9DNc/9ax4GUzafDM4cadtpbs1gsYylmP1Snlj9nVbJRRNnjJrIrpR3lj9iH2dz1vj4Sxms9DYTGMQ+cTFe4RtwHV2DDW4YysN2vQXlvNpY+gVicE0l3mNsRslGsbyhkhjMHv5EpiysPrjwsN69oZd8WCYBQ2UriCHjtTVwY2z8Uad+WBI1/mjVypNWLh6JVw3/WnYacgIGIL7ZK/0ahknULStttAMDMLDVYc2vpufXptsAgeP3goOGDUWpi9ZBK+9nv9DJQX9gfDLI/eFiZsO0Ew7DOnZHY7ZajQ89Mp8WLiq3XuVj706B55ZMA8OGL0FdMEDuG1+af5wgop5TNj5NgHmFxNCE4zUBg11q/F58o83XANXPvOUZppBfyicf/zB/EGjjqB/t66w3eABcO20l3hP2oBOhk0HwNN32IEvoEzTkv4cl1nnkRhv6fxF2s1zlsMKUTLMV/hyxBNzX4WPXXgJvLxUrsfYhBH9+8EfzjpVTvfmxqlEsr4SEt+kIdgYWFmWycfgyilPweNzqj/EdMz2E2G30Xr5twA3Upi/MHKeG32TFlTAd8uhyTdU+NadAv4eodXxdilbY983ukU50/J0jHSdTyr40kyLq5oX5itT1rT61izPDb2dhzR9nxAPklyL4H4Fy9hs0ALTmk9ZS1hznemCrRG8jlri0Scwf3vY6TCm70Dp2AC6WO2Hb7gQLn7ucRxLBgysK4gYYfMX+9rIdXHIp428jG9j8oJTLEKeLtP0+2NO5zPVtMFX9twB9hhBJyruODbFg+GFJx4CR49LLs1Ug3tmz4APXflnmLtyOe9S2AdjSnmdsvkSFXlKeZagiNkrNxkr0cpzV6yAsy+7CO7pwPf1jt16NM8Jzc26gB6LL+2+vap60Idh/nj6aeFCr7TphMC6YB0xBRSSKJgL6K5sWpJOeyawlsYpr7kv5TvBRZOnwgfPv6j1+Ve3GDQQfnfGKdAb/0DgkXQcWQXFGea6Nj7FPFChKaGaLV1IPmEKkesOggT5kAx1EpJmmhZO44JTzjfNtvNLTBWmuc50wdxCXUXjvlRisdOe+VbO04I13vjNMTsme7ZGCBoXIcZGoL/IUs2siaA98z2Td8xFga0RvG5ukwZtVvuex5SFc+CtcJ5F6lNwui2s+R77sszpgrlpIuikEZhxYbXDe/WF8448C3YfVvGqNYPvP3QbfOPeG/j7dOk+VLKtMOez5/M1LdTSmokJwsX8FPytu26COcub/+I+YuxI+PAO41WtG+hfej88eA/4pz13rH1OeNCX70+/9Dx4bK58ktf2qABmKFk3f57b1kUsjV5dRlr50VdehtMvOg9eXNTu05z0XtA/77UjfP+gPfLfo+0A6D1FemyaMAdfVX3zppt4iz1SXU6kqBoBmUOn6xjnUqIiTxF9/ePr190I3/vL7ZJugX3HjoELP3Q6DOkjn+CWR8Zups0pa2YOMnmhWAekGlFKCOgCvE+8Un0gpJ+HSSPLZwUqI2yMkq2watsr8sRSoBnv281pHie+WR/z4jEqmINynn8fhIapbJw28qg/azvKFpot07KQfI5lUcpjwOMwc+zyUU7ZYtdorO6bdIUt+yUXuHWgE+Y+tfjVUE9It4VYwkSnTDdjHUf8pJHHvmNNlhiJvlz+Px84Bc6aSCfrbQc6sfWHr78QFq6x9xh1sGilygTTro4tzktjjSbtl+iEuW+TT3e5XfrsFLh2WvWneg3jBw2A7+EB7L3Cx3YcD785+gDo1cV9VaIGdF7Mj197CVz4JL3SRtAiNN6hgmnhtWOiSKesPmtUIU+BZxmA9QVTHoePX3VZ63N30j7/71EHwEfW848KD3ps6F+sTbjmmWfg0qlTaNNDo10KmuB12gg8B0UYNLJpsVUbp75p589fuQI+dMFFcN3T1e+jpfjw7jvDuaccDz34X700lms6tkZhneab5gpi0iydTll9DkJeGy28dm0qHgTpd10VJg4fDN3ok8JYS10IPLYx5ZmLdYqf2Ub2kNlWrXWy7wnbLeStOd9yLsZFkSctbsgL2zaobxpJ8sKZ9whpsjRBRIdQrrZ8wTQcH1PJxzpaGWnLlzj4NkqiZRhZncLWxig61iPxZy1bBE8uqr7W2cg+/WGnTTdT5dC0vnXcnhi6w2GcYkBa2vwR9t5sDF+o986Xm0/wS6D3DelTbnttZv8OtMdBZROa6mQDq+tq/MdemwNfue1aVdXo170rnH/8QdCHzgv6HmJz/Ov90C1GwgNzXoMla6ovR2Og5+V9s2fCq/jL8sAxW0oiPJ/9jjrmiSZtSLQvz6HB//ZfboHfPfYwbopfRzW26N8H/njcQbDt4I69x9oEeoW5/6jhcM20mUCXI6rDPTNnwm6bb85XZ6f9Kt5DNdgOI/PPhbLPt/VDnZM1OOee++COac1nzzH8x1GHw0d2d3+ctlyP+VZu8N2ZMYh0yuRjwLuvMJ/hOlwz9Vl49KXq7ycfse142HPsKIyiNcTcOM/IvEEoGeYrfHkdWtbZ/Bh8N2byMbC6Or94RagGPSnjnPyY0zL2pSD4pmUR+RGLSPKqyVVtLdLal9liDi1WLQuUwjs1vE/46LyXuYusy7EseNgob406uzjk0yZlRUwcGq+l0HTTmIxomxDHbbkt/OHIM6Bv1+b3dbbZdCh8cdf9ZbBoHG0WBz/TnC/b4jR7FKpmNk13xzSS5ue9vhL+8darOVcH+tTvr47cn88l+tfAqH694KKTPwD7tfqXkODq556Csy+7ABbT1xJs32j3dN9KzL41y0uTvtpIWd5YfebgAx64V8PZl1wIVz/b/kMxtI+XnPQBPjvMXwNDe/WAXx55AD5mtK31+OI11/CJvwm2T0UzTQunaWF5Y4IxJjnERYm5L2lOCJt2/OWD9odth+np9mpA33288MNnwbHbT6Ru3J9Zt4EZ60I+ZfVJSJ001sxOIxU6YQpVW4s0Qfmx2fXnF+X3B7kWF9zftiVhNLN5YrZJc6LIW6MKZb55zzfv8RBO8xASkyh8W5djHieTNzYfsREdGemoSExoZCom5iWx6ZitItIcxr6wNYLGup7Cq2hEUY4gbOue5K/YkIF9qrRqX3iJC6+tEWz+0kboEOOinLdIQHqHwZvBn485G7bsP0izZQzp2QvOOeQk2NgeaTdima0RnObHoGiyLamWiGojXcFr3noTPn/zFa3+lffdA3aD7d/jVy8p6F+FvzpqPz5LTVs8Nf81OO2S8+C5BXQGf9m3LHOoOno+C0uES51nydTzc/Pnw6kXngdPzas+O0iKf5g0kfexR8t/Ba8r6LH69n7N/75fvmYNfO7KK+OLLNMuZoEGe1ZQzVKmbDrLFJU1fZeSrhCxaXJGHY+tBg+CSz96FmwzbDCqYqRirIQ5qPGZDYkOz5kWaCid2vBBmUn4il5QDCSR21YO0m3PcKnObrFmxY+X6RwTKjT3NR2zQDVtkAS0yLB/RUi/L4kp67VnCrnY501TotCSdNozQ7UUaSPJC2YplVh0wqGuzqdLLvWAMX2qP3lJP5D3vDKD+0nXhOlmGuvLddrIY18aiYgpNM3Cac8SqqaFJkwjhvXqC3866kzYb/OxrFP89OAT5bJGob9sa6SpkPOcCL6s07F0KOeN1ePmY25Uooy3b955E7ywuPlEzB/afms4buv2n/BcX/zjnjvAf39gb1XNWICvak/Hg+EN057TjOwjLUrMtupsHQbG7Ofbjc8/B6dfdD6vuy1+cujerT/Z+V7gpAlj4czttlJVjRcWLoRv3HQz7a5ApkBCmQZl2nfH2flTZlu0zFmiWRLrLdQVbdNe+AfkycfTSCUcNKH9Wt8AAGYmSURBVG5LOO+DZ8DQvn24FhfFmKYlIVrXEecdO59heVp4NoS6pBEysYwFcOcLM/jDMlUYN2QQX4yXu2OnsBruL1r2UTUR3ShvrH6J2bdmeWmESKesfZnxVvKZeZTCZ0mxMPtOM7xW7vzVvY78jig6OiZMhXQ05QHkvRA6xgbGvPyPP9u7YPJ1GMsbIu2NHMhPB/Co8WctXwxPL6r+K/rtd9+BQ0aOE9G0HkNTHftYoPMXd0jm0euUyed5tryM0mWjjeHwLcbzacumzC/+4vvGXh/AA+QWqhz86uvQ5BvajOPW939THoKLnm6+dttuw4fCjz+wp6r3D1sO6AsHjh4Od82eC6+vbXcquNtmTONfMnts7j45mex3JTowfz+97x74r3vu4nQbDOnVHf503MGwx4jmf/W916B/wz48d37juV5nLFoEXTpvBJNG0H9sbMIch58bQ6J9eQ5NviGpo1eEdJq9e14svoryD3vtDt864hDe3kok45g00O6kvweznPENkeagqgJZV3junffDiwuqrwZz+LZbwz5b0vuD2i9lojZoqvPD5pD4Jg3BxsDKarmmjkE+JqhuI/plSwH9ki0x1ZompfnA6lNCfKrNMLmmtc6a5UMjRDnTbERa+jotC2FOq8Z26Kj45Mwp7pnzIqx+e632lz7UCBaXWp1HjX3aR4qVTUtSmOpYJHlj8k1LMvK/sMv+8MMDjuV/7RwyehycNH4Hrik17ctsMYcS25iaFE2R5rNc58sCNcB9c2bCLx69j+vrMLRnD/jpYXupev9BX9a//OTDYaeh1f92TvH7xx+BT15zGbxO/+rjOZGdlvnRCTCdMlVEedN078RX///kVZfBHx57hGvbgLb9ylMOb/VJzr8WfnbYPvxYNuHce++He2fhAUf3ucS04JjmR/JhvtSTeXR5Y/OJE98al7BHFkXCp+28Axy4FZ2EfWP48fFHw+f23yvyQ73nMI40WkRaUsK6YJ2yhKJNaLO60Djpc6ZpAbDqzbfg9ufqPwB06ER6BS/bSosS6+C0n4HZL9ia+dnGHnVxuaC5Z8E4Egnvm5YK1cbexxY0+6YLFqPQ/IqQVhS/4qhg59uxNdI0Kh9iUTKsTmH54FegjS+rr4erG9azD1wz4ylY+Wb+E4J0Dkz69OjW/el//wkq1mPDW8C77/IlZt/m0/Lx/NnjkPSMOeOP7T8A9hyxBZy89XawMf3VymnzK+CHycHyVb6hwZ+5bDF86obL+DtadaDvtJ13/MEwvHf1ezTvB+iE0ydN2ALmvb4Knlm4RLP1mLN8Gdz+4jTYe+Qo6NtNL2LbkfnLPA6zliyBv7/8Enh6/jzNNOPUiWPhnMP35Wtc/i1BJz7fc8RQuPK5mY3nlb1z+otw8LgtoX93OnDaRDjmHxzlnG94j5/v+2+5BRw4bizsPkZe7YfuGPi1V3JNHaOUSGD5Kt9Q41879Vm4/fnqA+Fm/frAPx22P0a4IZXzq2x+qS4BpTNIezXOI/kY5OoYlg+JCrTwN5JfujQYMt+VTacsC0qIVmZNYG0t0dIhxNK3aKZ5HeZTFPnsFDr4MUsY6yNGT+T6KvzxqYelX9rQ4+Zzmgy+aSTLl5hDEj4v2gqC1jrOp8xQbYz5bTcdCt3oXKOck32mWMbMcKir8ymUmNm0Z75l8rh4Hf/w+MLNV7Y6Yz/9O5T+Pbmh4N8P2A2+2eLDH4ZZS5fALx9+kPebJoBnxZiWlneNtXrcXPzrhx+A2cvand6LQNv6nf13VfW3x7iBfeGHhzR//3PV2jfhc1dcDa+vxT9Sed8x6ZmKTPP8kPR11th1Oml1HjX2dQy89ei6CUwcNlj9ZBuYHHvfc9bXRguv00bIxdrCWArTnn9738PsVeHI7Sdwnew/QbbR9jlico2juqTZzWLN46LMeIvzvBLR3Nd0zNQt+CKKfMoGKVaPZOHLK0JUxSsVeUWSe0+qxBiEP9QU5jN8hzq08d+DcQb16AmXvDBFVRlL31iNQ3SCnYfWf93Ctof3P2yYmz/jMH8VTH40z8YGq1NZBd0e1zGPv8E4X7jpSj5nZxM+s8u2cNo2W6racEDn0+zXrStfwaIJo/v1h58fdRxsTCeSrkPL+dt71Ci4DV9lLl3T/Anbb+67M5yxbfOHVN5vjO3fF97C5/hjr9Z/QIo+SfrMvPlw9ES7KGwN3POrFk11Db7Z5vvyiDGoeuVSqlNtiLTvEJDpwb8QLJ9h3aBf3PkA3FHzapDw7WMOhn7hBPY2jsIPW4c2fmYcn2bGoHYea/wIpUSCTEd+j5DvNLoxImhJqk6YXNXWIq1945gHdw21LFCqVjaNoxba1ZWYFuzTwuW1je07ELaq+coB4XdPPQhzVyzlkaxfqanHY9ON82Jkt8lrzzyOalmotqaaAhH55j0X29hBs6Aw9gPLQnSoyzDfRHMqNNXsAfzkwbvhwVdm81h1OHjMCPjMrtuq2rCweM0b8L+Tn1FVjV6bdIVfHHsidO8qZxihWYjnzWm+aV5ZSpTphtwDx/rFcSfy2E341WPP8LZuiPj8rtu1urLFA7Negp/cdY/NDs9HYJ4bZfJNq2/N8tzYo5TLBc09C00jWV6ZFqz5VugSS0iFWue0Zwll4fPWCKUYF5YzzSi2wfKmiWYtXgq/vbf+1eDWQzeFMYMGYhcaw++TNhrJxSGfNrtxTF005oaaPc0H39blWOtKeePg8935STPkPGqEJN6IXnEIhFPdjrHRodritEUeIadpicyh0+vEAq+tHT66/vtia995G/7twVu0J/bRIOhGtgiBYaFrmMMa33PtXMYtXnehmXGcSHvWna70NWLGQGJzJL5pxvPwpyeaP+Cx1YB+8KND3v9PiLbBW++8C5+6/h5YsKr+xMv0HaT/OvIY2Kwv/VuX5kRmgWeD7067KKejShyHxvyvo4+R7znVgLbx09ffxdu8oYE2/SeH7gVj+jV/mf8PDz8KNz33PEY6B2E2MtrNs91SHTKhlpAwetl8jjkQVeQVkWhAXW3LcbhMNoghkWzTN6+6ufaUaoSjt6ffhboPyRzQMmj2yreiyjMhp4kS7VjgNAdFPmKTRVCNFiUEeY+Qf8aEg7YfvPAD6PIps6fNxTJWwuhn88Tcl0KfFy2hY1616pS9z2ytE5y69Y4wsFv9p9keeW02/OCR2zimfjRIlik01gWtg4U21gzNG4c6x4xCc8r5RJLnRPBlneQ7Zl91yuqx5iEKTalIBz/DPE6haUH8/KIF8K07buSx69CnW1f49VH78QcrNkR8685H4Mn5zSey/sJe+8EeI0fpPLjm5jnb/PyF2vJ80thf2HtfWVkNnpi/GLe5/lXA3wr0Zf5fH7U/X0+yCd+4/iZ4fv4CnBGbC2x+rtJmt5xHTT1ccMxsWlYiLG45b8zjiGZYnhaeDSGfNAIy99U46JQpzOWJ1fR19Hv/O9fcClPn1P8rf3CfXnDqLtthH+yPWuaKxlQ2zazNbqpxEbN6rPEW8hHT2r3PK6dU5JtmOL/EBI5JWl61LIoyyxtzUrjzV/em9whlAgNjEGlsBvNLRg5NdR0Zpw4dGGeTzhvD6L4D4aZZ9SfWfXrha7Bg9UrYd8QYVLICmmj664iZNN6yXKqzzSs0AwMsk/nMoehYjzb++zQOnf7rY9f8GVbQBx9q0HmjjeA3+Itx3MB2l2B6v3HBk9PgN483/0v0sK22hn/alz51h2ianxbzx8j4Ow4fDjMXL4YXF9VfzPi5RUvlWoFD2l266/0EnS+2zTUM6VOm9EnSY7abKCeCTtFm/trOs6vzkhkD+/mM8ilnfIP5hZGtEI4KM+w3KPIFZH3typvgmqnNz9ufnnY0jG66rqdfTQ4NfrAxsLIsk49BXR3D+VmUOhDSBGqeP4P4+ooQf0V7RoNurJWtmR9yBIu5mWYj1gnL2CQpqWzaM7ukaZFh9bS8iHMN/f033wIOG13/vULCFS88Ad++j85+IQc1QmBdcXabyTctyaROG7lep037lmJtNqYugi6xLEQ31bFvTfPWvBfVSaOTEnz+xitgwarmq+r/y547ws7Dqq8K8rcEfbDj+/c3f/F//KaD4buHHo77ThNAd2XUMieJpptp7F/UWbM6baSZpf3H4YfD+MGZr/ck+N79kxs/nPK3Al3DkK4r2YQFK1+Hz116FX+tSeZFGk0IzQrfKIe14jlmT3XONw510mghrFpSolk47VnCKG/N/JDjpNNUYMwotIzlNNuaR2U+7c87GH7l8uvhhiftTEfVOGr7CbDHWPkPhoxT0XQdcd409yw0jWR5ZVowc6XTKUtIZVrntLIYSj7nG6EU40JzMhYtBKaJN+JDMR8VqRG8btMIOZ0wh3GeXh0x8zY4XWIBMy4irZxrhEjjwvJf3f2QVieuvu7Fp+Hrd13PP5AE2yYbyba9GNkxhzV+YGzR45C0Cq+0LcR8d3qd2FqsCRzjwmvjf7/rFnhqQfM5MI/fegycvb2exWcDw2srV8FnbroX3n5HHu8q9O/eHc459gTYpHNn3HeZBc8yR057RjM4XCdNKgQ5Tes65/gTeN11oPeGPnvTPbwvGyLoupJtrmH45Kuvwb/dcCvPgt0IXlPGuJgvZT/PtcyltAzaoOn26EgtI7tGJonMd9vMQaHpuqNfuuhauOXpaZypA51K7atH7s+95XcXR9mbrYNVqCUk3GKeBag5LHSERNairrbCS9Osdds34sNhaJjx2g6jaayNboFpafmI2REmTZWWd8yh801HTDfW1hLNfZV5INXaTBP64UHwX3Y/SEQDbpr1HJx57Z/gzjnTsT8NgkkdKGgenBNlZpTzbMlCtcQyZgXX+TwOhZKTvGkKHfOqVafsfVdHC/a1sUaixUVPPQ7XvNB8bcHtBg/i7+dtiKBLCH3ihrthecOnL+mqGOcceyIM7tXLzY81mg6ng19mrvQ6ZfUlokUnXGdPOOeEE3gb6rBszVr4xPV3NV4W6W+F1tcwfOoZuOTxqbjrNBdJ8/NHM8R57JSyuPW+aZa49H5otLA40wgujvtq2phCzhfrCJpN1RiEvGPZZ4Bbn5kOJ//yvMavSRi+pV+XKM0jryduuJBYPdZ4s7wwDmosbjlPC/NNs9R8yrJweWncjRrBNIWazzKFuTyxmqTDe4QMCujwGBIJmnxDk29oM856bw8W8J5bedFhq36bcsSXYWrA4jWr4OaZz8F9c2bA8F79YETvPphN3/PDiP7kCYkKNPmGNuOs9/wgmnxDUmfDP/7qHPja7TfoX43V2BR/AM874WDomXvfZwPAl255AB6dS1eUqMd3DjkM9h1N7x0r3qN5Dk8fYtLYcjykdy8Y2qcP3DG9/rqUi1e/AdOXLIcjt2x+9fV+g65heNCYzeCa52fB6oaD9f0zX4LdRo6AoXQJKZuIHPxEKeXmr2l+c3WGSPsOAS7BPmoaKOQz3OSX6gDumz4LvnLZjXDBg4/DkoZPNRs+e9BecOqu28twdXCrk7UJbO2B1S/ljcnHIFfHcH4tan03IlO0BoRbs98gn0fu/LV96MK8mGBTOWqU1ph9JFlgSrWyaf27QLQx3XPMPi1i1pJYp037MltcarI11GhByjzSuwzdHHp37Qr3vzKLKhoxf9VKuP7Fp+HuOTP5X1Vj+g3kD37IgAgbmFdW0bzv6mReEk0VrDMsi6wvoWqJinxoVqfNYuKq5nwS815fAX937SWwpuHMMTRXfzjuQBjZp5dmNiz84tGn4OKnmy94fPoOO8Lf77q7zoHNn80rRS6fMt9IWzNfGoGZNAunPSPGb7opLFm9Gp5+rf5f0TOXLsc+nWDX4c3vLb7f6NmlC+yy2RC46vkZUPdJf/oD6/bpL8JREydA726b8P7wdBDznCjTzZg6ap6EsGpJSd6Yghyrb83yYihHDRcWE7gDB9rX/EJLhW2byydMpyi87oln4TvX/AX+cN9jsKDhpOYGmp9vHHMQfHjvnTkONx1b2Gn2uCNG5qtOGSmbF0M1p5yvjUiZ4T3fDBZr3saMNAa2DvMDs+20YzwQ0tUnElCBHTDr0FRn+Tbj1EHXQxvsf140XbD6pbyx+VHdu7D9psNhaK/ecPfLMzDTDgvxgHjH7Olw2fNT+ROSW/QbgD/Y9MVnt0ZeETH1IGjeYPngV6CNb6utQ1Jn0pCfnwyrT1dd+PtrLoZX9SKrdfjhB/bkc09uiLht5hz4t7sfVVWNnYYPhx8cfhR0qrj4bIfmD4O6Oobzc9hr9Ch4+OXZ4SK3VXjk1fmw/eCBMOqvdFHe9cGQnt1hWO+e+BjUXziWnmv0hftjt9+GTy7P8+LmJ8vkY0BsMJ9hgfOzaPINbcZJN8hvMecda54OeL+952H46hU3wo1PPt/6AEig75/+50mHwQmTtrG1FIxB7fPQ8hnfYH4rNNXlVuBh+TbjBGS22O+4+p2W/csvwv/2irSyq4/yEcsnKuVfhAVbhfnpirNc6St8ug5t/Mw4t856Ab5297WNX0TNgV4VHjhySzht4k78KpMQVoOBra6WXZ0h0lyIGZ4ngxuBBzDf5VNu9E1akMeXbr4a7pjZ/CrqIzuMh3/ea0dVGxamLV4Kp13+F1hTc702Av2hdMlZH4K+3fCPnar5L80jct3jEXyUDPMVJb+MZWvWwKl/Oq/xYNijy8Zw6cmHtfpS+98C37t3Mpz35AuqqnHQuLHw05OPw8jPn81bBTf5hlBXAd9NKRoNA9ucKJ9yxs/hkZfmwIUPTuH3/5o+vJVD586d4CenHQMHTshfszSgagMYbguZ0i137CeghW/HC0OopjKvUyYfg7o6hqvLwnWIXxFWdTC4jlk0+YYm35Ctcyvg9dme+olVjXn6t0ruQB2x+mP7DYKJg4bCbXhAbDpjfgpaz4yli+DaaU/D7S+9QJ9C4n+bRh9qkM0Km1+JJt/QZpy69TX4YmOBPpNM07z96tEH4LJnpnK+DvRx+e8fTP9KrFjJ3xBL16yFD151G3L9h2PoSg6/PelUGNaH3hd2kAmpnL8UNAVWnmXyMYjr7HlqvjxfraIrXeVh1Ci45umn4a2aX5b0ycK7Z78Kx48fw1f52NCwFz5PHp47D15t+KTrzEVL+OoqkzbfLMybIT9/jmt8g9UVyFYIc6HTKfsV1vooFWvefAuunPI0fOOqm+H39z0KMxYu5se8o6C3In5+5rGw39bV72WbNPjNtbIst6hjOD+LUgeCS7CPmlZUWoPjJr9UZyh0p2VfPZcqJOH3ELUdKMxPDxxBS++yDnXmF8zAIKwuh1KHCrTx246Dda+sXAbnPnYP3Dzredw+6rhu6L1JVzhu3HZw5jaTYFivPjq8bUhuHhMmH9efq+MNDT5KhuZTBL8BTXU6/L0vz4TP3XBl49yM6NMbLj/l0FZnE3m/Qa/6P3zNHTD51eYPx/zkmOPgoC3wr2qe6OLxK1jh0zk0+YY2fjLO7dOnw5euukZVNegPEzqRAX1YZUMD/WFy4iU3wWuv1x8M6efhF6cdB/uMpYtPu/k3tN21dZjnCIlv0hBsDKysil9Ztpw/+HLV40/DivU4ZyzNzZHbbQ2fPWQvGNFfTvlXWiNvkHLO93WsDYkO46hOYeVVvqHCt+4GXh0xtiyTj0FlnfMN5le/R1iHMDKrajTVWb7CD90xsGGyTD4GUmcHDPOTA4fXKfMMvQt9unaDQ0ZvBQeNHAevrVoOs5e3uyZdirVvvw1PzJ8Lf35mMjyz8DW+Tt3mfdyZVPzqc7B8lW+o8G14C1rNYy5vjMHMpUvgk9dd2nhtQfpX3J+OP5jfA9oQ8b37p8AtLzafEPwTu+8Bp2wnXwC3+THk5idiy6dMgcLyEXyHOrAvhWMGDMCfgXfhsTlzKFmJOctXwsq1b7Y6Cfb7DTrV3l6bD4FrXpjFr2DrcPsLL8IHxm8FfemrAJojRNPWZv7q5tnytePgAPyA2kAZ5idEuY5S9784C75/413wvRvugKkvvwpr1+PrLvvjq7+fnn40nLrb9tC7e9eqrSkYgyqfQT4m/PM1guWrfEOTb2gzTmmD3Jbb/CbzXOKSj9Gyr537bu7AwRoT7V6RpAMnTMSwfAJfXoc2/nsxjkHrnlwwF3704J3M64tRffvD6RMn4SvFbfBgsQlurs2fwc2bsTwQwjnf12V9hU/XocJfufYNOO3S8+GV5fXXyKP9+dWR+22Qv2wJVz0/E75++0OqqrHP6DFw7nHH4/7Qv7fdfDY+DiYtqADZdfDD5pD6+Bz5zOVXwb0zZ2qiGv950O58YoMNEXTJq0/ecBc/5etAr3gu+buzoBdfCNkmwnWi+eefG9VVqPBttDAMsc+nXFPHUJ+uzXnlY0/BRQ9PgZcWt7/eZBUmjRoO/3zE/rDNZsmH0XgDdIMC3BZFvuUz3OQbQp0gcWVeMMFMGlvETb4xBQrLR/Ad6uDq5F+jHehQi/dkHCzQPZVy6+AOxOhXHaAjrvQVYRzVVVB/yrxX4OJnp8BNM5pPY9SEbht3wYPhtvxv05F99VWi7GZYXyXa+JlxfJoZg0gz2zyp7+b5k9deDg/NeQmdenxx9+3h45PqL4L8t8LUeYvgjCtuVVWNLQYMhAvOOBO6d6n+t67MDwWqsUXzqX5+no1lfi1h81/A9aA6r1NGf/Ubb8AZF/wZZi5ajLl6XHTSB/jTpBsi/ufRp+HcR55UVY09txgJvz7zpNI8GyLtjQBXQWQD+XlNuY0fjSOYtWgJXPDA43DN1GdhdYsLVTfhiO22htN33wF2wgMhIV5baaui+cky+RjwZivMZ/gOdWjjh3EsyHCYvxo/+3gpgq+6Cui7V4TFL7zcgYNXQz4OzOtlFH6EFiuWAVlVYwMdZ8GqlfDnpx/nc5EuW9Puy6x12HPEKHyVuBO+ghrLcyu/GOkBtA0zJFq3pxJWXlXX5BvQ//G9d8L5TzymiWrQtQXPOXwfVRsW6FJFx198EyxpeA+Grv938Vlnw4h++AdKyx+kjjx/KtE0Tsv1zFm2DE774/mwEg+KdRjQrStcedrhfKKDDRGfu+le/mpLEz6y5y7wjwfv23p+Wvn0sCPTcAY/PLP6pbwxBvRe9F0vzIALH5oCD81o/ld8E+hfwSfvvC2ctceOsCl/J9etsfR7I+EmP9QhMSyfwJfXIfHT0fzm2HAR1/gGqysZOdT4fCDUWArrBuzICrHOdsDguzOrX8obk49BXCcHaAb7dGAWx/WM2Q+UrVME35D62Kwb4o2334Ibpj8LFz79GExfUn9VgDYY3rsvnDZxRzhh/Hb8QRtbj6G0dZh4z55IlXgXbn7xBfiXW65TXY2tBvaDi0/8wAZ5WaW1b78Dp1/5F3huQf0rJfre1a9OOAl2Gzmy1TwaM5yfRalDgqyfJlDzA2b5DKP/0KyX4JOXXgHv0IbXgE5z9md8zDbpXH/Ktr8F6PRwp11+C0xbvEwz1fjhiUfB4RP1/LV+unLw01UH9jPza+yfGIm/Ys0auIxO0vDIVJi7bDnm1g9bDRkIZ+8xCY7ccWv+FHO8NmW3OakfoZRIUNkxwfqOk/XTBOqaeY448e2FXNDo2ws5yRYv5Dot+7q8IvQDdHzFhkT78hyafEOTb2gzjlufSUOwMbCyLJOPga97aO5sfJU4Ge6e/WLjL58m0BP9iC0nwAe334W/qN/8OJi0oAJk18EPq3hu4Xz40OUX8gd/6kDXFrzqlMNgaK/6az3+rfDlWx+AG6c3/1v3KwccAGfvtDNGbn6N/QMf+QqfrkMb31ZXyDKTX1N3/mOPwY9uuwujetAJsP/r0L1UbVigE4efcOlNfO7UOtDXBc7/2OkwfmhxBh2bF0M6P03zV+cbrM6MafMWwvkPPA7XP/kcnwRgfUB/lO2/9RZw1p47wu5buNPk+Q0oIdngEGTYb3iVzxOAkrN2YBGUDywVTD4Gvs4QaW/kQH46gEeTb8j48opwHTpGqN0AZzCZptVWHbHtSF3BJd+PiuwSls/Cd8yhyTc4/9WVy+GCpybD1S88xR8uWV9MGrYZnL7NJDhw9Jb8/am67bHNNV90xfw1zDP1XLB6FZx5yXmNl1Wikwn84dgDN9jLKv1uynPw4wemqKrGsRMmwr8fdniYSHoe8XwqNF2w+nHe5lF9nWer8POrBcLqZ7lUZ0g0yQT/fM31cPNzzV9U/5e9duSrQmyIoEtKfeSa2xtPdLFpr55w2SfOhv49/B9jufmr4EpfEcZRraDvb/7l2enw54emwOOz1/8Ddb26bgInTNoWzsLHZHjfPmF9ydZEu+W3tsQt/JCoQ7bOJdhHHQ2Y4Tb+Oj7fI1h5RZ2thnx5RagJZskHRNobOZBfs+KA93KcurqOjBNQdJDuqHWCOnKAXvXmWv5y/Z/xoDhr2bp9/cJjcM/ecOrE7eHkCdtDP/pB7/B+ZSA7mK2jV4AfuuJCeG5B8/fsvrnfLnDGNluq2rDw4JzX4O+vu6vxVfp2Q4bCH04/vWMnQGjyDR2pq0MyjpfMGKQ/x2/g4/jB8/4Mz82rfxzp1cdvj96fv2e4IeL8J16A/7xvsqpqbDd8KPzxY6flr87hJ0yJpCHYGFhZHS9ZtQoufuQJuPTRJ2HBipWYWT+MGdQfztxjRzh2p22gxyZ0YnpdE21Q3Zb4Bz5bp/DpHJp8Q4Vv3S1onMcan0E+Jni3cih1qEBUl3YQzQdCSSA6NGAhDf7xsLIsR37+wMIVWBjplP0Kc36oQ6qDL6/DOoxDrwgeeGUWXPDk48yk1wf0L6BDx24NZ2+/M4wfNDi3t8XqMSg/kVwFd7CCeAR6T/Dm6c9jXA/6CD59FH9DBH1n7sRLb8FX5vX/Vtu0Z0+45IMfggHdu8ezgEE6f+ZHKCUqwHXpCG6N0QpdvtE3WJ0o03SR21N+dx6fpLsOdOKDy085DEZsoCdGp6+80FdfmnDs9hPhP44/TJXNkyE3fwk3PA5P4B9X9OGXW595Ad58u+OnPvOgP5732nIU//tzH2RaZ2mtGNjmlLdGmBGCCpQ6VOA9HSctdFvud8znW/p2vIjKS1WOa/xOy/81d2YZlAwrTRD8BjTV2fBt6upQMY6lDa0mCoP6OnwAqCAgU+kHcvnZy5bBBU89Bte88NR78vHpbQcPhTO2nQSHbrU1n4i4ErT6NtC686c+xp8SbQJdW/CCEw7Gv77bruD9A31X65TLbuWrL9SB/rA474wz+GrzxeNVgabdtO5VdYlv0hBsDKwsy+Rj4OsMkQ4d5CK3Hz7votrTsBHoXKSXnnwo9Kj52sjfCm+98y6cfeWt8MT85q+G/OuRB8Hpu+4Qz1vKGFT5DPIxQXX0HxI64fWfH54CT78yTwvWHd3xj45jd5wIH9xzEowa5L4+VYLbMv/AV255G9+kBYJYie16lZl8DHJ1DOfXotSxAus7To3faRkfCCvQamAs0D2VcuvgXuGhb6/satnV2YpFK3jGaX2qUxTd6tHkG9qMU7e+Cv/1N9fClc89AX9+agrMXdH8ibgmDOjeA06auB2ctu1OMBDj3HzzhlAe508O5LZhMdP3BD917eWN/0qkj9zTR+/pI/gbGmjTP3nD3XBPi/drfnDUUXD4uK1l73Ea7Okss5Fjmz9B+nxl9gP5fOs6RfBVV6GNj8Nc8/Qz8M3rbpZcDehECL86cn/ZrA0Mi9e8ASdcfBN/FaYO9L71/334ZJi0+XCZx2h+Ew77aXlDJ1iwYgUe/J6Ayx97svV1/+qwWf++cMYeO8BJO2/L7wXGa9OtwqD5eVjvM0qJBE0+Awv8ikodTGud1yn7HYt8RfBVV6HCD6PaMMQ+n7Krk1eE5NShyTe0Gce2JIcm39CROgffjRmD2g+NUL7Ct5GsLh7ZkGiSDnSwufulF+GCJyfDI3ObLw7cBDp/5MFbjIMzttsRdho2QrMZ+M11oDPGnHbx+Y0f8qFXUX8+8ZBWVxj/W+C/H5wKv338WVXVOHvSzvCVA/ZX5VAxPyU01TX4ZpvvyyPGoPUPtmpD8XxFIP3o1jvhvEeb32v7xM7bwBd2207VhoVnFy7hkyLQV2Lq0Kd7N7jsEx+EYX17leYny+RjQPzIrDn84Zfbn1u3Kz+k2G3M5nDWnjvBAePHwEZ2piJaUd0W+Q2q9VHWwXerQ+JbN4PfHBsu4hrfYHW1yHXMoamOfSzgFVphhtGXV4Ski3RAKMegdgKMXZ0h/UFsu2G1fqmuAr48hybf0OQbkjob3uDnx1Zr/OKSRXD+k4/BjdOebbwkUBtsPXBTOGP7neCIceOha2f6N1e6Rt0Q1avffAPOuOQCmLW0+YM99FF7+sj9hogbX5wNX77lflXV2H3kSPjVSSfhFIRnZxl+unLI+i7BfjzPWfZPjGydIviG1Mdm3XLA/DvvvAufvPgKeGhW85e76cQIdIKEDRFtH+ctBw+EC//+TOjWpbPMX8080/cWr5vyDFz4yBSYPm/9vxfcdeON4cgdxsOH99oJtsDtKK0Vg6rfBwzn16LJN7QZJ9qABFk/TdgGWz7Dfsddnn4S6XgRNPryQsSq7IWIasrrMEUvYYPV1QL9Tsu/kXxYJh3Jo8k3NPmGNuO49XnJjEHVRJTqkrwh0hxUVSD7Ffp8Wz/UITEsX4Au8nvp01PgYmzzVq7/J9H6dOsGJ0zYFl8lToKhveNr0dnm0pPrc9ddCfe+1PxBhL/fcQL8455yEuoNDfJK4S+N33kc0bcvXHz22dCL/q1rD0sdKvzw6GnA8+nyJW7jY8BPH4X5DN+hDg0+nXHm1N+dD3OW1v9bnk6McPFJH4CtBrgTxW9A+OH9U+APU5tPd3jQ+LHws9OPVYVI5pG+8H7Bg1PgyslPrdeVHwxD8BXo6bvtAKfsuj30xVel9Y+HPeC2QTXcVBc9gfyBReBt16vMLfyQqENTXUfGqUOHxkkLRXda5g+EDFcYdaw7YtuROuHgh9Wpb7A6DN1qK9HGrxvnvVqPoc04NevjeXG/+aRc5o8+1HD7jGn8ncSpr63/d5Po4/H7jR4Lp2+7I+yBr4Y8fvnw/fDrRx5UVY19Rw6HXx65L4+1oYHfO7rkJljwev37OPQhhYvOOhtG9e8fzTc/TPp40PPWHjjzWUuBPl7iZ7nkJ/B2HZrqOjJOglmLl8Dpv78AVq+t/9DW0J494IpTD4d+3TbRzIYDemuBvhpDX5FpwucP3gv+ft/dVOG0Yd8HZszmT3/eO23Wep8Eg7Aj/nzQqc8Onijf+bWHx+CfPvawZbmFbwnLZ5E1XA8eB3Xp+arsNzjn+7oob0g0yTr4YTKwzTHfl0dMdbm8sUtYXl4RUpSD61CLJt/QZpy69WX9IiG2/CIrfsHVcE0dj0s+zjxPHEPzBpPBr0CTb6iom7ZoIfxx6iNw3fPPaGb9MKb/QDhj+x3hmPHbwIMvvwRfuuFqdaoxpl8fuPTkD2ywnyY868rb4Mn5CzWTBz3e5x5/POyzRcNVF9o8ni0ed3re1P7gqs+c840j356fAnser8svrHtfnAWfueQqfo7XYedhg+APxx68QV7DcAUeyE+69Gb+qkwTfnn28bDTqBFwFb7yu+jhqXwS7PVFFzzgHbbtOPjIPjvD1nxWm/I8l7j0eBkSTbIOVl5V1+Cbbb4vzzIGjT4GvFs5+A51iPy0g66g7fO9ri74eKdXhKzLZcrygxZpjgQd/kHM1imCr7oKTb6hzTi2GTk0+Gab78sjxsB2O+sbu7oCVgGwaM0quOypqXDRk4/DkvfgZN/06ojWt6bhqxy9sO7Skw6DUf02zO+XffPOR+HyZ6erqsZn994b/mH33W06qxEeEBIWZJgfqAY/+3xPfZR18N3qkPi+GzMG6fPwl/c8iO0BjOpBJ0ygEydsiJixdDmcctktsPrN+vfWe3TF5/s78J58dYlOfn3GbtvDabvvAIN69SjPs9cZZri6LEodEjT5hibfwHXpgKaR/RPI5xt9gb3Q4LTTabUfJso7Zri6LEodEji/0/Jv6ivCug6GNv56jGPdDXUTwUw+Brk6Bvt6oA5IK3WAXL51ncKnc2jyDQ3+W/jTfNMLz8Gfn5wMT89f/+801WFDP+PIn5+aBt+9p/mqGAdtuSX85Dj3PhGh4fHg55XzfTmz+sw53zhTZ4i0N3IgPx3Ag31dUYB1cMx+ob946bVw+wvNf0j8/+EahuuLicOHwNl77gSHb7c1dNlYP/0ZPSBO8/SW5zuwf2Lk/FCHxLC8IFaoMZHpXTD5GFTWOb8WbXwbuA5Nda3GSTfYOjiOdizjI3da9s1zqIIT4QiNHeyVX5bJx4F9nQ0oWhE2QHWKols92vh/g3Gs3BC6Y1A84WzezHc68mPmkWh+dZ5ZW975U199hb9+cduL0xrPxbgu+PIeO8Df7TRB1YYFOQflHY0fb99y0EC44Kyz9Kz9bn7dPDb9oIS6rK8I46hO4bvVock3NNTZ5lgdkd9q8+kqKmf+/kKYPr/+k5J04oTzT6BrGA7QzIaF/538DPz0oSdUvXfo3LkTHDJxK37/j94HNETz6HUVuzpDpH2HHJp8BhbQigKsg2N74Lku4zfWKYKvOoXvlkEYTQMezuVLXOMzyMcEb24OpQ4FOi3/VvphGYeqAQ01A0dYx3EkXRgy73JgyB5AKF/h2wqsrlghsUG1t+vQxq8bpyPraahbuOp1uPCJx+Hyp9+bayQSNvSrEhx/6c2wvOFTfvSp2Us/+EEY2qf3es+zPP8oUI3NZMRUl8s7Zri6Ai7DHVCXnq/KtkFVvq+L8oZCv7ZsJZz8f+fB8tVrWFeBTqBw2QZ8lZG21zBsg/jafz0z85hw5eOhCL7q1DcEvwLWLanzaWYMbHOifAuf4fxalDpWIOu7jjxOukLzNR98l0+55BsS7co6LcMDYdzNDhyWQKfDK059kxYYEk2yDmEcVtVYx3F8mhmDSKdMPga5Oobzq5EMUBrJMQ9U76996y244YVn4cKpk+GFRfUfHqnD+EED4KITD9lwr1N3xa0wbdFSzeTBZxc59RTYabPNJOGnK8Al2Jd5jOY15TZ+NE4FfLcMbBjzfXnEVJfLG5OPga8zeD15zivwd+dd1vgKe6sBfeHikw7dIK872ZFrGFZhq6ED4azdJ8HRO24Nm2y8cXYeDdF8hkJW1Wjj/9XGcQn2UfMOWT7D0Y4XeXuhYShegFhVot0wxSjCDOfXosk3tBlHN0BeEbpELZrqOjJOQNFBuqPWGat85WdMfkUdjxt8Hh6h+RTBr4B1a1NXh/d5nCdemwt/mvIo3DGjY2fH6E/XFtxAr1xOH3P/1A33tDp92tcOPghO32lHVRk0zB89b+gH0+r8tDOrz5zzjaM6e34K0uer9sizH6jWR8kwP0Hwy/jzI1PhezffrqoaG/Jp2Oj0a3QaNvpKTVvQH00HTRgLH9prJ9hxFP3hlJnflMPjYEh06fFIYOVVvqHCt+4W8OpcvsTk19U532B+hFIiQRiQRDqC05Gf4WiD6nyUDPMrEOrK6PzV/Y/4Tod+ELN1BvNFlX2F716HpjrLtxknAxveAp5Xly9xGx8Dnh5F9IuPyQqyIwhHAzXUsTbEekjv3nDollvDsRO3wVeKb8MzLT9Y85ujD4At8a/+DRE/eeiJVlcgOGHbbeGz++6Nkc2XIZm/ph80z6kf6pDaoKnOD6tE0sCb6xlbljO+wfySodhus6Hw6rIV8Ny8BZrJY/aylfAm/nG154ghmtlw0LNLF9hh6CC48rnm5wnhlF22g/8642g4eZdtYUjf3jJ/OD9188xwdVlYvso3tPGjFVeA/bTQbbk98NETIMMlX0C/x+j3WVFmLzzi6sAYZPPG5GPAq8vB8lW+IQzIqho1/ka0M1wQtsbplAmmozppXCILbhwym69Mvumcb43rKOVyQZPlNI1k+ZT5Vs7TgrWEHBAxm065zqdQNYPztJCYYYVsEmWYgCxhkWedMpqyDp9XzX07wfDefWD5G/Xv/Rjok4Eb6gV26bRabc4hut3QofCNQw+R+Qjzx1PBi8Bsq0YV8qlPnPjRc8huFrNX0ep89mxsDpxOtoGl0555JNUitZlPMTUVwZf2raMP4ev6NeE3k595z96Pe69Bz+Fv77+rqnosen0VDO9HF8B180cBaZaad6xGrFOmBWuKiZ2m0GKF6RKzqZpCy6dMJi5JW6OFxMgsVYe6DMsoLi+NDPGdlqTqDNf55DJJzGyamHPKTKor6mRMkk4zWwkFTjvu/NUD5BWhvXKxIzyDKviQrboKbfz1PGIzmsZZz/X47swYRJrZ5kl9nB+a8Hj+tAfl1c+NFJiIYXlDokNdBaw8qfvT44/C+VOaT7RM3xWjky1viKDTp33mxnsbLyNE1xb8/ZmnQ89N6Iv/fkJonpHDn6Aubwi+6iq08W34OjTU2eaY78sjprpc3ph8DHydIdIa0FdmDhq/JVz/5LOwquHMM3fMegUOGrMZDKRTiW1g2HbTAbBw1Wp4ekH9F+dn4nOLPlG806jh+fkzxiCaL0SkfYc6tPHDOBZkmDaoyX+vnu/W3SEZLZqfLJOPQWWd82vR5BvajKMbsBH/0qY7rT2wNkKIXT5t5GV8G5MXpkklfsTBj1lCp7WO89boxqzN8mnzvqsjUWKkOC9J1pQKOmYrYC1RkU9ZAiFmaWJ5zQlh0561r88/NGc2/PS+e2jgWkwaNhi+vs/OqjYs0Hs9n7nxnsaTkdNVMc496QToT+9t8hxg0jFRpANTrvBZo/LzGLEMIFo5aj7HQ1KcYa6r9rnCNEvNc85pSbl8whSaZlE0y4uhwLh/z+7wizOP5zmtA3045RPX3Q1L19Rf/PhvhX/dd5dWX/f42a33wYMzXpZpwEmReUnmGwMlbYUvhnIap82Q5MO6kILGQPIVXOGnzxlSIW+NbXbUr2jeczEu6B7rsM7CD8x9nU7Z+Qxi1tZUGywOftxsmEh7Vo/0RnJIRNChWIIys+fzVRpbqKXXRsSEWAunGlm3oZTXyNeZFpZmFYVG1iDolsxAEekstCgUpj1MK9sGpfkMS0RLadK12OtaxuI5y5bCl6+/tvE8ivRR+HMP32eDPIUWnT7tCzfdy1+XaMJ/HHk4jB9s/9a1fS5YItU4J6ZLzIFqrqOonnM38YpK01nmoMIvbash1YhSYt0xfuhg+I/jD1dVjddeXwWfu+nuv8r3WNcX9N3H/zlq/8YPftHPyJcuvBbm8KdNbT/S/WnSio5Mg6u1sJ6Lx7zuOUPLoDEw7VndWPOglrW86RwTVLvnadEIGeawwpcdo6CwGJFoRBhG4UaNGYONwmGTmENl1HLkJC2NNZrlo71q7uv9hM23G3uUslg13zRvHOoSdj4tQp40jcN5toIftKSEdWG+NfMZFjufC7ymhcYylmlcN9u2DRn2PqqQp8DyxHaTBHPU8EanTfvMNVc0XluQ/iX066P22yBPqkz4f/c8yl+cb8JHd9sVDh+/tc4PgebCMc+NMqdjX+auyMs8Wr6icd9MrE3GxqY3FHRXdprrNM/S1yWsPgcur4bmrSWaYIyQvkUzTUQgffg24+CjezWfWu2xVxfCf97X/O/3vwXou4+/wud401eBVuKr2k//6SpY9Yb+OzjMX8I2QzxhxNLkMU00hUEnzKbTjrmZL6R5ecyLJs8JWrI2pnyOnY9hkacFr4OFcqK5r2oxC+2ZPPUZ6knjhHDkl1nWoZpJ84mP98Qn4VhItHLaNrIjOzf9a4AZmx3lOUdKY2bnM/OypW838qjEYr65Ss4pW12Tn62Txhn2pRGkQpnuUhjnjfkurAOK1khCYmkiaSlNMrgMvmNeOt8459vN1XHT2zvvvgP/dON1MGtJ80mF6WsVT85frGrDwkXPTIeLn3lRVTV2HzUSPr/f3rjnBJkDmRfVFOj8xH7BNn9WF92cH9jfvJfz7ca+bgEFHKlGJjOwBAUzNfjGtOBGvjgFCs2W+VQrQcEc4Cvyg/eB3cc0X3+STnfX5hO9fwvQe8ylqciA3i/88kXXyxzQnOgcaIIWBduARNhs5gzhMQ4+J7XKMfuOJVv4pjGQ55djfyOfWVt6s5z3q+qw8WjOt7VhsmCrI50y15FEDnWc4CXlA3PomJfCVsdj8D32Zel9Ei5vTQ0uoyaKWd8jrGhZj9IStz9i4yLnp3Wkuc4aOiHWFvlJq/OwETgmZkFaEhGzpdo4qcNAtCyCFtZG8Dpp0hebdMRQ8xGzU/gUpb5nxIo33oBXlrf7QjF9BP4bdzwM37t3w/pr/tG5C+Df73pUVTVG9usHPzn+WHwi41/7vPs8Edx4OphNcyLWnrVvnKdQYvFV89CUz7BUis7V0U0M9aWxZlYtqUKnTKFpFoW2RusM4BwlLVZNsDwtNM8WLjbC3xI/Oe1oGNXiuoRfv/0hePy1dT+Rw18D9Nym5zg919tg7pLlsHz1apkKnhMEz4WEIU6bIcrjQmOioHFh81tisht8ey5JnTXLuxb5Sct6xRgyNi/xxitlXWLvG+fqiNm3hosQYyPk4rQpZMyimSYKmkLLM9u2qMaAWN8jbNH4cEqNILEdkfVQG3Qt873GZ7YmGWu0iHQV40I3qbLOYHUFShXVzGGN7zmsiFiaZLxGxjrba2GJmjWyrqNP925w4RlnwV6jRrNug/OefAE+fPXtsOyNv/2HHuj9wC/cfK+qatDVM8456XjouQn9W1f23XMxOxThkhNOk4y04/A4WMZp9jhids46MkWyNG0IOjU86rwUpdqqNRbbSOjVdRM458zjoQd/Grcen7vxHv5S+98a9Fym5zQ9t9tir61GwZ8/cwafXu29RphpDWx+LR9r5eS5ZkzLnPYs9+KWr6IiXPIPh2Rj37QyB6J8XtDA0tkh1YqKdAouc7UWtmYNiDot/7fiXKN0ZOQktiyTj0FlHfv2dQFDppL9TL6yzpBoWaGkc7DyKt/Qxm8xTtgcYtLYIm7yjSlQWD6C71CqKEai6BcP3Ae/efghMlphs9494ddH7w9b0Peq/gagTyGeedVt8NyC+n/X0kf8z8WD4N5bjImmgxmDdJ4NkQ4dWJXRytcVBVgHx36Dcr6vy/oKn84h8ZPehY2BldVypu6eaTPhMxdejbtDmWpMGNQf/nziB/5mp+ibtngpfPqGe+CVFa9rphkfP3B3+Owhe0Cn8KEx23NBrPLzEzH5GOTqGM6vRZNvaDNOtAEJmnxGusHWwbHf8ZyvTMcJfh6R5Kx9/Uyr1Ofh2K9gChSWz6LSAOj8tQOP+I7GBWo6RGiqI79uy5p8Q4Vv3S3ITxhNrE4wTazXjm2A4kBeHilwyU/g7Tq08evGabGe3TYfCROHDIE7Xpze+B08Al3olN7noTPL0MV432/8y20Ptbvi+H77wHHbbYv7jxOwHvPD6EhdDfj558bxwzKrz5zzjTN+FlnD9eABUJeer8p+g3J+qENidIKRA/vBJht3hodmvKy5PBauWgMvLV0Bh43dXDPvH26f9Qp/paPtKda6ddkYfnr2MXDq7tvhVISdjaehEjQ/viAzf8aN84ycfTwUwVddhQo/jGrDEPt8yjV1DOdnUerQgKa6pvGyviUc8wbH+c5fO+io77CBjZ8EfKcC1RRZPscVvoSJDqyNbiF2+bSRZ76rI+FzrJEsLyxJZk457Vg6OK11nE+Z4fNJY4/2TWIZs4JLPoWqWYhGinwJHavPOuHR/fvDQWPHwj2zZvL7h02g91LoLC406q7D6arb7w9+8/izcN4Tz6uqBn069J8PPpD3mXaQ54W2Vna6YKowTnxrXKIeNx7Sae7iOPhlxijWgTkMvkSyiHxjCUWbqGqEKIcLiwlBF9sUtPrMuDS/xNJBNPLOozaD519bwB8sqcP0JcugBx5kdho6SDN/ffzi0afg3+9+tPX7gXRGmd9//GTYafRw2rW4EYwJiW/zY7D5sXyWK3x7bkU6sDa2LVbONbtZrHlcCGuOtVtnlit8NQrNUvPWaMGssFh96ZtoCr32zKbTKTufU7pg7ZnLVCt3/toB+IqQnBwsX+Ub2vh2AHawtIE2KD5OJ2x+ps5gfi2ijulIjnmgBr/pLziuE1kJ370OiW/dDH5zbDjj/j16wHETt4Epr86FV1eswEwzHp47nz9td+CYzaDLRn/df3HRhVW/eefD0f7kMH7IYDjn5BP0O4+2h4rwOBhSH5tNSAY2b+b78oi1rtbHwNdl4TvmYPnKARS1froh6QpNa53XKZuPfMD4LeCO51+Exa/Xvxf44CvzYBIeCEf06aWZvw5Wv/UWfOnm++CSFp8yNuyMB78/fPwUGNqvd7GbdWjrR3XpwG4eOZ9hfrzKdfRLm/6DFTT68h8tX+UYg4gtj43h/FqUOlagrf9ejLPO21N0lHlBjUGn5f9+7ruVE4VgHRnZCuGoMMO8olydwepElX2F716HNn7NOH5zrSzLLeoYzs+i1IHgEuyj5vkzmO/Yb1Div/3O2/Dju++CCx9/HHU70GV3fn3U/n+1a9DNXLoCTrv8Vli5tv6DOv27d4dLP/ohGNy7p2aKvWP43a1Dk2/gunRAN58189zKD3VIDMsnsDJk71p1YPVLeWPyMeDNUZgfoZTI47XlK+HUX54PSxo+GNN7ky5w+SmH/dUOhvQ+4KdvuLtDl146e6+d4CtH7cefiDX4+YnmLeWMbzC/ZOTQxq8bpyPrab09aaFpZD9BqEsHZtXFAbqCwzCW59EjZoQ61SlKHRI0+Qb04/cIO9CxFh0Zp6ZOJgwLdCak3CbU6TChFSwD8TiWL1ZMrOD1OJ3Cd6tDG/99GMds84loLvYZPQbGDBwAd734YuNZZwiLV78BV78wC7YfMpA/TPNegt6T/Ng1d8D81+vPHLMxviL939NPxu3urxlExX4H2ARU1TX5Bq3jp5FkGL47s/qlvDH5GOTqGKUEIa1EpgFy+dZ1irBBqlP4bhnQJ0l32HwYXDf1udrn0dq334F7X34VThg/Bro0nLKto3hk7nz4KD5/5rY48xChS+eN4AenHwEf2Xdn96EYD7fDvP80P34iHIf5q/B9XZQ3JJpkHfwwGdjmmO/LI6a6XN7YJSyfRaWhcOPUotZ3AzCZzrBNQGm+m3yMln/3nHfrDiDZPN5sYPtUTxZ+fXVo42+A4/C8FrLM7OfnjznMX9Eznd+qB05gdULMdUjqnpk3Dz5/1VWw4PV2n6yjf0d+fe9JcMa2W2lm/cDXFrzxHrjnpeZrC373qMPhuG0nRrPgp6fI2/wJbJ7z85hwG5/HQckwX+HL69DkG9qM49Zn0uB328qynKkzRNobAe/C1VOehW9ccbPqarzX1zC84Mlp8P37J7c+tdum+EfcuR8+FiZuppeOou1Id9jBbPN9eZYxqPIZ5GOicv9LHSoQ+WkHXcH78Xw3BD9GWs3DEWPLMvkYVNY532B+hFIiQRiQFaPz1w46svypUUOmQwTLV/jW3XzTJcagdgKMnV/AZbgQNc9U1DPmNn40jiHRJOtg5VV1lq/wrbv5pisZg1Y+JRCb9uoFR2+zDTzy8sutDoY0JXfPfhVexb++9xs1jL/CsD74yYPtri146k47wD/suZuqDPyO1iHxfbcwPxhUzqPlM77B/FrkOuaQrXMJJtS8QstnuMkv1RkS7cuVSG49dFNYhM+Jp+fWX++SrmH4Nk7wHnYgWkfQB2G+fecj8L+Tn+HHqw3o4HfeJ0/lT72WoPtTiWi/3QQwTCO3fRxKdQL7A5nTTqfV1L32eYqN4fwsSh0SWL5yAEXTOIamOsu3GScgHRC1TpC9kBNf/kC2P5TtD2TT8oqQOmLCOpS4jW+PTLZOQbIOvlsd3qNxeLM1JvhuzORjYHV1vsH8CL5jqcK0DeR0ytEK6+qQGJZP4MsR9IvlOzffDNc903ytPwN9EvCcw/eFAd27aqZjoE+lfvmW+1VVY6cRw+F3Z5zKVxAv9qsCyX6VwD7Njy+wDo47/DgYEh3qVKewcvWT3oWNgZVlmXwMfJ0h0qEDqzKafEPGp1P1fex3l8LkFq/uzzl8Hzh4zAhVHQP9m/5TN9zVodMCHjNpAvwbfadx443C7mUZg0YfA+JatPFt4Dqs7zjspxtsHRxHO5bxlfnAgXX+ACKsVRikz8MsU6CwfATfoQ5t/LpxnB+/InwPByaYNAQbg2LCbELNdzryY+aRsKD2e39hRSgZ5icIfgOa6mz4qrom31DhW3eDzE88bMTkY1BZx/67fJA5eKut+MMoD7w0i/s0gc7+cu20l/iv+6Yz+6doe23Bob17we/OPJXPIBOBdqAOfkdrYPNjdb5bMT/KOd844xvMLxkBrmdUmGG/QU11UT6Bt+vQVOd8+hk8aMJYuGHqc7Cy4exE63oNQ3refPDq2/jDVW3QuXMn+PoxB8IXDtvbXVkFN5jnx2A76Hid59lYEcZRncJ3yyCMpgEP5/IlrvEZ5GOCNzuHUocKdKSuDjxOukE2sObbPg6ZOjteGIoDeNSbudPy/5D3CC3FhaUVG1R7uw5t/Lpx3qv1GJI6G97g59NWG3HWLyY8sJs/y/se0UA+X1mHMgdfXocO1E2e8wp88eprYBmda7EFunbuDN8/eI/WX5ymLzmffOnNjZdVoqtiXPjhM2HspoOSzXY7wvul8+Tnzbgj8xzlDeYLMdehjd+BcazcELpjUH4eZtjVGcxn+A51iPy0g65AVzR93gI441cXwZo3668dObRnD7ji1MNbX/Xk2hdmwbfufATeePttzdSDTpH28w8eA5PGDNeMbLVtPTNtdi5vTD4GuTqG82tR6liBrO868ji2Qss79huc831dlDckmmQN/Or8aIGbfGOXsHwWlYbCjZNFjZ9/j7BiID8OMwaRTpl8DHJ1DMuHRA46QEA6kmOua/CzTxSF5Ynq0Ma34WvgN8dvTWDLV/nGFCgsn0WloUB/WO8+cOSE8XD/S7NhyarmT+LRez43v/gy/4LaY7Oh0bakoGsLfvL6u1p9zP1Hxx8NO4/crHaHbF7MJ4rmxVjran0MfJ0h0t7Igfx0AA/LtxknwAbMME92C79UZzA/UgGhFwa1z1NjDPr36gFbDhkINzWc33Plm2/CFDxoHjduTO17zfSBqh8/OBV+9MAUfq61wVhc/3mfPAW2GtbwRX6/AwEuwYS6NH8JV/jNr0gSjUHVPDMsHxIVaONHA1egqc7y6zuOIfGlW9FR5kdeaNgLjIgtX+Ub8wTKuJLHA+HXDz7yO2SQF5hvqo0lKDMSLUQnTGEub41ImeG90Gih4BAXmpexEo3C8iVmO+djQBx8il0+bXazOOeHmIaguMwYCZtO2Xwekch8DgttoLxyZSPk8tiIaNGrW1c4brttYNbixTBjUbv3Yia/thCemr8YDsC/wKuuav7dux+FW2fOUVWNj++1O5w+aUfcFNq/6kYbGzRtOMeUllzQ4ia+Yx5HNUtcej80WlhMDRchxkZwcdxX08YUWj5lMinkINlWZdlndgudMperjuqsWZ3cKOF909zbtKsTtm3SOlyOGTwQ3nr7HZj80iuoqkEfulq2di3sN7J41eZBB0v6fuC1L7ykmWYcsu2W8OuPnQB9e3aXbUPopkXMjU2nuck+ceO+sk+0jH3H3nd1ZEidNNaSjPygyfXaMTfnUyx5Ci1WLQvRxhR6n+7qy5gZlgV3kzpaOOakMDcNuLtv6pXiXHO+jEX7rJo9EhXsfVlU1omgOyf1FSF563zELkDrKI7Y5sdH4tojujENhEwjWL7YQLfGUFcB3y2HJt/Q5BvajNOB9fnyiDGo+suxmEfz4/mLtB9IfWO6svdh47fmkyY/8vIczjbhpWUr+NXhfiOHQV88mHrQtQX/59GnVVVjny3GwLePOEQ2JYXfzDqob+WG0B2D6vlrV8dg356vhqgCoQOURnDsV5StUwS/Ar5bHdr4mXEsbfCbbeXGu24xAp56ZR7MXrQUVTXoQy+b9ekJ4we574ciZuNz6YNX3QZPL2i+piaBXlV+4fB94GvH7g8b8x9i6RbZhirnfF8X5RN4uw4Nvm2O1flhmdVnzvnGLmH5LCoNhRunFrU+DuA3OAQZ9hte5fMEoGSYL7DjifnmlhiDpnnstOL/nUOxwDs5NPmGjtTVoWmcBt9s8315wfkDR9mXX3jFLz6paHdgMVidEHMd2vh147xH67l/1iz4p6uvg9cbzvxi6NWlC/wMfyntOUI+Jk9XmKcvPTd9OGb0gP5w0UfOhB5d6SBqG57hynmuqkOZgy+vQxt/Hcaxbga/WzZcllv4IVEHrsPCqINjv0E539dFeQFd6f30/7mw8Zyk9EfX+Sd8ALYfPID13bPnwj/d8gC/ImwD+mL/Tz90DOwxdnPZCtwMvzUlJh+DujqG87ModUiQ9dMEar9Bwc9wG5/HQckwP0HwK+CHK2SZ2/gY8GYrzGf4DnXoSF0dsuNIovPXDi7eIww7Zowty00+NoarK+Ay3AE1z1Q6gstX+aEOiWF5Q6JDXQWsvKrO8m3GUcptTWAMIp0y+Rjw7ivMZ1jg/DKSAeIREKatzmnlzfv1x1eHW8HdM2bB8jVrMFePtXjAu+aFWXzC5WG9esBHr70DVjV8eKIXHvx+f/apMLBnz2hzaCsMpa0j39Vlfc+Wx8Zwfi1KHSuQ9V1HHgc1r9Dyji1f5fu6aBxDon03pagaE2wbY8tyxjeYXzIQXTbuDPtuPQaufvwZWPtW9Ydc6Pvwt8+cA8dsPRoufGo6X0SXnkNtMGbT/vCHT5xSfEmeEG1HuuWOow2v8LOPl4D/MOY61dh8VWAMsnnHDFeXRalDAstXDqBoGsewvuNwHgt4/gxFB+luvnvBUcU632VfRyUfHy+/umjzLHC+odOK/3SvCMOQikyHCFZeVdfkGyp8626gHbThskw+BpV1zjeYHyFKpBU6QPYHJOGmuuCjZJifIPgNaKiz1VmdrS2w+swZfxW+IvzKNdfDvTOavwRv6I1/ra9ocbHf3555Muw2aqQqBa9YNyi7Rcpt/NpxFCTr4Lspud7RavzoJW7ysTGoDhO82TmUOlSgjR/GSQc0bRvidMp+Alz+gekvw8d/dznG9eiDz5XlHbgw9P7jx8APzjwS/4jqUtoaht+cHEodKtDkG9qMU7c+9tMNtg6Omx4H5XCgVtQdOLKjUB4DXp3C/Ai+Yx3a+HXj/BXXU7xHmEGox8D6lVknnCfUJrrM3MPVZUfkFRGjZJifIPgVsG5t6urQNE6Db7aBd48YW5bJx6Cyjn2bP0E0v8bsZ0cQ9ivivCHRoU4knSfyyAlb87846WsWbbC2xcfdv3LI/nDEhPFhPVXgzdGYYFsbmHzaXK2r8w3mR4gSaYXTTKYzHK2wzkfJMD+B71aHNr4bx6TBb66VZTnjGyKtweYD+vKV7R+YPlsSFWj71Qh6/n/ioN3g2ycewl+S5w0qbVGGK+sUvGNUpzqF76bkehc2BlaWZfIxqKtjuLosSh0q0OQb2oxT2iC35X7HSnuU1GXydrwoyuz4kasmH5nrmv1aoB+/ImzRIawphybfsI7rsbShcgKMyceZkAm1vE147Cc9Y5ZC4WydItSpTuG71aGN33acmjrbXPN9ObP6zIn/lxemwdevvRHWvFX/L88mHD5hHPzw+KMxshUpl9ZY5xusTlQjmur8anJIfC8jxiCbT9nVGSLtO+SQ9S3huHIeM3VNPo+DMgdfjvjKn2+Am56o/1pFE+giuj8+6yjYf8KYdGui3Yry2BjOr0UbPxrYwxlcZyu0vGO/wTnf10V5Q6JJOpSqMVE1P8xNvjEFCstH8B3q0FTXkXEqgQP4HQpBzBsREZrYkOoIbFb1SJhmXIIyc1jOS0RLaaxxHImq2CozWreBHQyZTQcHl7yOQpeZIlnGOmFcmDakOqDSQNR5lWsos0RlHZgD0hhEc/AuHDxuS/7C+5De635pHbq24HePORwjP3YNu20QmDaoIoqNarSty4H7FgNI1LztbepoWeTtVqdQc1/fW5YlbrEtAmQOnc5yBRL7/51yGIxfjws900V0L/rsGXwQJMjwts2pjpmWuNuRNpVqZilW7auQs/NsTJA41uvJHJo2pBrhUlXVlaxBYx01XEQ6NLx5L5rHdWVrZR1iXk+uESU6w51WfM+/R6ioPcIi/AG1Dolv3QyNf4E0+cY+UYes7zryOKijATPcxo/GMSSaZB2svKLOVmO+L49Y65hzvrHzDZH2HRR0BpovXnENPPZyu3+VGjbt1RMu+tjZyHSNw9wakcP8VbDfsVofZR3UT3oXjEHr+dM6g/kM36EOTb6hzTh162PfNtgKM9zkl+oE4V9dCrLnL38dTvrZ+bCk4YK+KXYeMxzO/fBx0Kt712h+s/CbVYf1Hacj6wl1aQfTyMk8F/OnGn37DxblzS96qcZEpIOv7BKWz8J3zGF9fUNH6urQMA7Pi/OlXOax89cOpivUi+MNmVDk7MQn7GbW8sUWIQdpQQXIroMftg7v0zi0O+WJzTDV5fLMNo9WF89fpG2FYR4TrvQTULoOvnsd0O/aZWM4etsJsPyNN+Cpua+pUQ/6wv1vzzoZRg7oF63HVmsIm4GB7ZaVZ9n5hkhzIWZ4fgxuBL8in0+5yTeEugr4bjk0+YaKOksbePeIsWWZfAwq65xfixq/Z9cusMsWm8PVjz3T6lqYhA/usxN8/4zDoRufc9ZtUdggqiJoPsDqRDUiqSuNhom285P1jSlQWD6C71CHprpW42CB36DQIcNc1+CHJ4j3FT6t5KsCY5DNG5OPga8zRDp0YFWG8+UVYVWhoWlAQ1Ndg2+2+b68YNxcnIFiIuxAkmGqU50bKZrRyDdYnahGNNX51eTQ5Btarkfmp4Afnpl8V9fOt/mUhP2hRM51Tz0H377hZnjz7fqPvv/whKP4vcFiTQodp0DqY7MNyaHJNzT5hqTOD8+MQcfnT9hgdSUjwBlM2RGE/Qp9vtE3WJ2oRjTV+dUkuHryM/CNS25RlQddRPc/Tz8cjthhXLS1OWZgULE6QalDgqyfJlBXza9x0+NQqkOZgy/PwGzzfXmWMWj0MeDNVpjP8B3q0MZvO06pziXYR91mnmt9KN4j5HxBDpiJkibWgTnM+dLoFjTuoOmYyUp0HfNdMilrRUlLJMugNYj9ajakuhbZ4oo12AblfA6LfRL4faQop9uwRXjTbZAY8JXhePjTh06H/jVXozh7t0l8ECx6CoLWROq3QkeKK2sTw82zRB1gDkhjgKLw7aaavfJNaoseUqt9TJNsy24bBMYG1USpVYW2dQmOmzQRztxrR1Vl0EV0z//0aXD49lvJKqL5KzMtfZ1pYVNpdcL6OMR5QllL4LRneZAoaMkVaGtTgM10LeOi1le2RkuJ8YYBc8jWsM5B1g/zbPmipbrcCDndwBxW+EidVny/A2eWMbTxaXBkGy7LbXwM+ICuMJ/hOwSkCR0gDGR+hit9RRhHdeobgl8B69ZQx6vTmOC7MZOPgdV1xDdYXcnIIeu7jjzOu7Dg9VXwuUuvgmdejS/UuvvokfDrM06EjejagqUtchxtELEh0STr4IdRikbDRO38GWd8Q6S9kUNuAI8m3xD5VVuEXJrHhP0E1PooGeYLglLfdIkxyM3zO++8Ax/938tg8sz4GoYTRwyBX//d8dC/Z/IHlR+4Dm3892wc3bFoz5T9jmd8+89V0FhHuqhKNAa5ecz5BvMjlBIJwoCsqtFUt76+obauMGRenMYm8+f+Q4gT5P9TaNz5a4cc8R2fMOYVuA7FCh3zmolRMsxX+PI6dKSuDk3jNPhmWyATG3eLuMZnkK8TX8BVhvlTnR2pTZ2CZB18txyafEOD36NrFz5p9+zFS2D6wkWcG9GvL/zfWSfDJhtvXKwGA9stW23ENX6EUsLDBlAujeS4jc/joGSYnyD4DWios9VZna0tsPrMOd844xvMLxk5tPHDPBvSNZtPPxcbwUETt4AbpjwfrmF4zKTxcM5HjoOe9H5g2DBDokt+ArOJM6DureevoY7h/CxKHSrQxm89TlpoGtnvmM+39O14EZWXqhy38THg1SnMZ/gOdWjyDa5OXhFWdezIijN1ljZ0ZCKKfDHh/ohuFdkDtfPzrAh1FfDdcmjyDR2pqwHPixvHD8usPnPON6ZAYfkCmPEDxD1j9ius8C94eDL8zz0PwAUfOQNGD6RzSZJvsDpRlfDD1qGD45g0BBsDK6tlV2eItO+QA/tYwPNnyIxYNb/GvCF1dYpQpzqF71YH9a3cELpj0PZ5SDz9tYVw9i8uhi8esQ+cvtcO7DPIxwLerRzCQKyqUVvnDCbTGfY71iHfYHVCzA6lakz4UUpMPga5Oobza1HqWIH1HafVetINtg4Z5rpq344XVheOI1alPtl4IPy5RAGZgXWgUr51nYJ83jDVKXy3OlT41t0CXp3Ll5j8ujrn16LJN2Tr3BqjFbp8Wz/UITEsn8CX18BWZ3W+G7P6zDlfeeUbb/ClnXw+QqWRoI1fNw77WMDzZ7AOjv2O5fzGOkXwVWLzVYGpLJc3Jh8DX2eItDdyID8dIIf3dJyaLeZxUOOOrVi9BnrzFevNl3zd41B+RZL8olM/aAyK3jEzyMcEry6HUocKNPmGNuPUra/JN1TUSdoMOgzYfFUw+ThBlXXOtxWKn6CUSFB0r0dTXQfG6bTiB9VnlrFxDLR/9kSx8SNu8o0pUFg+gu9QgjO4DjUPaHnHfoNyfmWdIdEk62DlFXW2GvN9ecRUl8sbu4Tls/Adc2jyDZGfdkBdmr8KrvQVYRzVqW9QP3VN+81hbfmUnW+ItO9Qhzb+Oo/jOvI4qCvnUbmNj+PYLzRD8YtNq6mM8xVMPga5Oobza1HqWIH1HWed1pN20B3KPA42f0Gj3+7A4UfJsE/UoY1fN877tR5DQx3Pi/Ol3ObP6ar5NQ7zXORtxaIxWv6Dn7/rDeYgLagA2XXww+bQ5BuafENDXX5iM0x1QduEOs0Ta3XxxEYc5q/G54FQMsxX+PI6dKSuDk3jJL5JQ7AxsLIsk49BXR2DE1oY4Cr9QJUjtfFNWlAB3y2HJt9Q4YfuGDTNT1Mdw/m1qPVtBTZQuibHbfzsOAkoXQffvQa8OmJsWSYfg8o65xvMj+A71qGN3zhOskGhg+NowzO+r2NtiLUdQDhNGpvrHa0myqecqTNE2hs5kJ8O4NHkGzJ+pxU/zJxZxtAwsO2g+b68YD1weI23LHOdaBsh0n5G1Rc2WJ2oSvjudVjfcTqyHtpsZCo3+O7M6pfyxuRjwNOjKOYPwYVWkB1BuI0fjVMB3y2HJt/Qxs+MY2kDbzYxtiyTj0GuzmB11XA9mNKRHPsVdsg3WJ2oSvjudUh862bwm2PDZbmFbwnLZ1FpKNw4BVyCfdSl+UvY71i2ThF8Q+pjs24ZhGr1fXnEGHR0nrPwHXJo8g0dqSvBdeRxUFfNs9/xnO/rkO24YShVYxDplMnHgHgjjhh1bI1QaOnqdJYxokJsQdcx3yXj866ipCWSZdAaxL4yLtJ8JTpc4Ebm0Okq5rDYJ4HfR4pUh3msZ7sRguK+RaVEZc3MQSbPlNZRFLMh1RFqzQSVtWhEnoliGwWZbU9ZCsp5dwuax4lv1ifSPIiojrBQogMbnE4tjzovRc2Qsi9FXrhiH9y2lxgDUj5vWtgUah7HdBsmqM7MX6qFEl1iA+oolfhpeYK0q+kSa1Dpe9Z9LFqhCYWWTMR8V60rzdfR0ueLlmrZeN8IOZ1h2/GmOmK+mxZkqrROUMfyipAOkSSwcbKKMWj0MSA2mM/wHQLShA1g+RpuqgsbhDIHX16HJl/Bq9OY4IdnJp82R+vqfIP5EUqJBGFAVtXgOluhdXAcbVDG93VR3mC+EHMdEr80Gibazl/qG6yuZOTQVNeRcQIyW+Q3PPgZrvQVYRyVePO/LEIvKvM6ZfIxqKtjOD+LUocETb6hyTdk69wKeH2oeR4N5mu+7eOAdcV/sMxNNJVxvoLJx4BXpzCf4TvUoSN1dWga5z1ej8yPDVi8wgtM8xvNc1vfYHUqq4A+Hgh/TlsikO0RrkMbv+04dXUNvtnm+/IsY9Do68QWcBVSIJwfQbjkG8wXKuoq4IfJock3tPFps5BtuCy38THg3VKYz/AdAtKEDWD5Gm6qCxuEkmF+guBXwLq1qXNI1+bnx4aLuMY3WF3JyKGNnz5gfs1+g3w+5SbfQLIOvpuS6x1tjh+9xC18S1g+C98xhybf0JG6UqFpZD8BPt/oC+xAwWmn02o/TJR3zHB1WZQ6VKCN/1cbRxKdVvyoeI/Q6iyomwhm8nEm5IhseZpYiiRRHFgyI8gAwjk/sCLUVcB3y6HJN7TxW4xju2d1vhuz+sw535gCheULYMYPEPeMmQdq8LOPh8Kn69DkGxrqbHOsjshvld/cKJ9yps4QaW/kQH46QLwmYVpRLu/97DwbK4JfAd8th8RPRws2BlZWyzV1jFIiQZNvqPVxAL8hIcgw1ynX+igZ5husTqioE5SqMWFlWSYfg8o65xvMj1BKJAgDsqpGU12rcZINDh0cRzuW8ZXLr+ySAzUGtfNnTIHC8hF8B8VGkpFGS45pbU5LVMVWGWu7FbrMtJ6gJSH5ElMkS6kzXc2GSKdmHUJtZsTsoGWWqKzLTFFOF0x/UEQ63DATeUVP0xFzUOMrC0wrIlEDqutIbQXEKgpMB+agvO1t6mhZaHfTuaRb6hW9PBOaWaBaNoiCCjagTlMdQdI3M7owBdiCjjjZF54fp5VpmTIh0nw3VfiFdqwbVcrjMmwwaUnQYj3YUKHTtCJbjQvLd5g1ILJGyyIWxVoTOiMx8121FmbrAlsjOO3muboRkEMtIWHb2CpfmbeF704zCzrC1ghec8MFMcFy/Iowd4RlUB4T/gibRamjhzOY0jU59of8proobzBfiLkODXW2Oeb7cmb1mXO+caYui0pDEQZkVUbWt4Rj2pBcvnWdIuyY6gRmm2+9S0x1uXzKrs4Qad8hhybf0OQbsnVuBbw+1FXzGOavwvd1UV6Q/YuZ8xVMPga5Oobza9HGjwauQFNdKz/d4LSD+pl5tvkLGn06cJRfmWiv4NsoiR/qcKGwfATfoQ5NdR0Zpw7v0Tg8L24cGdbNY5g/m7cKtoFcXbGBjqmOdQV8eQ7OxwNhB94jbPINbfwW49h8WJ3vxqw+c85nlolNJ9wqIh0mtoLDClEyzFf48jq08duOU1eX+CYN7eYvX2eINAdVFTaAss+39UMdEsPyFfDdcmjyDRW+dbfAz0+Wa3wG+Zjg3c+h1IGQJtIBzM9w4zwj8wahZJiv8OV1qPCT0Wrnh5l8DCrrnG8wP0IpUYGmOvKzK1CwbxtkhRlu8kt1hljb/nNayfUOPnPON874ESqNBE11HRmnDtE46YCmkcP8lbnTih/jK8IobQcOp/EWsZvR6ECScuWKFWEc1VVo8g1txrHNyKHJN6hv5YbQHYPWTzgs5PlUFPOJ4EIdKDeCX1HOD3UmLagA2XXww+bQ5BvUt3KD786MQaRTJh+DXJ3B6qqRDFAayTEP1OBnHw9F8FVXwXevQ4PvN8dvTeAm35gCheWzqDQUfuAAtya/QT6fchs/GqcCvlsGNoz5vjxiqsvlU3Z1hkj7Djk0+YY2fuU4zuA61GEeE7YJqvJDHRIrOV4YiuNJMUymd8HON0Tad6hDxuf3CGXjjCWiLYu0Z/bivGnPHGEQaWaKaJHoOtbAtCHV5USKqhGQOXS6jsO2F3nTND+R5qiKLcrrcqXTbhtkfpz2jIs4XyDV5UQH0KovFlGdUtGpatsr8hFTFGu5Oc3jxDfrY148RgVzUM4LyjqCdG5GyzJGTa1Ytk2pRubA6SrGwH7mLe+V3VjzoKbbMEHZrUNQ1oE5zOSZ0vy6IQyjSEcNTAG2St+z7qM1WkpcqFQH5nsmX2Jc6sabjpptcBpzI+T0+jACQ9tGQ9hmTZtby7ggtkbw2jdCWUuU6k4r/kteEWaRPcK6BPuoG/8iQK6tU4Q61SUfm3WrQxufVoPsRo+GZ1a/lDcmH4NcHaOUqEBtnTOY0jU59hvUId9gdaIakdSlo/rVRfkWvsHqSkYObfy6cbJ+ZouiDarhprowASgzCDYxaWxZbvKxMVxdFqUOCZp8Qxu/9ThWmGE/QRk/vAJRP7wCCVWJxqA8imPyMeDhFOYzfIc6tPHbjlNXt74+Awt0YoSKDtLdzSsWRDpl8nEC5T9gMo74Cl4BrUh1FZp8Q5txdHc6rfgxXX2iSNSiAwPnYLb5vjxiDJp+ATDYl4nOVvqB1sUPdU7WoY1fN04H12PlBt+dGYNIp0w+Brz7CvMZvkNAmrABLJ/haEUNdawNifbldWjyFbxZGhP88MzkY2B1HfENVleLXMccuE5XGODW7DfI51Mu+QbzhYq6CpDtUBoNE+s6f2ldSNShjf+ej5MOaBrZ76DPt/TtwMEyZDOMQdt5NJ2F75BDk29o8g1tximtzyXYR10xf4HVrzxA023Ff8lJtzmBHdIjdmnAVis2aUEFyK6DHzaHJt9QUWdpA+8eMbYsk49BZZ3zDeYXSAryIwlzXYPPK0TJMF9R8ivQxrfV1iHxfTdmDGrnzzjjGyLtjRx4AOxBAwa4ESLf8hlu8g2hrgK+Ww6Jn44WbAysLMvkY1BXx3B+FqUOCZp8Bhb4DQlBhsP81fjZxysBpTMI1RrUzQ8z+RV1DOdnUepQgY7U1aFpHPbTDbYOjtnP5BPm4wVrQXFg0SrycX00XHYUymPAq1OYH6GUqEBTHfnZFfB7hOSRGzNFKdNWR7qKcRHnTRdsoIlYZ/i+leOgwZ4VFCxRonUfvV9mijKad0a03VIdMqHWKggZ5qDGZzYkuiOTW1fagWH8OiVy28pBuu0VjMWFtlusWXGd6RwTKnS0jpgFTnNQ5GM2pLqDSLpXjc6MC9G2jU5rIvZjpiVrnQPvprrIJlrnnjWv1OnARBJLI9QwhzV+ljPIWCGlQTpKR9gawWvfaBFmQh8UnZGY+V7je07mUvItm25DnCckTHUcVvjKvG5LIYptFZR1whoQWSN4HRotLNZGKLNEZR2zVZjutPK/06tPoPSH8BBkODqk1/koGeYbrE6oqKtAg+83x4aLuMk3pkBh+Qi+Qx2a6tjHAr/CUgfzLZ9hv2PZOkXwK+C7KeVG49Xl8sbkY+DrDJEOHViV0eQb2viV4ziDyXSG/Y411SHbX8iG4j8v6GpZpnfBNT6DfEzw6nIodahAR+rq0DRO1reEY52/NF/Mp2qs4/nUfEdekTAoj4nK+TOUOlZgfcd5r9ZjaKjjeXETQMtiHgu/ep6Vub9suOWLHaHxTVpQAd8thybf0OQbXB3/a7TVwC02gCdOY4Lvxkw+BlYneZtQp3nCBPmJRQ4PoMvn6lgbEu3Lc2jyDR2pq0MyjkmD320ry3LGN5hfGNkKYb9Cn2/rhzqkNmiq88PmkPgmDcHGwMpquaaOQT4mePdzKHXIwQZI1+CYN6RlHWtDon15HSr8MJoGvFkuX+I2Pga82Tn4Dm3QVJcdzyXYTzfIfMfsZ/Lejx4vQ6y5TGOCuYHJx8DqOuIbrK5k5NDGrxtnndaT3WLhaMMz7CcAde4AXfWHUMQY4CtC+kK9pnTAoAMrfLoObfz3Y5zE9zJiDGqfcMbON0QHaj9QqHTc5Ic6JIblE/jyOjTVdWScDEJ3DFrPX0Udw/nVSAvSkRxzXYOffTwUwVddhTa+De9gaYPfHCuPuMk3pkBh+Qi+Qx3YTwud5nFQ8wot79hvcM4PdSYtqIDvloGtznxfHjHV5fLGLmH5LCoNhRsniybfUFtnBnLjPCO3erxQclYOKIZQTWVeV7GrM0Tad8ihyTc0+Yaauo1oPbSzxBxhEGlm2R5aRLqGLQjaI5usAD+zPUy3YA4LLVGGeR0+bzrDWOtvBItSlshp7stBA3MpLQvt2QTBxx1Fq75aFB6HgiVC5iDdhzqmKNZ844EKHXl4i/qEWtVVzEE5LyjrCGGfW6CutMJL06Jtm1KNzIHTNUzzE2nP7FW6MXOZz+e1INFh/pA5dNqzySJYJ4TVKZK1xIyLSl890ban1pI957l0uiPMd9K41I03bU3q4lzcCI45zOTbcDKBsi0FompcRLqKcUFsjeC1b4RI48K2oZGj+ZNIlrEu9tEzvphZ+RP3itC46S8HX8e6Ar48hybfoHWNf4m08THgzVaYz/Ad6lDr6wrCOBZkONqgjvgGqxNVCd/doTQaJvxaSkw+Brk6g9XVItcxh6a6rJ/ZotL8Jex3LFunCL6g9BezG8b3LnEL3xKWz6LSULhxsmjyDbV1zmAynWE/QRk/zKf64V9coUo1JprmmeH8LEodEjT5ho7U1aFpnFbrwQKePyu3Dm4+0acDR5v3/vJ1CloPPxCqq9DGb9wvxF9xnE4r6F+jFR1tP80nKqbVMdXl8swygQyuc5rheoSJVW35Rt9gdaIq4bvXoamuwTfbfF8eMQa2W1nf2PmGSPsOAS7BPurS/CXsN6ipjrUh0b68Dm18XV1ubYHVL+WNyccgVxehlEhQ2TEB++maHPsNWhc/1CG1QVJnoxj86jJrafaNKVBYPoLvUIemulbjYIHf4FIH01rndcp+AiJfYAcOTpPGmx04fLXfnCy7hOWz8B1zaPINbfx1Hsd15HFQl+YvYfVt/iwf5lPnuThAW+9EYxBWp7DRGEVHkFeEJacCoa4CbuAsmnxDy/XwjkqG4YdnJt/V1fkG8wtYQdQz5mighrqsr/DpOrTxW4zDm60xwXdjJh8Dqyv5xhnfYH7JyIH97AjCfoN8PuVG36QFFSC7Dn5YJT+a31wry3KmzhBpb+RAfjqAR5PP0A0JsA6O/Qbn/FIdSob5ipIfI1RrwOUuX+Ian0E+Jnizcyh1qEAbv+04dXXspxtsHRyzX86HAwlPjD9wpKy9qCz0zjD5GPDqFOZHKCUShAFZVeN9Gwfg/wM9FXhvbeFYgwAAAABJRU5ErkJggg==;" parent="1" vertex="1">
          <mxGeometry x="295" y="248.35" width="130" height="98.22" as="geometry" />
        </mxCell>
        <mxCell id="5MixrlwHWUt_mnM7fPg1-5" value="" style="shape=image;verticalLabelPosition=bottom;labelBackgroundColor=default;verticalAlign=top;aspect=fixed;imageAspect=0;image=data:image/jpeg,/9j/4AAQSkZJRgABAQAAAQABAAD/2wCEAAkGBxAQDQ8PDRAPDw8PDw0PDQ0NDQ8NDQ0NFREWFhURFRUYHSggGBolGxUVITEhJTUrLi4uFx8zODMsNygtLisBCgoKDg0OGhAQGy0dHR0tKy0tLS0rLS0tLS0tKy0tLS0tLS0tLS8rLS0tLS0tLS0tKy0rLS0wKy0tLi0tKy0rLf/AABEIAOEA4QMBIgACEQEDEQH/xAAcAAEAAwADAQEAAAAAAAAAAAAAAwQFAQIGBwj/xAA9EAACAgEBBAYGBgoDAQAAAAAAAQIDBBEFEiExBhNBUWGRMmJxgbHBByJDcqHRIzNCUnOCk7Lh8URjoiT/xAAaAQEAAwEBAQAAAAAAAAAAAAAAAwQFAgEG/8QAJhEBAAMAAQQBBAIDAAAAAAAAAAECAxEEITFBEhMiUWEykQUUcf/aAAwDAQACEQMRAD8A+GgAAAAAAAAAAAAAAAA5SGgHAOdDloDqAAAAAAAAAAAAAAAAAAAAAAAAAAABJVU5NRim2+SS1YEZJVVKT0hFyb7Iptm9s/o9ro7n/JH5s9Lh4kK1pXFRXgtC5j0dtPPZxe8VeUw+jF8+M92tes9ZeSNrF6H0/aTnPwWkF+Z6GqBarrNXL/H5R5jlUv1FvTJx+jOJH7FSffOU5fg3oaNWw8Zf8en+lFl+ustV1luMc6+Kx/SH52n2zVsHFfPHo/pR/I6W9EsKfpY8F4wlOv8AtZv11FiFJFeufusf0lpFvy8TlfR3iz/Vzuqf3lZHya1/EwdofR3lQ40yrvXcn1Vnk+D8z61GkkVJS06fG3rj/izX5vzxm4F1Et2+qdcu6cXHX2d/uK2h+isrAhbBwthGyD5xnFSX4nh+kH0bVzTngy6qXF9TY3KpvujLnH36lHTpJjvXukify+WAu7T2ZdjWOvIrlXNdklwku+L5NeKKRUmOPLoAB4AAAAAAAAAAAAAAAXdn4Tser4QXN9/gg9iOXXBwZWvhwiucnyXs7z1Gz8KNa0gvbJ+kzjHqSSSWiXJI0KIF/pseZ5eXn4wmqgXKoEVUS1VE3Mc+IZ2t+U1cS1XAiqiXKoljwg8paoFuqs6UwL1ECtpfhYzpy5qqLddJ2qrLldRn6atDPJBGkkVBehSSqkq22WYzZjoIp0mw6SCykV1Jzh5vbGx6cmp1ZFanF8teEovvi+xnyDpd0Ltwm7Ia243ZZp9avuU18+R95tqKOTQmmpJNNNNNapp9jO7UrrHfyr2rNX5pB7jp30MeM3k4kW8dtuytat0PvXqfA8Q0Z+mc0txLmJcAA4egAAAAAAAAB2ri20lzfICbDxnOWnYvSfyPQ0QSSSWiXJFXFpUIqK9/iy9QiTOOZTRHxhcoiX6olWhF6pG301FLayxUizWiCtFqpGpSvZnWlZqiXaolSlF6lHl3tFuiJoUQKlCNHHiZu9mjjVaorL9NRBjxNGiJl62aNI4h2rqJ1SS1QLEYFaZezZRdJBZUasqytbWIkiWPdWZ99Zs3xM3IiWsrPLxyx8qpNNSSaaaafFNPsZ8Z6ddGXiW9ZSv/AJ7ZPd/6p83W/DuPtt6MXbGDC+mdNq1hNNPvT7GvFMuXxjanHv0oXn4y+BaHBf2zs6eNfZTZzg+EtNFOD9GS9qKBjzExPEpAAHgAAAAABpbLp5zfsj82UK4ttJc29EbqgopRXJLQ8lJnXmeXeBdx0Uqy/jlrCHd5aFJcrKlJcrN3CGZtKzWWaitAs1mhXwo2XKi7SUaWXaWR6JM2jjmljmZQzRx2Ze8NPCWpjmlQZmPI0aJGVpDQr4aVSLEUU6pliMyvKO0O8itaiWcytbM9h7WFO8zsgvXyM7IZYzh3bwz8gzcg0MhmdezVwhnby8L9IuyetoWRBfXo9LRcZUt8fJ8fM+Zs+6ZUVKLjJaqScWu9NaNHxjbOE6Mi2p/sSaj4wfGL8min/kcPjMaR7cYX57fhRABmJwAAAABf2TVrZvdkVr73wRoyfEi2PXpTKX70vwX+zvN8Tjn7lmkcVS1mhjmdUzQx3yLvT+XGjSpLdZSpLlbN3BmbLVZYrZWgyeDNCqjZcqZcpkUK2Wq5HN4dUnu1KJGhRIyKZl6mwztqL+N2zRYaFNhiU2F2q0zNM2lndtV2k8bjJhcSq4qzml7NF3Fe20rO4gsuEUOYh3usM++Z3ttKV1hbyzQ6XQ3zM6+RYumUb5mnjRna3VrpHz36QsTSyq9ftRdcvauKfk35HvbpHmOmVO/h2d8HGa9z0f4M96zP5YT+u6DG3GkPnAAPmWiAAAco4OUB6PBhpjV+Kb82yGzmXao/oKv4cPgU7SGs8zK5xxEOamaGOzNrZeoZexnuiu1aWW62UKZFytm309mftVcgyeDKsGTwZp0nsz7wtQZZrkUoMnhI7mHES0Kplyqwy4SLNdhW0onzvw16rS1XcY9dpZhcUdMl2mrXhcSq8yY3EiuK04LMbNF3kU7im7yOdwjEnZYsuKttpFO4rWWlrPJW01c22FK2Z2tsKtky7SnCne/KO2Rl7Xhv490f3qrEvbuvQvWSKWQ+D9j+B5r/ABmHlP5PljODtI6nyEtUAAA5RwcoD19S1x6v4cP7UULkaGznvYlT9Vx8pNfIp5MOJWrP3Sv+axKrFluiRUZNTIuZyilrUSLtcjLomX6pGv0+intRfrZPCRTrmWISNbK/ZnaVW4SJYyKsZEsZFqJVphbhImhMpxkSRkeTXkiV+NhNG0z4zJFYRWzSVu0VcdlcZ6sO3WkU5JY1XncdJWlTrTo7BGTydVmVpDOwhlYRSsJIpw4m/LvZYV5zOJzIJzOp7OfLiyRUvnwfsZJZMz9o3btVku6ub/8ALKe+nFZWcqd3z6R1OWzg+XloAAPAAAHq+jNm9jSj2wm/KS1+Op2y6zP6J36XSrfKyL0+9Hj8NTbzKirf7br2U80Yc1xEGTXwKxPSzm0L9My9TMyKpl6mwv46cIb15atcyzCRnVTLMJmvjqoaZr8ZEsZFKEyeMzQpop3otRkSKRWjI7qRPEoJhZUjsplZTOymevFlTOesK2+N884erDmcb5BvnVzPJgTSmdJTInMjlM5meHUQ7zmQzmdZ2EM5lbTThNShbMxukF+7jT9bSPm/8F+2w850kv13Ie2T+CMjq9vtlfzpwwQAZCUAAAAATYl7rshNc4yUvbp2HvbdJwU48YySkn4M+eo9Z0Tzd+uVEnxhrKvXth2r3P4kG9eY5j0sdPfieJ9uMqoz5xPQZdJk31HGdlm9VNPQsVWFeSEZFul0Ew1arC3XYZFVhbqtL2WyG9OWpCwnhMza7SxCw0s9lS+S/GZIplGMyVWFyuqtbJb3jspFRTO6mTRqinNZ3hvFfrB1h79Vz9NPvnVzIXM6uw4nV3GaaVhHKwhlMinYQX2hLXJLOwr2WEVlpXstM/Xdbzyd7LDyWff1lspdmui9i4GttbK3a3FP60uHsj2mCzK10+UprduzgAETkAAAAACxhZUqrI2QfGL18Gu1PwZXAInh9GqtjdVGyvipL3p9qfiZ2TQYfR3a3UT3Z/qZtb3qP95fM9ffSmtVxT4prk0Ub1nO36aOd4vV5q+orSRtZGOZ9tJNS7y1FWMiauwilE66lit0Mw0K7SzC0yYzJ4XFqm3DiataNpLG0yoXE0Li1TqENsmkrDsrDPVx2VxYjqEc4r/WDrCj15x157/suforztOkrSk7zpK4jt1LuMVudxDO4qyuIpWlW/UJa5xCedpDZakm3yXFke8Ze0cre+pHknxfeypfSbO5+2FfLvc5uT5cku5EABGhAAAAAAAAAAByj0PR3bvV6U3v9E/Qm/s33P1fgedOUc2rFo4l1S01nmH0i6hNarinxTXFNGbkYxh7E2/KnSFms6u79qv7v5Hrq5Qtgp1SUovtXZ4NdjKVqWzn9NDPSt4/bz11BVnUehuxijbjEldC1GQ0cF2zHIJVE9bopo6KZ3jadHA40JIu44Tq07dcVtAdxo84WuuOHaVxoe/UOE7tOrmRpHZQOJ0e8Od45ijtuaJuWiS5t8jMzc/X6teqj2y7Zf4OPlMvLTFXbOzOcIfzSXwRnHAOleZ5AAHgAAAAAAAAAAAAAFrBz7KZb1U3F9q5xku5rtKoHHL2J4e12f0kptSjcuqny3udb9/Z7zVnQmtY6NPk09U/YfNi1h7Rtpf6Kbj6vOL9z4Fe/Tx5r2WadTMdrd3tLcUq2YpRxelb5X1qXrVvdfk+BpVbcxZ/tuD7pxa/FcCL4Xr6TxrS3tTnjEUsY2YWUz9C2qXgrI6+Wp3eMny080PqTD3iJYLxzjqDblirw80Q2dVH0rK4/enFfM6jSXk1hldQd445PdtLGh9pvPugnL/Bn37fj9lX77H8kdx8p9I5tSPa7HG/2VMnPqr4R+vLuj6Kfi/yMnK2hbZ6cnp+6vqx8kVSSKflDbb8J8rLlY/rPh2RXCKIGcAkQzPIAA8AAAAAAAAAAAAAAAAAAAAAAAAcnKkdQB2cjjU4AAAAAAAAAAAAAAAAAAAAAAAAAAAAAAAAAAAAAAAAAAAAAAAAAAAAAAAAAAAAf//Z;" parent="1" vertex="1">
          <mxGeometry x="640" y="271.57000000000005" width="75" height="75" as="geometry" />
        </mxCell>
        <mxCell id="5MixrlwHWUt_mnM7fPg1-11" style="edgeStyle=orthogonalEdgeStyle;rounded=0;orthogonalLoop=1;jettySize=auto;html=1;exitX=0.75;exitY=1;exitDx=0;exitDy=0;entryX=1;entryY=0.5;entryDx=0;entryDy=0;" parent="1" source="5MixrlwHWUt_mnM7fPg1-6" target="5MixrlwHWUt_mnM7fPg1-1" edge="1">
          <mxGeometry relative="1" as="geometry" />
        </mxCell>
        <mxCell id="5MixrlwHWUt_mnM7fPg1-6" value="" style="shape=image;verticalLabelPosition=bottom;labelBackgroundColor=default;verticalAlign=top;aspect=fixed;imageAspect=0;image=data:image/jpeg,/9j/4AAQSkZJRgABAQAAAQABAAD/2wCEAAkGBxISEhUSEhIWFRUXGB0VFxUVFxcXFxcYHRkXFxcVFxcYHSggGB0lHRcXITEhJSkrLi4uFx8zODMtNygtLisBCgoKDg0OFxAQFy0eHSYrMC4tLTItKy0tLy0rLS0rLTctLi0rLTcrKy0tLS0tLS0rLS0tLS0vKystLS0tLS0rNf/AABEIAKMBNgMBIgACEQEDEQH/xAAbAAACAgMBAAAAAAAAAAAAAAACAwABBQYHBP/EAEUQAAIBAgIFCQYCBgkFAQAAAAECAAMRBBIFITFRYQYHE0FxkaGx0SIyUnKBwXPwFDOCkrLhFSM1QmKDk8PTFzRUwtIk/8QAGgEAAwEBAQEAAAAAAAAAAAAAAAECAwQGBf/EACcRAQEAAgEDAwQCAwAAAAAAAAABAhEDEiExBDJBE1FhcRSBM7Hw/9oADAMBAAIRAxEAPwDjwhCDCiZCEIQIYgmiEIQBDESKYNh7R95BKXZt6x5NLEEUQEMQBDESaIQhBEJYIoxGN9h5CLWMYeQ8hEioIYgCGIkUYhLAENYM6sGNp7fzuixGUtv53RJWIQgiEsEDhAwBDECGIQgiEIE8ulSQgsbe11dhmPWo2895nv0t7i/N9jMasmtsfa9C1DvPeY1Kh3nvMQsakmoyPVjvPfHK53nvnnSOWSxyPVzvMfmO87B5TzpH+g8hJY5Gqx3xqtxiVjVgytORjGqYlY5YItNWSUJI07rlFoUEQp2PYitCgiEIJogZcqEDEimDYe0eRkHZIuz6jyMgMEUQhiABDiTRXhQIYgiiEa32HlFiG32HkIkVYhCCIaxIohCEGEsEUYjKQ1/ndFiMp/nuiQsGEIIMICCBiEIIhAwIcJYAhiBPJpb3F+b7GY1ZktL+4vzfYzGpJrfH2mpHLFLGrJqMjVjliUjlksMjlj/5eQiFjvQeQkscjVMasUsasGVOWMWKWOWDOmAyS1lQS5QIQgiEJ2vZLhCCDDEE0QhCCDCESKYNh7R5NIJAdX1Hk0gMEUQhCCIYiTRCEIMJTBFGIbfYeQixGsfIeQiRUEO0AQxEzohCgiGIJohGU/z3RYjaZ+/3iQghCCIYggQhCAIwQIQhrAtCBgTyaX9xfm+xmNWZLS3uD5vsZjUk1vj7TkjViljUk1GRyxqRSxqSWGRyx/8ALyE86z0eg8hJY5GLGrFLGrBlTVjliljFgzpqySLJBLlYy8e4Sxl4+EASxO17IwZd58PWGLcfCKEIQTTBl4+ELVx8Il2sCdwvO4aS5nsDSw1WutfFFkpNUAL0ctwhYA2pXtcb4FMbfDjKgWO3aOobjIAOPhAU+z9R5GWsTOm2HHwli3Hw9YsQlESKaLcfCELcYu8fWwtRBd6boNl2VgOy5EEVQtx7hGEDjsG7cIlY4ISwABJNrAC5OobAIkVYtx8IYtx8JKtB0tnRlvszArfiLjXBBiRTABxhi3GKEMQRTBbefCMp2v1+HGJjKW3v8okCFuPhDFuMUIYMEGC3GHq4+EWIQgRigcYYtxixCECVicMHUAkixvqtuIiBoxPibuE9o2fWWsNH1WPKujV+JvCGujl+I9wnpEOLUK5UgYBfiPcIxcEu8+EcsdSos3uqzW+EE+Qh0xPl51wi/EfCDUVQba+rdunqZSDYix6wdRnlqqS5ABJNrAC5OobBIzkkZ5zUEpXj4Rq24xb0WX3lZe0EX74aTNhl2OW3GNW3GIWOWDO04W4yQRJGnblAhCDCE7HsRLLlS4JordRm11ucTSro1JsYxRlKMvRYcXUjKRcU7jUeo3mpOxAJ3C87lpPmfwNPDVa61sSWSk1QAvSy3CFgDale1xvgJL8NE5sOS1HSWIqUa71EVKfSA0ioa4ZVsc6sLWY9U9XOjyNoaMfDrQeq4qrULdKUNsppgZciL8Z39U1fQGncTg2arhaxpOwCFgqNdfetaopG1Rr2xunOUeLxpQ4qsapQEIStNcubKWH9Wq3vlG2+yJG8en8sYsOdg5Kc1GCxWDoYh6uIDVaauwR6YUEjXYGmTb6mcjxNMI7qL2DFRvsCRriRljZ5LfYeydy5+f8As8P+P/t1Jw19h7J3Ln4/7TD/AI/+3Uh8Hh7MnE5l+TeO6DF0K2RqmR1bIguzavdUdZ17JiQZnOR39oYP8el/EsTnx8xsHOLpx9IVqAXCYikyq4COhzOCQbqoFyBl1zTq+GqUzlqIyNa+V1Km3UbMAbTqnOvpNsLpHA4hb/1aljbrXPZ1+qkj6yc9mjldMNjU1gjomYdasOkpG+73/wB8R2NeXj31XfeOXYbDPUOWmjObXsiljbVrsBxHeJdWkyMVdSrDarAqR2g6xOqczmDWhhsTj6updagnqp0wXdhwJNv8uFzY6OXENidK10L1DUc01tmKm2dig6z7QRd2U74tM5wdUx797/pzdtB4oLnOFrhNuY0agW2++W1uM8lIzruE5XaYNcGpo1hQLWKinUzqt9oe9iw2+7r4TB872gqdCvTxFJQorhg4AsudbHNbewbXxW+0mKxOfBJj1Y29vvGj1cBWS2elUS5suZGW53C4FzwjsTorEUlz1MPVpr8T03Ve9ltO58utOJgqK1+jWpVzZKIbYGYHM28AKDs1nZcXms8ieX1TGV/0XF06ZFUMFKKQCQCSjqxNwVB18La7x6mzy9Px459Fy738OUiezBaNr1RelQq1ANpp02cX3EqCJuFbkYn9MDCAEUGHT2BNxS1kpf5wVvtsd82vlLprH4eoMPgMDelTAGfomKnUDlQKQAovbtvstrNM8fTebl8XXbu5BWpMjFXVkYbVYFWHaDrEtFJIABJOoAayTuA651rlJgzjtGNiK+HNHE0VZ7EEEZNbAX1lWUXt1G2208/IDRYw2BbHCia1dwxRQLtlBKqi7bZiLkjqI3Q0P4t69b7a3v8AH6+7ndfRWIppnqYesi/E9N1X6ki081NCSAASTqAFySdgAHX2TrGgOUOk3rqmKwRFJzlLLTdcl9hJJIK9Rvvvwmv6c0MmF0vhxTAVKlWlVVRsU9KAyqOoXF7dWa3VDSc/TySZY263rvNNObB1VYK1Nwze6pRgzdi2ufpLq0HQ5XVkb4XBU8NTax/Ode5Z8oKeBdKgpCpXdSi3NgqA3Y3sSLlhqG23Ccu09pdsXXauyhSwAyqSRqFtp7IWaTz8OHH26t14FnXuSFOngcDTer7JrOrHfeoVVBr2WXKTus05rya0Z+k4mlR6i13+Qe03ZcC3aRNr51tJgvTwoIsg6Rh/iNwg4WW5/aEJ27q9Pfp45ct/U/ZXOfozo8QtcDVVWx+dRbxXL+6ZrHJf+0MP+Kn2nQ8Wf6R0SH96qi5uPSU7h7DewzW+cTnnJb+0MP8Aip9pHJ5heoxk5sMp4tlbRzufr6H4bfxTRlm887v6+h+Gf4poyTPk91cfr/8APn/3wascsSkashw01ZJAZIJcpEsQYU7XshCEIIEIQTV2uLHrm1VecLSro1N8YxRlKMvR0NakZSLinfYe2apUawJ3D7Tumk+aLAU8LVrK+IzJRaoL1EtcIWFxk2XEBJfhoXNdyWoaRxFSjXaoqpS6QGmVBzBlXXmU6rMZ6udPkdh9Gvh1oNUYVVqFulZWtkNMDLlUW98zVtAacxODZquFqmk7AIWCo11961nUjaB3bYzTvKLFY0ocVWNUoCEJWmtg1i3uKL3yjbuiRvHp/LJaP5eaTo01pUsWyU0ARFFOiQoGwXamSfqZr7uWJYnWSSe06yYsQhEzytvlb7D2Tv8AzyaIxGJw1BMPSaqy1sxCC5A6NxfvInAbau2dFHPDpH4ML/p1P+WB4ZYyWX5YAciNJf8AhVv3R6z26D0FicNj8EcRQekGxFIKXFrkMtwJkxzwaR+DC/6dT/lmN01y/wAXiamHqVFohsO4q08qOBm9k+3dzcahstDsm/TneWtj59T/APpw/wCE38czPJc/0loKphjrq0lNJR/iSz0PpbIv0M5pyp5U19IOlSuKYKKVHRqyggm+sMx1xvJTlXiNHmoaApnpAoYVFZh7JOUizCx9o98N9y+rj9S34ronLpho/Q9DAqbPUARrddv6yu3YWIH+ZHcz+O6TA18PTcLWRmKk67B19hyOuzBtXAb5zTlPynxGPdKlfIMi5VWmCqi5uTZmJudXX/dE8eidJ1sNVFag5R11XHWOtWB1MDuO4Rb7leeTk6p48OgJyk0+aww5pkVM2X9QMo6s2e2XL15tk8fOT+nIaNPG4ijVJzOq0lylRYAs3sjUdg7DL/6tY7Lbo8Pm2Zsr/wAOe1/zaafj9I1cRVarWcu7bWPZqAA1AbgNULeyOTlx6dTK12jnV0JVxOFU0VLvSfOUGtmUqVbKOsi4NuBmj82fJ7ENjadZqTpTpXZmdWUE5WVUW+03N+AHETdec/TdfBrh6tB8rdIwIIurLlvlYdY1DjNJx3OfjqiFFFKkSLF6atm/ZzMQvd9Y7rbTnvFOXqy3uNmradpDT41jKKX6IWvqzkmoBf5iE7YfLjTGlcNiD0ALUGAKFaQfKbAMjEC4N7nXtBG4zklydZNztJ6777zc9Fc5OOpIEbo6wA1NUDZ7dV2UjN2kX4xbZY+pllmVs773Gdx1bS7YCpXxFalTptTYNTenlqFWugW2X2Wa4A1/3hsmX5IY2rV0QFwrAYikCgBsfaVswBvq9pLazszcJzflDyrxONsKzAIDcU0GVAd5BJLHtJ4Tz6D03XwlTpKD5SdTA61cdQZevt2i5tDZT1OOOfzZrX5brorTumq9UUQCjXszVKGVUA2liV1feeXSxxI0phExVWnVqLUpa6YsFBqAhTqGvr7CIFfnNxrJZVoodmZVYkcQGYgfUGatR0hUWuuIJz1A4q5nubsCGBbXci4htOfNjqSZXLv8t353v19D8Nv4hNCUzJ8oeUFbGsj1ggKAqMisBrN9eZjMaIr5Yc+cz5LlPDpPNZgAlOtjKmoa0UnqRfaqN2XsP2DD/wCqC9WFb61B/wDM1IcrMR+i/oYFJaeXJdVYORe7a81rtrvq6zsmFEe/s2/k3DDHHj/v9uvcmeWqYut0PRGmcpZSXDZrWuuwa7G/0M0c6L/RtM06QFl6ZGTdkbWoHZrX9mYTRuMehVSrT95DcX2bLEEbiCQe0z16V5V16uJpYhlpCpRtlIVgDsYBrsbgEnYRtMjO9ptPJ6iZ4Y3PzMpf6bFzufr6H4bfxTR1mQ5QcoK2NZHrBAUBUZAQLE313YzHLMs7u2uD1fJjycuWWPimrGrFLGrJclNWSRZIJcoEIS+kb4j3yxUO8987XsUEIGQVG3nvhdI28wKqtfVvm01ucTSjo1JsYxRlKMvR0NakZSLinfZqmsiod5hCod5iTuxa7PqPvLEJXNtp2jr7ZBUO898EVBCBkWod574Qc7zEirEIGQOd5hBzvMEVBGH7DyEoVDvPfGFzv6h18BEiqliQVDvMIOd5iRViEDIHO+EHO8wRV3jKe2AHO+Npub7T+REhneUfK7E45USv0dkbMMildZFtdyeqYMSg53ww53+MCyyuV3asQhKFQ74aud8EIBGCDnO8wwx3+MCEo1fX1hTw6VqMFFiR7W87jMctdvibvMNrmG5tsIhrMAtZviPeY1KrfEe8yepNx0zgjBMKtZviPfGrVb4j3xdaL2ZcTy1/eP08hELVbee8xuc329Q8hJyy2yzu4NY1ItWO+OVjvkMKYsasUrHfHKx3wRRrJLDGSCXJxCEGGs7XsVwoKyxBNGIQEAQxEimDYe0eTSCQbD2j/wBpBBFGIUAQwYkVaw4IhCCaIRjfYeQixGt6eQiRViWsEQliRRiEIIMIGCKO8ZS2/ndFqI2nt7/KJCxCgCEBBAwIQMEQhAhCHBEKBPJpb3B832MxyzI6W9xfm+xmNWTW+PtNSOWKWNWTUZGrHLFJGrJrDI5Y/wBB5CIWPv5DyEljkYsasUsasGVNWNWKSNWDOnLKkEkEuUiWIIhCdr2QhCEAQ4JohCEGEIkUYOo9o8jLEpRqPaPIy4JooYgCGImdEIQgiFBNGIZ+w8hAEY32HkIkVIQlCEDEirEYIAhwRRD8+MZTGv8APGLEZS2/ndEhYhCAIwQQIQgYIhCBCEYBAhCBPJpb3F+b7GY1ZktLe4vzfYzGpJrfH2mrHJFLGrJqMjkjViljVksMjlj/AEHkIhY/0HkJLHIxY1YpY1IMqasakUsasGdNWSQSQS5SIQlBR8Q8fSEE4jx9J2vYoDCEgX/EPH0l5eI8fSBVYhCQIPiHj6QgvEePpEiiHuntHkZBCC6jrG0b+PCQLxHj6QTUEKQDiPH0hBeI8fSJFWIQMrLxHj6Q7cR4+kEVYjG2/QeUALxHj6RhXXtHVv3DhEiqEMSgBvHj6QgBvHj6QRViGIOXiPH0hheI8fSJFWIyltggcR4+kNbDWT1E9e6JHyimEsx66XpfEf3TCGlqXxH90x6O8Of2ZECFMeNK0t5/dMYNK0t57jBP0s/s94hCeFdJ0957jDGkqe89xiL6eX2TS3uL832Mxqz24/Eo6gKdjX1g7jPIoG8ePpJrTGWY9xrHLFoOI8fSNUcR4+kmoyMWPSKUcR4+kcg4jx9JLDIxY/0HkIpRxHj6R1te0bBv3DhJY5DWNWLQcR4+kao4jx9IMqYsasWoG8eMag4+fpBFNWSRRx85IIcnWEJJJ2vZCX8+MkuSCaOF+fCSSJFM6vr9mkWVJBFMEsfYySRIphlSSRJMX890Z/LykkgiiG2ENskkTOiEJJJIJolEJth7D5GSSJM8xqSRiySTR9WmLGLJJJZZGrGLLkkscj12fX7RiiSSTWORix1OVJJrHI9Y1Nkkklhkcsf1/QeQkkkscjEjVkkgxpqRySSQRTBskkkgl//Z;" parent="1" vertex="1">
          <mxGeometry x="495" y="170" width="130" height="68.35" as="geometry" />
        </mxCell>
        <mxCell id="X3qE4WryWQg65PlPXzmQ-4" style="edgeStyle=orthogonalEdgeStyle;rounded=0;orthogonalLoop=1;jettySize=auto;html=1;exitX=0.84;exitY=0.28;exitDx=0;exitDy=0;exitPerimeter=0;" parent="1" source="5MixrlwHWUt_mnM7fPg1-7" target="5MixrlwHWUt_mnM7fPg1-5" edge="1">
          <mxGeometry relative="1" as="geometry" />
        </mxCell>
        <mxCell id="X3qE4WryWQg65PlPXzmQ-11" style="edgeStyle=orthogonalEdgeStyle;rounded=0;orthogonalLoop=1;jettySize=auto;html=1;exitX=0.5;exitY=1;exitDx=0;exitDy=0;exitPerimeter=0;entryX=0;entryY=0.25;entryDx=0;entryDy=0;" parent="1" source="5MixrlwHWUt_mnM7fPg1-7" target="5MixrlwHWUt_mnM7fPg1-1" edge="1">
          <mxGeometry relative="1" as="geometry" />
        </mxCell>
        <mxCell id="5MixrlwHWUt_mnM7fPg1-7" value="" style="verticalLabelPosition=bottom;html=1;verticalAlign=top;align=center;strokeColor=none;fillColor=#00BEF2;shape=mxgraph.azure.user;" parent="1" vertex="1">
          <mxGeometry x="237.5" y="100" width="57.5" height="70" as="geometry" />
        </mxCell>
        <mxCell id="5MixrlwHWUt_mnM7fPg1-13" style="edgeStyle=orthogonalEdgeStyle;rounded=0;orthogonalLoop=1;jettySize=auto;html=1;exitX=0;exitY=0;exitDx=80;exitDy=65;exitPerimeter=0;" parent="1" source="5MixrlwHWUt_mnM7fPg1-8" target="5MixrlwHWUt_mnM7fPg1-5" edge="1">
          <mxGeometry relative="1" as="geometry" />
        </mxCell>
        <mxCell id="5MixrlwHWUt_mnM7fPg1-8" value="ZoraGift.sol" style="shape=note;whiteSpace=wrap;html=1;backgroundOutline=1;darkOpacity=0.05;" parent="1" vertex="1">
          <mxGeometry x="480" y="340" width="80" height="100" as="geometry" />
        </mxCell>
        <mxCell id="5MixrlwHWUt_mnM7fPg1-12" style="edgeStyle=orthogonalEdgeStyle;rounded=0;orthogonalLoop=1;jettySize=auto;html=1;exitX=0.75;exitY=1;exitDx=0;exitDy=0;entryX=0;entryY=0.5;entryDx=0;entryDy=0;entryPerimeter=0;" parent="1" source="5MixrlwHWUt_mnM7fPg1-1" target="5MixrlwHWUt_mnM7fPg1-8" edge="1">
          <mxGeometry relative="1" as="geometry" />
        </mxCell>
        <mxCell id="X3qE4WryWQg65PlPXzmQ-2" style="edgeStyle=orthogonalEdgeStyle;rounded=0;orthogonalLoop=1;jettySize=auto;html=1;exitX=0.5;exitY=1;exitDx=0;exitDy=0;exitPerimeter=0;entryX=0.5;entryY=1;entryDx=0;entryDy=0;" parent="1" source="5MixrlwHWUt_mnM7fPg1-16" target="5MixrlwHWUt_mnM7fPg1-5" edge="1">
          <mxGeometry relative="1" as="geometry">
            <Array as="points">
              <mxPoint x="220" y="460" />
              <mxPoint x="678" y="460" />
            </Array>
          </mxGeometry>
        </mxCell>
        <mxCell id="5MixrlwHWUt_mnM7fPg1-16" value="" style="verticalLabelPosition=bottom;html=1;verticalAlign=top;align=center;strokeColor=none;fillColor=#00BEF2;shape=mxgraph.azure.user;" parent="1" vertex="1">
          <mxGeometry x="190" y="276.57" width="60" height="70" as="geometry" />
        </mxCell>
        <mxCell id="X3qE4WryWQg65PlPXzmQ-1" style="edgeStyle=orthogonalEdgeStyle;rounded=0;orthogonalLoop=1;jettySize=auto;html=1;exitX=0;exitY=0.75;exitDx=0;exitDy=0;entryX=0.87;entryY=0.65;entryDx=0;entryDy=0;entryPerimeter=0;" parent="1" source="5MixrlwHWUt_mnM7fPg1-1" target="5MixrlwHWUt_mnM7fPg1-16" edge="1">
          <mxGeometry relative="1" as="geometry" />
        </mxCell>
        <mxCell id="X3qE4WryWQg65PlPXzmQ-5" value="ZoraGift Dapp" style="text;html=1;align=center;verticalAlign=middle;resizable=0;points=[];autosize=1;strokeColor=none;fillColor=none;" parent="1" vertex="1">
          <mxGeometry x="300" y="348" width="100" height="30" as="geometry" />
        </mxCell>
        <mxCell id="X3qE4WryWQg65PlPXzmQ-6" value="Livepeer AI" style="text;html=1;align=center;verticalAlign=middle;resizable=0;points=[];autosize=1;strokeColor=none;fillColor=none;" parent="1" vertex="1">
          <mxGeometry x="500" y="238.35" width="80" height="30" as="geometry" />
        </mxCell>
        <mxCell id="X3qE4WryWQg65PlPXzmQ-10" style="edgeStyle=orthogonalEdgeStyle;rounded=0;orthogonalLoop=1;jettySize=auto;html=1;exitX=0.888;exitY=0.986;exitDx=0;exitDy=0;entryX=0.75;entryY=0;entryDx=0;entryDy=0;exitPerimeter=0;" parent="1" source="zdDgFbO8wIgGBFKdHX53-1" target="5MixrlwHWUt_mnM7fPg1-1" edge="1">
          <mxGeometry relative="1" as="geometry">
            <mxPoint x="392.5" y="195" as="sourcePoint" />
          </mxGeometry>
        </mxCell>
        <mxCell id="X3qE4WryWQg65PlPXzmQ-12" value="Zora.co" style="text;html=1;align=center;verticalAlign=middle;resizable=0;points=[];autosize=1;strokeColor=none;fillColor=none;" parent="1" vertex="1">
          <mxGeometry x="680" y="358" width="60" height="30" as="geometry" />
        </mxCell>
        <mxCell id="X3qE4WryWQg65PlPXzmQ-13" value="User 2" style="text;html=1;align=center;verticalAlign=middle;resizable=0;points=[];autosize=1;strokeColor=none;fillColor=none;" parent="1" vertex="1">
          <mxGeometry x="170" y="340" width="60" height="30" as="geometry" />
        </mxCell>
        <mxCell id="X3qE4WryWQg65PlPXzmQ-14" value="User 1" style="text;html=1;align=center;verticalAlign=middle;resizable=0;points=[];autosize=1;strokeColor=none;fillColor=none;" parent="1" vertex="1">
          <mxGeometry x="210" y="165" width="60" height="30" as="geometry" />
        </mxCell>
        <mxCell id="zdDgFbO8wIgGBFKdHX53-1" value="" style="html=1;verticalLabelPosition=bottom;align=center;labelBackgroundColor=#ffffff;verticalAlign=top;strokeWidth=2;strokeColor=#0080F0;shadow=0;dashed=0;shape=mxgraph.ios7.icons.data;" vertex="1" parent="1">
          <mxGeometry x="360" y="130" width="50" height="64.1" as="geometry" />
        </mxCell>
      </root>
    </mxGraphModel>
  </diagram>
</mxfile>
